<svg xmlns="http://www.w3.org/2000/svg" xmlns:xlink="http://www.w3.org/1999/xlink" width="2000" zoomAndPan="magnify" viewBox="0 0 1500 824.999997" height="1100" preserveAspectRatio="xMidYMid meet" version="1.0"><defs><clipPath id="2afe95ac72"><path d="M 673 211.898438 L 827 211.898438 L 827 284 L 673 284 Z M 673 211.898438 " clip-rule="nonzero"/></clipPath><clipPath id="b29b1e6287"><path d="M 673 211.898438 L 694 211.898438 L 694 284 L 673 284 Z M 673 211.898438 " clip-rule="nonzero"/></clipPath><clipPath id="93ce631fae"><path d="M 660.105469 307 L 840 307 L 840 613.148438 L 660.105469 613.148438 Z M 660.105469 307 " clip-rule="nonzero"/></clipPath></defs><path fill="#24625b" d="M 784.136719 283.417969 L 784.136719 308.886719 L 715.875 308.886719 L 715.875 283.417969 L 784.136719 283.417969 " fill-opacity="1" fill-rule="nonzero"/><path fill="#24625b" d="M 784.128906 283.417969 L 784.128906 292.671875 C 767.9375 289.128906 751.613281 286.675781 734.882812 287.898438 C 728.484375 288.371094 722.132812 289.632812 715.867188 291.210938 L 715.867188 283.417969 L 784.128906 283.417969 " fill-opacity="1" fill-rule="nonzero"/><path fill="#24625b" d="M 816.046875 318.890625 L 683.949219 318.890625 C 676.375 318.890625 670.234375 325.0625 670.234375 332.675781 L 670.234375 580.144531 C 670.234375 587.757812 676.375 593.929688 683.949219 593.929688 L 816.046875 593.929688 C 823.621094 593.929688 829.761719 587.757812 829.761719 580.144531 L 829.761719 332.675781 C 829.761719 325.0625 823.621094 318.890625 816.046875 318.890625 " fill-opacity="1" fill-rule="nonzero"/><path fill="#4ba198" d="M 816.046875 318.890625 L 810.84375 318.890625 L 810.84375 593.929688 L 816.046875 593.929688 C 823.621094 593.929688 829.761719 587.757812 829.761719 580.144531 L 829.761719 332.675781 C 829.761719 325.0625 823.621094 318.890625 816.046875 318.890625 " fill-opacity="1" fill-rule="nonzero"/><path fill="#24625b" d="M 694.628906 318.890625 L 683.949219 318.890625 C 676.375 318.890625 670.234375 325.0625 670.234375 332.675781 L 670.234375 580.144531 C 670.234375 587.757812 676.375 593.929688 683.949219 593.929688 L 694.628906 593.929688 L 694.628906 318.890625 " fill-opacity="1" fill-rule="nonzero"/><g clip-path="url(#2afe95ac72)"><path fill="#24625b" d="M 809.808594 283.417969 C 819.265625 283.417969 826.929688 275.753906 826.929688 266.300781 L 826.929688 229.019531 C 826.929688 219.566406 819.265625 211.902344 809.808594 211.902344 L 690.183594 211.902344 C 680.730469 211.902344 673.066406 219.566406 673.066406 229.019531 L 673.066406 266.300781 C 673.066406 275.753906 680.730469 283.417969 690.183594 283.417969 L 809.808594 283.417969 " fill-opacity="1" fill-rule="nonzero"/></g><g clip-path="url(#b29b1e6287)"><path fill="#24625b" d="M 693.863281 211.902344 L 690.183594 211.902344 C 680.730469 211.902344 673.066406 219.566406 673.066406 229.019531 L 673.066406 266.300781 C 673.066406 275.753906 680.730469 283.417969 690.183594 283.417969 L 693.863281 283.417969 L 693.863281 211.902344 " fill-opacity="1" fill-rule="nonzero"/></g><path fill="#4ba198" d="M 815.195312 212.78125 L 815.195312 282.542969 C 822.007812 280.28125 826.929688 273.871094 826.929688 266.296875 L 826.929688 229.023438 C 826.929688 221.453125 822.007812 215.039062 815.195312 212.78125 " fill-opacity="1" fill-rule="nonzero"/><g clip-path="url(#93ce631fae)"><path fill="#25c19b" d="M 676.980469 310.566406 C 669.546875 310.566406 663.496094 316.613281 663.496094 324.046875 L 663.496094 596.265625 C 663.496094 603.699219 669.546875 609.746094 676.980469 609.746094 L 823.011719 609.746094 C 830.449219 609.746094 836.496094 603.699219 836.496094 596.265625 L 836.496094 324.046875 C 836.496094 316.613281 830.449219 310.566406 823.011719 310.566406 Z M 823.011719 613.105469 L 676.980469 613.105469 C 667.691406 613.105469 660.136719 605.550781 660.136719 596.265625 L 660.136719 324.046875 C 660.136719 314.761719 667.691406 307.207031 676.980469 307.207031 L 823.011719 307.207031 C 832.300781 307.207031 839.855469 314.761719 839.855469 324.046875 L 839.855469 596.265625 C 839.855469 605.550781 832.300781 613.105469 823.011719 613.105469 " fill-opacity="1" fill-rule="nonzero"/></g><path fill="#4ba198" d="M 780.914062 505.097656 L 719.078125 505.097656 C 714.632812 505.097656 711.027344 501.492188 711.027344 497.046875 L 711.027344 415.777344 C 711.027344 411.328125 714.632812 407.722656 719.078125 407.722656 L 780.914062 407.722656 C 785.363281 407.722656 788.96875 411.328125 788.96875 415.777344 L 788.96875 497.046875 C 788.96875 501.492188 785.363281 505.097656 780.914062 505.097656 " fill-opacity="1" fill-rule="nonzero"/><path fill="#24625b" d="M 724.207031 414.90625 C 721.023438 414.90625 718.4375 417.496094 718.4375 420.675781 L 718.4375 492.144531 C 718.4375 495.328125 721.023438 497.914062 724.207031 497.914062 L 775.789062 497.914062 C 778.96875 497.914062 781.558594 495.328125 781.558594 492.144531 L 781.558594 420.675781 C 781.558594 417.496094 778.96875 414.90625 775.789062 414.90625 Z M 775.789062 500.179688 L 724.207031 500.179688 C 719.773438 500.179688 716.171875 496.574219 716.171875 492.144531 L 716.171875 420.675781 C 716.171875 416.246094 719.773438 412.640625 724.207031 412.640625 L 775.789062 412.640625 C 780.21875 412.640625 783.824219 416.246094 783.824219 420.675781 L 783.824219 492.144531 C 783.824219 496.574219 780.21875 500.179688 775.789062 500.179688 " fill-opacity="1" fill-rule="nonzero"/></svg>