<svg xmlns="http://www.w3.org/2000/svg" xmlns:xlink="http://www.w3.org/1999/xlink" width="2000" zoomAndPan="magnify" viewBox="0 0 1500 824.999997" height="1100" preserveAspectRatio="xMidYMid meet" version="1.0"><defs><clipPath id="e461900977"><path d="M 694.503906 183 L 805 183 L 805 644 L 694.503906 644 Z M 694.503906 183 " clip-rule="nonzero"/></clipPath><clipPath id="07d5c2bbb2"><path d="M 769.078125 201.402344 L 805.367188 201.402344 L 805.367188 278 L 769.078125 278 Z M 769.078125 201.402344 " clip-rule="nonzero"/></clipPath></defs><path fill="#26a69a" d="M 803.265625 404.148438 L 803.265625 627.621094 C 803.265625 635.945312 779.171875 642.691406 749.453125 642.691406 C 719.730469 642.691406 695.632812 635.945312 695.632812 627.621094 L 695.632812 404.148438 C 695.632812 403.851562 695.671875 403.554688 695.734375 403.261719 C 695.75 403.171875 695.785156 403.082031 695.808594 402.988281 C 695.863281 402.78125 695.929688 402.582031 696.019531 402.375 C 696.058594 402.277344 696.105469 402.175781 696.152344 402.078125 C 696.25 401.875 696.367188 401.675781 696.496094 401.476562 C 696.550781 401.390625 696.597656 401.304688 696.660156 401.214844 C 696.859375 400.933594 697.078125 400.65625 697.332031 400.378906 C 697.332031 400.375 697.332031 400.375 697.332031 400.375 C 697.585938 400.097656 697.875 399.832031 698.179688 399.5625 C 698.273438 399.480469 698.378906 399.398438 698.476562 399.316406 C 698.703125 399.128906 698.945312 398.9375 699.199219 398.757812 C 699.324219 398.667969 699.449219 398.578125 699.574219 398.488281 C 699.84375 398.300781 700.128906 398.117188 700.421875 397.9375 C 700.542969 397.863281 700.664062 397.785156 700.789062 397.710938 C 701.214844 397.457031 701.664062 397.203125 702.140625 396.960938 L 702.140625 327 C 702.140625 326.742188 702.175781 326.484375 702.226562 326.226562 C 702.246094 326.148438 702.273438 326.070312 702.292969 325.992188 C 702.339844 325.8125 702.402344 325.632812 702.472656 325.453125 C 702.511719 325.367188 702.546875 325.28125 702.589844 325.195312 C 702.675781 325.019531 702.777344 324.839844 702.894531 324.664062 C 702.941406 324.589844 702.984375 324.515625 703.03125 324.445312 C 703.203125 324.199219 703.390625 323.960938 703.609375 323.722656 C 703.609375 323.71875 703.613281 323.714844 703.613281 323.714844 C 703.839844 323.46875 704.097656 323.21875 704.375 322.976562 C 704.433594 322.925781 704.5 322.875 704.558594 322.820312 C 704.78125 322.632812 705.019531 322.449219 705.265625 322.265625 C 705.355469 322.203125 705.445312 322.136719 705.539062 322.078125 C 705.796875 321.898438 706.0625 321.722656 706.34375 321.546875 C 706.429688 321.496094 706.515625 321.441406 706.605469 321.386719 C 706.902344 321.207031 707.21875 321.03125 707.546875 320.859375 L 707.78125 260.839844 L 707.78125 243.875 L 707.847656 243.824219 L 707.851562 243.710938 L 707.902344 243.667969 C 707.890625 243.488281 707.882812 243.300781 707.890625 243.105469 C 707.894531 243.023438 707.90625 242.929688 707.914062 242.847656 C 707.925781 242.6875 707.941406 242.53125 707.964844 242.367188 C 707.980469 242.261719 708.003906 242.148438 708.023438 242.042969 C 708.054688 241.886719 708.082031 241.734375 708.125 241.570312 C 708.152344 241.453125 708.1875 241.328125 708.222656 241.210938 C 708.265625 241.046875 708.3125 240.890625 708.367188 240.71875 C 708.410156 240.59375 708.457031 240.464844 708.503906 240.332031 C 708.566406 240.164062 708.628906 239.996094 708.699219 239.824219 C 708.75 239.6875 708.808594 239.550781 708.867188 239.410156 C 708.941406 239.234375 709.023438 239.054688 709.109375 238.871094 C 709.175781 238.730469 709.242188 238.585938 709.3125 238.441406 C 709.40625 238.253906 709.507812 238.058594 709.605469 237.863281 C 709.683594 237.722656 709.753906 237.578125 709.835938 237.429688 C 709.949219 237.222656 710.070312 237.011719 710.191406 236.796875 C 710.269531 236.65625 710.351562 236.519531 710.4375 236.375 C 710.582031 236.132812 710.734375 235.886719 710.890625 235.636719 C 710.964844 235.519531 711.03125 235.402344 711.113281 235.28125 C 711.34375 234.910156 711.59375 234.539062 711.855469 234.152344 C 711.914062 234.070312 711.972656 233.984375 712.03125 233.902344 C 712.242188 233.601562 712.457031 233.296875 712.679688 232.988281 C 712.785156 232.835938 712.90625 232.679688 713.015625 232.53125 C 713.199219 232.277344 713.382812 232.03125 713.578125 231.78125 C 713.703125 231.605469 713.839844 231.433594 713.972656 231.261719 C 714.160156 231.023438 714.34375 230.78125 714.539062 230.539062 C 714.683594 230.355469 714.832031 230.175781 714.980469 229.992188 C 715.175781 229.75 715.371094 229.507812 715.574219 229.265625 C 715.726562 229.078125 715.886719 228.890625 716.046875 228.699219 C 716.253906 228.457031 716.460938 228.210938 716.675781 227.960938 C 716.839844 227.769531 717.011719 227.578125 717.179688 227.382812 C 717.394531 227.136719 717.617188 226.882812 717.84375 226.632812 C 718.015625 226.4375 718.1875 226.242188 718.367188 226.046875 C 718.601562 225.785156 718.847656 225.523438 719.085938 225.261719 C 719.261719 225.070312 719.4375 224.878906 719.617188 224.6875 C 719.878906 224.410156 720.144531 224.128906 720.414062 223.847656 C 720.585938 223.667969 720.753906 223.488281 720.925781 223.304688 C 721.257812 222.964844 721.597656 222.621094 721.9375 222.269531 C 722.058594 222.152344 722.167969 222.035156 722.289062 221.914062 C 722.75 221.449219 723.222656 220.980469 723.703125 220.511719 C 723.851562 220.367188 724.003906 220.21875 724.15625 220.074219 C 724.496094 219.742188 724.835938 219.410156 725.1875 219.078125 C 725.375 218.894531 725.574219 218.710938 725.773438 218.523438 C 726.085938 218.230469 726.398438 217.933594 726.714844 217.640625 C 726.933594 217.441406 727.152344 217.234375 727.375 217.035156 C 727.683594 216.75 727.992188 216.464844 728.304688 216.183594 C 728.53125 215.976562 728.761719 215.769531 728.992188 215.566406 C 729.304688 215.285156 729.621094 215 729.941406 214.714844 C 730.179688 214.507812 730.421875 214.296875 730.65625 214.089844 C 730.980469 213.808594 731.308594 213.523438 731.632812 213.242188 C 731.875 213.03125 732.121094 212.824219 732.367188 212.617188 C 732.699219 212.328125 733.039062 212.039062 733.378906 211.757812 C 733.625 211.546875 733.867188 211.34375 734.117188 211.140625 C 734.472656 210.84375 734.832031 210.546875 735.195312 210.25 C 735.429688 210.054688 735.664062 209.859375 735.90625 209.667969 C 736.3125 209.339844 736.722656 209.007812 737.132812 208.679688 C 737.332031 208.519531 737.53125 208.359375 737.734375 208.195312 C 738.351562 207.707031 738.976562 207.21875 739.605469 206.730469 C 742.242188 204.6875 744.867188 202.757812 747.445312 200.957031 C 748.742188 200.058594 750.019531 199.1875 751.285156 198.351562 C 753.183594 197.09375 755.046875 195.914062 756.871094 194.816406 C 758.082031 194.082031 759.277344 193.386719 760.445312 192.730469 C 763.367188 191.078125 766.140625 189.667969 768.707031 188.519531 C 769.582031 188.125 770.429688 187.769531 771.257812 187.4375 C 771.574219 187.308594 771.894531 187.183594 772.207031 187.0625 C 773.332031 186.636719 774.398438 186.269531 775.410156 185.96875 C 777.617188 185.3125 779.542969 184.960938 781.101562 184.960938 C 782.132812 184.964844 782.992188 185.128906 783.6875 185.4375 C 784 185.578125 784.289062 185.738281 784.527344 185.941406 C 784.679688 186.074219 784.820312 186.21875 784.945312 186.378906 C 785.050781 186.515625 785.136719 186.65625 785.214844 186.816406 C 785.289062 186.960938 785.351562 187.113281 785.402344 187.277344 C 785.402344 187.277344 785.40625 187.277344 785.40625 187.277344 C 785.40625 187.277344 785.449219 187.371094 785.523438 187.546875 L 785.695312 187.417969 C 785.695312 187.417969 791.363281 199.601562 791.269531 223.015625 C 791.238281 231.105469 791.183594 245.550781 791.121094 261 C 791.121094 285.734375 791.121094 312.976562 791.121094 320.730469 C 791.535156 320.941406 791.925781 321.164062 792.300781 321.386719 C 792.386719 321.441406 792.46875 321.496094 792.558594 321.546875 C 792.839844 321.722656 793.109375 321.898438 793.363281 322.078125 C 793.453125 322.136719 793.542969 322.203125 793.632812 322.265625 C 793.882812 322.449219 794.117188 322.632812 794.339844 322.820312 C 794.402344 322.875 794.46875 322.925781 794.527344 322.976562 C 794.804688 323.21875 795.0625 323.46875 795.289062 323.714844 C 795.289062 323.714844 795.292969 323.71875 795.296875 323.722656 C 795.511719 323.960938 795.699219 324.199219 795.867188 324.445312 C 795.921875 324.515625 795.964844 324.589844 796.011719 324.664062 C 796.121094 324.839844 796.222656 325.019531 796.308594 325.195312 C 796.351562 325.28125 796.390625 325.367188 796.425781 325.453125 C 796.503906 325.632812 796.558594 325.8125 796.609375 325.992188 C 796.628906 326.070312 796.65625 326.148438 796.671875 326.226562 C 796.726562 326.484375 796.761719 326.742188 796.761719 327 L 796.761719 396.960938 C 797.238281 397.203125 797.683594 397.457031 798.113281 397.710938 C 798.242188 397.785156 798.355469 397.863281 798.476562 397.9375 C 798.773438 398.117188 799.054688 398.300781 799.324219 398.488281 C 799.453125 398.578125 799.582031 398.667969 799.703125 398.757812 C 799.957031 398.9375 800.195312 399.128906 800.425781 399.316406 C 800.523438 399.398438 800.625 399.480469 800.71875 399.5625 C 801.023438 399.832031 801.3125 400.097656 801.5625 400.371094 C 801.566406 400.375 801.566406 400.375 801.570312 400.378906 C 801.824219 400.65625 802.042969 400.9375 802.238281 401.214844 C 802.300781 401.304688 802.351562 401.390625 802.40625 401.476562 C 802.535156 401.675781 802.648438 401.875 802.75 402.078125 C 802.800781 402.175781 802.84375 402.277344 802.886719 402.375 C 802.96875 402.582031 803.035156 402.78125 803.09375 402.988281 C 803.117188 403.082031 803.148438 403.171875 803.164062 403.261719 C 803.226562 403.554688 803.265625 403.851562 803.265625 404.148438 " fill-opacity="1" fill-rule="nonzero"/><path fill="#24625b" d="M 803.265625 404.148438 L 803.265625 627.621094 C 803.265625 635.945312 779.171875 642.691406 749.453125 642.691406 C 719.730469 642.691406 695.632812 635.945312 695.632812 627.621094 L 695.632812 404.148438 C 695.632812 412.472656 719.730469 419.21875 749.453125 419.21875 C 779.171875 419.21875 803.265625 412.472656 803.265625 404.148438 " fill-opacity="1" fill-rule="nonzero"/><path fill="#24625b" d="M 791.269531 223.015625 C 791.179688 246.429688 790.875 323.066406 790.875 323.066406 C 790.847656 329.507812 772.171875 334.65625 749.160156 334.566406 C 726.144531 334.472656 707.507812 329.179688 707.539062 322.734375 L 707.851562 243.710938 L 707.902344 243.667969 C 707.433594 237.011719 720.59375 221.453125 739.605469 206.730469 C 760.699219 190.394531 781 181.285156 784.941406 186.378906 C 785.207031 186.71875 785.386719 187.117188 785.492188 187.5625 L 785.695312 187.417969 C 785.695312 187.417969 791.363281 199.601562 791.269531 223.015625 " fill-opacity="1" fill-rule="nonzero"/><g clip-path="url(#e461900977)"><path fill="#24625b" d="M 749.453125 418.175781 C 717.882812 418.175781 696.675781 410.921875 696.675781 404.148438 C 696.675781 401.984375 698.832031 400.109375 701.101562 398.734375 L 701.101562 399.6875 C 701.101562 408.632812 725.683594 413.972656 749.453125 413.972656 C 773.21875 413.972656 797.800781 408.632812 797.800781 399.6875 L 797.800781 398.734375 C 800.070312 400.109375 802.226562 401.984375 802.226562 404.148438 C 802.226562 410.921875 781.019531 418.175781 749.453125 418.175781 Z M 749.453125 641.648438 C 717.882812 641.648438 696.675781 634.398438 696.675781 627.621094 L 696.675781 408.722656 C 703.613281 416.027344 726.851562 420.257812 749.453125 420.257812 C 772.046875 420.257812 795.285156 416.027344 802.226562 408.722656 L 802.226562 627.621094 C 802.226562 634.398438 781.019531 641.648438 749.453125 641.648438 Z M 706.492188 322.679688 L 706.492188 322.730469 C 706.460938 330.984375 728.453125 335.527344 749.15625 335.609375 C 749.359375 335.609375 749.558594 335.609375 749.761719 335.609375 C 760.761719 335.609375 771.089844 334.425781 778.914062 332.273438 C 787.40625 329.929688 791.902344 326.746094 791.914062 323.066406 L 791.917969 322.371094 C 793.863281 323.558594 795.71875 325.167969 795.71875 327 C 795.71875 332.773438 776.714844 339.207031 749.453125 339.207031 C 722.1875 339.207031 703.183594 332.773438 703.183594 327 C 703.183594 325.320312 704.738281 323.828125 706.492188 322.679688 Z M 769.132812 189.46875 C 769.78125 189.175781 770.398438 188.914062 771 188.664062 C 771.195312 188.582031 771.378906 188.511719 771.570312 188.4375 C 771.972656 188.273438 772.367188 188.117188 772.75 187.972656 C 772.953125 187.898438 773.148438 187.824219 773.347656 187.753906 C 773.707031 187.625 774.054688 187.503906 774.390625 187.390625 C 774.570312 187.328125 774.75 187.269531 774.925781 187.210938 C 775.292969 187.09375 775.648438 186.988281 775.996094 186.890625 C 776.113281 186.855469 776.242188 186.816406 776.359375 186.785156 C 776.816406 186.65625 777.253906 186.550781 777.667969 186.457031 C 777.734375 186.441406 777.789062 186.433594 777.851562 186.417969 C 778.195312 186.34375 778.53125 186.28125 778.847656 186.226562 C 778.964844 186.210938 779.078125 186.195312 779.191406 186.175781 C 779.441406 186.140625 779.683594 186.113281 779.917969 186.085938 C 780.027344 186.074219 780.140625 186.070312 780.246094 186.058594 C 780.46875 186.042969 780.6875 186.03125 780.890625 186.03125 C 780.988281 186.03125 781.089844 186.027344 781.1875 186.027344 C 781.273438 186.027344 781.355469 186.03125 781.4375 186.03125 C 781.578125 186.039062 781.710938 186.046875 781.839844 186.058594 C 781.910156 186.066406 781.988281 186.074219 782.0625 186.082031 C 782.203125 186.101562 782.335938 186.121094 782.460938 186.148438 C 782.507812 186.160156 782.554688 186.164062 782.597656 186.171875 C 782.761719 186.210938 782.910156 186.253906 783.054688 186.304688 C 783.097656 186.324219 783.136719 186.34375 783.179688 186.359375 C 783.277344 186.394531 783.367188 186.4375 783.449219 186.480469 C 783.492188 186.503906 783.535156 186.527344 783.574219 186.550781 C 783.652344 186.597656 783.726562 186.648438 783.789062 186.699219 C 783.820312 186.722656 783.855469 186.746094 783.882812 186.769531 C 783.96875 186.847656 784.050781 186.925781 784.121094 187.011719 C 784.128906 187.023438 784.128906 187.039062 784.140625 187.050781 C 784.191406 187.121094 784.242188 187.199219 784.285156 187.285156 C 784.324219 187.367188 784.355469 187.457031 784.394531 187.550781 C 785.0625 189.445312 783.714844 193.765625 777.996094 200.910156 C 772.179688 208.179688 763.394531 216.503906 753.253906 224.359375 C 731.230469 241.410156 712.460938 248.871094 709.378906 244.894531 C 708.792969 244.136719 708.742188 242.667969 709.59375 240.421875 C 712.101562 233.996094 721.621094 222.617188 736.542969 210.488281 C 736.8125 210.273438 737.078125 210.058594 737.347656 209.84375 C 737.6875 209.574219 738.023438 209.300781 738.367188 209.023438 C 738.988281 208.535156 739.613281 208.042969 740.246094 207.554688 C 750.382812 199.703125 760.640625 193.277344 769.132812 189.46875 Z M 708.582031 321.484375 L 708.824219 321.363281 L 708.824219 260.84375 L 708.878906 247.167969 C 709.804688 247.722656 711.003906 247.988281 712.4375 247.988281 C 721.386719 247.988281 739.238281 237.847656 754.53125 226.003906 C 764.796875 218.054688 773.707031 209.609375 779.621094 202.214844 C 782.171875 199.03125 784.792969 195.230469 785.984375 191.878906 C 787.648438 197.195312 790.074219 207.558594 790.074219 222.847656 L 790.074219 261.15625 L 789.832031 323.0625 C 789.820312 325.589844 785.53125 328.285156 778.363281 330.261719 C 770.570312 332.40625 760.207031 333.589844 749.164062 333.523438 C 725.222656 333.429688 708.558594 327.761719 708.578125 322.738281 Z M 703.183594 397.597656 L 703.183594 331.304688 C 709.582031 337.632812 729.789062 341.292969 749.453125 341.292969 C 769.113281 341.292969 789.316406 337.632812 795.71875 331.304688 L 795.71875 399.6875 C 795.71875 405.460938 776.714844 411.890625 749.453125 411.890625 C 722.1875 411.890625 703.183594 405.460938 703.183594 399.6875 Z M 804.210938 403.128906 C 804.207031 403.109375 804.207031 403.09375 804.203125 403.078125 C 804.140625 402.75 804.039062 402.429688 803.917969 402.109375 C 803.90625 402.085938 803.898438 402.054688 803.886719 402.027344 C 803.761719 401.714844 803.605469 401.410156 803.421875 401.109375 C 803.402344 401.074219 803.382812 401.035156 803.359375 401.003906 C 803.175781 400.707031 802.960938 400.410156 802.722656 400.121094 C 802.691406 400.082031 802.664062 400.042969 802.628906 400.003906 C 802.386719 399.714844 802.117188 399.429688 801.824219 399.148438 C 801.777344 399.109375 801.738281 399.070312 801.695312 399.027344 C 801.394531 398.75 801.0625 398.476562 800.710938 398.199219 C 800.660156 398.164062 800.613281 398.121094 800.558594 398.085938 C 800.195312 397.8125 799.8125 397.542969 799.398438 397.277344 C 799.339844 397.238281 799.277344 397.199219 799.222656 397.164062 C 798.796875 396.898438 798.351562 396.636719 797.875 396.375 C 797.847656 396.359375 797.828125 396.34375 797.800781 396.332031 L 797.800781 327 C 797.800781 326.683594 797.769531 326.363281 797.707031 326.046875 C 797.683594 325.9375 797.640625 325.832031 797.613281 325.71875 C 797.558594 325.519531 797.507812 325.308594 797.425781 325.109375 C 797.371094 324.980469 797.296875 324.851562 797.230469 324.722656 C 797.148438 324.542969 797.066406 324.367188 796.960938 324.195312 C 796.875 324.054688 796.765625 323.917969 796.667969 323.78125 C 796.550781 323.621094 796.445312 323.460938 796.3125 323.304688 C 796.191406 323.15625 796.050781 323.019531 795.914062 322.875 C 795.773438 322.726562 795.636719 322.578125 795.480469 322.4375 C 795.324219 322.289062 795.148438 322.144531 794.976562 322 C 794.808594 321.863281 794.648438 321.726562 794.46875 321.59375 C 794.273438 321.445312 794.0625 321.300781 793.851562 321.152344 C 793.664062 321.023438 793.480469 320.898438 793.28125 320.773438 C 793.046875 320.625 792.796875 320.476562 792.546875 320.335938 C 792.414062 320.253906 792.300781 320.179688 792.164062 320.105469 L 792.164062 261.164062 L 792.3125 223.019531 C 792.402344 199.640625 786.875 187.484375 786.640625 186.976562 L 786.453125 187.066406 C 786.417969 186.992188 786.390625 186.925781 786.371094 186.886719 C 786.363281 186.851562 786.34375 186.824219 786.328125 186.789062 C 786.273438 186.636719 786.214844 186.484375 786.140625 186.34375 C 786.03125 186.125 785.910156 185.921875 785.769531 185.738281 C 785.441406 185.316406 785.039062 184.992188 784.585938 184.726562 C 784.542969 184.699219 784.503906 184.664062 784.457031 184.640625 C 782.332031 183.492188 778.992188 183.863281 775.457031 184.871094 C 773.046875 185.5625 770.546875 186.546875 768.277344 187.566406 C 759.644531 191.441406 749.234375 197.960938 738.964844 205.90625 C 738.355469 206.378906 737.75 206.855469 737.148438 207.332031 C 736.902344 207.523438 736.667969 207.71875 736.421875 207.914062 C 736.078125 208.191406 735.730469 208.464844 735.382812 208.746094 C 735.054688 209.015625 734.726562 209.285156 734.398438 209.554688 C 734.164062 209.746094 733.929688 209.9375 733.695312 210.132812 C 733.292969 210.46875 732.894531 210.800781 732.496094 211.136719 C 732.359375 211.253906 732.222656 211.367188 732.085938 211.484375 C 731.613281 211.886719 731.144531 212.289062 730.679688 212.6875 C 730.644531 212.71875 730.605469 212.75 730.570312 212.78125 C 723.875 218.582031 718.105469 224.410156 713.875 229.695312 C 710.753906 233.601562 707.519531 238.429688 706.949219 242.222656 C 706.921875 242.375 706.902344 242.527344 706.882812 242.675781 C 706.875 242.773438 706.871094 242.867188 706.867188 242.964844 C 706.859375 243.066406 706.847656 243.171875 706.84375 243.265625 L 706.742188 243.347656 L 706.742188 260.835938 L 706.503906 320.246094 C 706.453125 320.273438 706.402344 320.304688 706.351562 320.335938 C 706.101562 320.476562 705.851562 320.625 705.621094 320.773438 C 705.421875 320.898438 705.234375 321.023438 705.046875 321.152344 C 704.835938 321.296875 704.625 321.445312 704.429688 321.59375 C 704.25 321.726562 704.09375 321.863281 703.925781 321.996094 C 703.753906 322.144531 703.574219 322.289062 703.417969 322.4375 C 703.261719 322.578125 703.128906 322.726562 702.988281 322.871094 C 702.855469 323.015625 702.710938 323.15625 702.585938 323.304688 C 702.457031 323.460938 702.351562 323.617188 702.234375 323.777344 C 702.140625 323.917969 702.027344 324.054688 701.941406 324.195312 C 701.832031 324.367188 701.753906 324.542969 701.671875 324.71875 C 701.605469 324.847656 701.527344 324.980469 701.472656 325.113281 C 701.394531 325.308594 701.34375 325.515625 701.289062 325.714844 C 701.261719 325.828125 701.214844 325.933594 701.195312 326.046875 C 701.132812 326.363281 701.101562 326.683594 701.101562 327 L 701.101562 396.332031 C 701.074219 396.34375 701.058594 396.355469 701.035156 396.371094 C 700.550781 396.632812 700.097656 396.898438 699.671875 397.167969 C 699.617188 397.203125 699.5625 397.238281 699.511719 397.269531 C 699.09375 397.539062 698.699219 397.8125 698.339844 398.085938 C 698.289062 398.125 698.242188 398.160156 698.195312 398.195312 C 697.839844 398.472656 697.503906 398.753906 697.203125 399.03125 C 697.160156 399.070312 697.121094 399.109375 697.082031 399.144531 C 696.785156 399.429688 696.511719 399.714844 696.269531 400.007812 C 696.238281 400.042969 696.207031 400.078125 696.179688 400.117188 C 695.9375 400.410156 695.722656 400.707031 695.539062 401.003906 C 695.519531 401.035156 695.5 401.074219 695.480469 401.105469 C 695.296875 401.410156 695.140625 401.714844 695.015625 402.027344 C 695.003906 402.054688 694.992188 402.082031 694.984375 402.109375 C 694.859375 402.429688 694.765625 402.75 694.699219 403.078125 C 694.695312 403.09375 694.691406 403.109375 694.691406 403.128906 C 694.628906 403.464844 694.589844 403.808594 694.589844 404.148438 L 694.589844 627.621094 C 694.589844 637.707031 722.484375 643.734375 749.453125 643.734375 C 776.417969 643.734375 804.308594 637.707031 804.308594 627.621094 L 804.308594 404.148438 C 804.308594 403.808594 804.273438 403.464844 804.210938 403.128906 " fill-opacity="1" fill-rule="nonzero"/></g><g clip-path="url(#07d5c2bbb2)"><path fill="#26a69a" d="M 794.359375 242.433594 C 794.359375 259.015625 783.683594 260.1875 783.683594 260.1875 C 793.570312 260.1875 794.6875 277.9375 794.6875 277.9375 C 794.6875 261.359375 805.367188 260.1875 805.367188 260.1875 C 795.480469 260.1875 794.359375 242.433594 794.359375 242.433594 Z M 798.289062 225.511719 C 798.289062 225.511719 783.90625 227.089844 783.90625 249.421875 C 783.90625 249.421875 782.394531 225.511719 769.082031 225.511719 C 769.082031 225.511719 783.460938 223.933594 783.460938 201.597656 C 783.460938 201.597656 784.976562 225.511719 798.289062 225.511719 " fill-opacity="1" fill-rule="nonzero"/></g></svg>