<svg xmlns="http://www.w3.org/2000/svg" xmlns:xlink="http://www.w3.org/1999/xlink" width="2000" zoomAndPan="magnify" viewBox="0 0 1500 824.999997" height="1100" preserveAspectRatio="xMidYMid meet" version="1.0"><defs><clipPath id="03f0c2789f"><path d="M 705.597656 229 L 794 229 L 794 597.234375 L 705.597656 597.234375 Z M 705.597656 229 " clip-rule="nonzero"/></clipPath><clipPath id="7a1ae28edf"><path d="M 765.265625 243.597656 L 794.097656 243.597656 L 794.097656 305 L 765.265625 305 Z M 765.265625 243.597656 " clip-rule="nonzero"/></clipPath></defs><path fill="#829ab1" d="M 792.617188 405.8125 L 792.617188 584.613281 C 792.617188 591.273438 773.34375 596.671875 749.5625 596.671875 C 725.78125 596.671875 706.503906 591.273438 706.503906 584.613281 L 706.503906 405.8125 C 706.503906 405.574219 706.535156 405.339844 706.582031 405.101562 C 706.597656 405.03125 706.621094 404.960938 706.644531 404.886719 C 706.6875 404.722656 706.742188 404.558594 706.808594 404.394531 C 706.839844 404.316406 706.878906 404.234375 706.914062 404.15625 C 706.996094 403.992188 707.089844 403.835938 707.191406 403.675781 C 707.234375 403.605469 707.273438 403.535156 707.324219 403.46875 C 707.480469 403.242188 707.65625 403.019531 707.863281 402.796875 C 708.066406 402.574219 708.296875 402.359375 708.539062 402.144531 C 708.613281 402.078125 708.699219 402.011719 708.777344 401.949219 C 708.960938 401.796875 709.152344 401.644531 709.355469 401.5 C 709.453125 401.425781 709.554688 401.355469 709.65625 401.285156 C 709.871094 401.132812 710.097656 400.988281 710.332031 400.84375 C 710.429688 400.785156 710.527344 400.722656 710.625 400.664062 C 710.96875 400.457031 711.328125 400.257812 711.707031 400.0625 C 711.707031 400.0625 711.710938 400.0625 711.710938 400.0625 L 711.710938 344.089844 C 711.710938 343.882812 711.734375 343.675781 711.777344 343.46875 C 711.792969 343.40625 711.8125 343.34375 711.832031 343.28125 C 711.867188 343.136719 711.917969 342.992188 711.972656 342.851562 C 712.007812 342.78125 712.035156 342.710938 712.070312 342.644531 C 712.136719 342.503906 712.21875 342.359375 712.3125 342.21875 C 712.347656 342.160156 712.382812 342.101562 712.421875 342.042969 C 712.558594 341.847656 712.710938 341.65625 712.882812 341.464844 C 712.882812 341.460938 712.886719 341.457031 712.886719 341.457031 C 713.070312 341.261719 713.273438 341.0625 713.496094 340.871094 C 713.542969 340.828125 713.59375 340.785156 713.644531 340.742188 C 713.824219 340.59375 714.011719 340.449219 714.210938 340.300781 C 714.28125 340.25 714.355469 340.195312 714.429688 340.148438 C 714.632812 340.003906 714.84375 339.863281 715.074219 339.722656 C 715.140625 339.683594 715.207031 339.640625 715.28125 339.597656 C 715.519531 339.453125 715.769531 339.3125 716.03125 339.175781 L 716.222656 291.152344 L 716.222656 277.578125 L 716.273438 277.539062 L 716.277344 277.445312 L 716.320312 277.414062 C 716.308594 277.269531 716.300781 277.121094 716.308594 276.964844 C 716.3125 276.898438 716.324219 276.824219 716.328125 276.757812 C 716.335938 276.628906 716.347656 276.503906 716.367188 276.371094 C 716.378906 276.289062 716.402344 276.199219 716.414062 276.113281 C 716.441406 275.988281 716.464844 275.867188 716.496094 275.738281 C 716.519531 275.640625 716.546875 275.542969 716.574219 275.445312 C 716.609375 275.316406 716.648438 275.191406 716.691406 275.054688 C 716.726562 274.953125 716.761719 274.851562 716.800781 274.746094 C 716.847656 274.609375 716.902344 274.476562 716.957031 274.335938 C 717 274.226562 717.042969 274.117188 717.089844 274.007812 C 717.152344 273.867188 717.214844 273.722656 717.28125 273.574219 C 717.335938 273.464844 717.390625 273.347656 717.445312 273.230469 C 717.519531 273.082031 717.601562 272.925781 717.683594 272.769531 C 717.742188 272.65625 717.800781 272.539062 717.867188 272.421875 C 717.957031 272.257812 718.054688 272.089844 718.152344 271.917969 C 718.214844 271.804688 718.277344 271.695312 718.347656 271.578125 C 718.460938 271.386719 718.585938 271.1875 718.707031 270.988281 C 718.769531 270.894531 718.824219 270.800781 718.886719 270.703125 C 719.074219 270.40625 719.273438 270.109375 719.480469 269.800781 C 719.527344 269.734375 719.578125 269.667969 719.621094 269.601562 C 719.792969 269.359375 719.960938 269.113281 720.140625 268.867188 C 720.226562 268.746094 720.320312 268.625 720.410156 268.503906 C 720.554688 268.300781 720.703125 268.101562 720.859375 267.902344 C 720.957031 267.765625 721.066406 267.625 721.175781 267.488281 C 721.324219 267.296875 721.472656 267.101562 721.628906 266.910156 C 721.742188 266.765625 721.863281 266.617188 721.980469 266.46875 C 722.136719 266.277344 722.296875 266.085938 722.457031 265.890625 C 722.578125 265.742188 722.707031 265.589844 722.835938 265.4375 C 723 265.242188 723.167969 265.046875 723.339844 264.847656 C 723.472656 264.695312 723.605469 264.539062 723.742188 264.382812 C 723.914062 264.1875 724.089844 263.984375 724.273438 263.785156 C 724.410156 263.628906 724.546875 263.472656 724.691406 263.316406 C 724.878906 263.105469 725.074219 262.894531 725.265625 262.683594 C 725.40625 262.53125 725.546875 262.378906 725.691406 262.226562 C 725.898438 262.003906 726.113281 261.78125 726.328125 261.554688 C 726.464844 261.414062 726.601562 261.269531 726.738281 261.121094 C 727.003906 260.847656 727.277344 260.574219 727.550781 260.292969 C 727.644531 260.199219 727.734375 260.105469 727.832031 260.007812 C 728.199219 259.636719 728.574219 259.261719 728.960938 258.886719 C 729.078125 258.769531 729.203125 258.652344 729.324219 258.535156 C 729.59375 258.269531 729.867188 258.007812 730.148438 257.738281 C 730.300781 257.59375 730.457031 257.445312 730.617188 257.296875 C 730.867188 257.0625 731.117188 256.824219 731.367188 256.589844 C 731.542969 256.429688 731.71875 256.265625 731.898438 256.105469 C 732.144531 255.875 732.390625 255.648438 732.640625 255.421875 C 732.824219 255.257812 733.007812 255.09375 733.191406 254.929688 C 733.445312 254.703125 733.695312 254.476562 733.953125 254.25 C 734.140625 254.082031 734.335938 253.914062 734.523438 253.746094 C 734.785156 253.523438 735.042969 253.296875 735.304688 253.070312 C 735.5 252.902344 735.695312 252.734375 735.894531 252.570312 C 736.160156 252.339844 736.429688 252.109375 736.703125 251.882812 C 736.898438 251.714844 737.09375 251.550781 737.292969 251.386719 C 737.578125 251.152344 737.863281 250.914062 738.15625 250.675781 C 738.34375 250.519531 738.53125 250.363281 738.722656 250.207031 C 739.046875 249.949219 739.375 249.683594 739.707031 249.417969 C 739.863281 249.292969 740.027344 249.164062 740.1875 249.035156 C 740.679688 248.640625 741.179688 248.25 741.683594 247.859375 C 743.792969 246.226562 745.894531 244.683594 747.957031 243.242188 C 748.992188 242.519531 750.015625 241.824219 751.027344 241.15625 C 752.546875 240.148438 754.039062 239.207031 755.496094 238.328125 C 756.46875 237.742188 757.421875 237.183594 758.355469 236.65625 C 760.695312 235.339844 762.914062 234.207031 764.96875 233.289062 C 765.667969 232.972656 766.347656 232.6875 767.007812 232.425781 C 767.261719 232.320312 767.519531 232.21875 767.769531 232.125 C 768.667969 231.78125 769.523438 231.488281 770.332031 231.25 C 772.097656 230.722656 773.636719 230.445312 774.886719 230.445312 C 775.710938 230.445312 776.398438 230.574219 776.953125 230.824219 C 777.203125 230.933594 777.433594 231.066406 777.625 231.226562 C 777.75 231.332031 777.859375 231.449219 777.960938 231.574219 C 778.042969 231.683594 778.113281 231.800781 778.175781 231.925781 C 778.238281 232.042969 778.285156 232.164062 778.324219 232.292969 C 778.324219 232.292969 778.328125 232.292969 778.328125 232.292969 C 778.328125 232.292969 778.363281 232.371094 778.421875 232.511719 L 778.5625 232.410156 C 778.5625 232.410156 783.09375 242.15625 783.019531 260.890625 C 782.996094 267.363281 782.949219 278.921875 782.902344 291.28125 C 782.902344 311.070312 782.902344 332.867188 782.902344 339.070312 C 783.230469 339.238281 783.546875 339.417969 783.84375 339.597656 C 783.914062 339.640625 783.980469 339.683594 784.050781 339.722656 C 784.273438 339.863281 784.492188 340.003906 784.695312 340.148438 C 784.765625 340.195312 784.839844 340.25 784.910156 340.300781 C 785.113281 340.449219 785.296875 340.59375 785.476562 340.742188 C 785.527344 340.785156 785.582031 340.828125 785.625 340.871094 C 785.847656 341.0625 786.054688 341.261719 786.234375 341.457031 C 786.234375 341.457031 786.238281 341.460938 786.242188 341.464844 C 786.414062 341.65625 786.5625 341.847656 786.699219 342.042969 C 786.742188 342.101562 786.777344 342.160156 786.8125 342.21875 C 786.902344 342.359375 786.984375 342.503906 787.050781 342.644531 C 787.085938 342.710938 787.117188 342.78125 787.148438 342.851562 C 787.207031 342.992188 787.253906 343.136719 787.292969 343.28125 C 787.308594 343.34375 787.332031 343.40625 787.34375 343.46875 C 787.386719 343.675781 787.414062 343.882812 787.414062 344.089844 L 787.414062 400.0625 C 787.796875 400.257812 788.152344 400.457031 788.496094 400.664062 C 788.597656 400.722656 788.691406 400.785156 788.789062 400.84375 C 789.023438 400.988281 789.25 401.132812 789.464844 401.285156 C 789.570312 401.355469 789.671875 401.425781 789.769531 401.5 C 789.972656 401.644531 790.160156 401.796875 790.34375 401.949219 C 790.421875 402.011719 790.507812 402.078125 790.582031 402.144531 C 790.824219 402.359375 791.054688 402.574219 791.257812 402.792969 C 791.257812 402.796875 791.257812 402.796875 791.261719 402.796875 C 791.464844 403.019531 791.640625 403.242188 791.796875 403.46875 C 791.847656 403.535156 791.886719 403.605469 791.933594 403.675781 C 792.03125 403.835938 792.125 403.992188 792.203125 404.15625 C 792.246094 404.234375 792.28125 404.316406 792.3125 404.394531 C 792.378906 404.558594 792.433594 404.722656 792.480469 404.886719 C 792.5 404.960938 792.523438 405.03125 792.539062 405.101562 C 792.585938 405.339844 792.617188 405.574219 792.617188 405.8125 " fill-opacity="1" fill-rule="nonzero"/><path fill="#486581" d="M 792.617188 405.8125 L 792.617188 584.613281 C 792.617188 591.273438 773.34375 596.671875 749.5625 596.671875 C 725.78125 596.671875 706.503906 591.273438 706.503906 584.613281 L 706.503906 405.8125 C 706.503906 412.472656 725.78125 417.871094 749.5625 417.871094 C 773.34375 417.871094 792.617188 412.472656 792.617188 405.8125 " fill-opacity="1" fill-rule="nonzero"/><path fill="#486581" d="M 783.019531 260.890625 C 782.949219 279.621094 782.703125 340.9375 782.703125 340.9375 C 782.683594 346.09375 767.742188 350.214844 749.328125 350.140625 C 730.914062 350.066406 716.003906 345.832031 716.027344 340.675781 L 716.277344 277.445312 L 716.320312 277.414062 C 715.945312 272.085938 726.472656 259.640625 741.683594 247.859375 C 758.5625 234.789062 774.800781 227.5 777.957031 231.574219 C 778.171875 231.847656 778.316406 232.167969 778.398438 232.523438 L 778.5625 232.410156 C 778.5625 232.410156 783.09375 242.15625 783.019531 260.890625 " fill-opacity="1" fill-rule="nonzero"/><g clip-path="url(#03f0c2789f)"><path fill="#486581" d="M 749.5625 417.035156 C 724.304688 417.035156 707.335938 411.234375 707.335938 405.8125 C 707.335938 404.082031 709.0625 402.582031 710.875 401.480469 L 710.875 402.242188 C 710.875 409.398438 730.542969 413.671875 749.5625 413.671875 C 768.578125 413.671875 788.246094 409.398438 788.246094 402.242188 L 788.246094 401.480469 C 790.0625 402.582031 791.785156 404.082031 791.785156 405.8125 C 791.785156 411.234375 774.820312 417.035156 749.5625 417.035156 Z M 749.5625 595.835938 C 724.304688 595.835938 707.335938 590.035156 707.335938 584.613281 L 707.335938 409.472656 C 712.886719 415.316406 731.480469 418.703125 749.5625 418.703125 C 767.640625 418.703125 786.234375 415.316406 791.785156 409.472656 L 791.785156 584.613281 C 791.785156 590.035156 774.820312 595.835938 749.5625 595.835938 Z M 715.191406 340.632812 L 715.191406 340.671875 C 715.164062 347.277344 732.761719 350.910156 749.328125 350.976562 C 749.488281 350.976562 749.648438 350.976562 749.808594 350.976562 C 758.609375 350.976562 766.875 350.03125 773.136719 348.304688 C 779.929688 346.429688 783.523438 343.882812 783.535156 340.941406 L 783.539062 340.382812 C 785.09375 341.332031 786.582031 342.621094 786.582031 344.089844 C 786.582031 348.707031 771.375 353.855469 749.5625 353.855469 C 727.746094 353.855469 712.542969 348.707031 712.542969 344.089844 C 712.542969 342.742188 713.789062 341.550781 715.191406 340.632812 Z M 765.308594 234.046875 C 765.828125 233.816406 766.320312 233.605469 766.804688 233.402344 C 766.957031 233.339844 767.105469 233.285156 767.257812 233.222656 C 767.578125 233.09375 767.894531 232.96875 768.203125 232.851562 C 768.363281 232.792969 768.523438 232.734375 768.679688 232.675781 C 768.96875 232.574219 769.246094 232.476562 769.515625 232.386719 C 769.660156 232.335938 769.804688 232.289062 769.945312 232.242188 C 770.238281 232.148438 770.523438 232.066406 770.796875 231.988281 C 770.894531 231.957031 770.996094 231.925781 771.09375 231.902344 C 771.457031 231.800781 771.808594 231.714844 772.136719 231.640625 C 772.191406 231.628906 772.234375 231.621094 772.285156 231.609375 C 772.558594 231.550781 772.828125 231.5 773.082031 231.457031 C 773.175781 231.441406 773.265625 231.429688 773.355469 231.414062 C 773.558594 231.386719 773.75 231.363281 773.9375 231.34375 C 774.027344 231.335938 774.117188 231.328125 774.203125 231.320312 C 774.378906 231.308594 774.550781 231.300781 774.714844 231.296875 C 774.792969 231.296875 774.878906 231.292969 774.953125 231.292969 C 775.023438 231.292969 775.085938 231.296875 775.152344 231.300781 C 775.265625 231.304688 775.371094 231.3125 775.476562 231.320312 C 775.53125 231.324219 775.59375 231.332031 775.652344 231.339844 C 775.765625 231.355469 775.871094 231.371094 775.972656 231.390625 C 776.007812 231.402344 776.046875 231.40625 776.082031 231.414062 C 776.214844 231.445312 776.332031 231.476562 776.445312 231.519531 C 776.480469 231.53125 776.511719 231.546875 776.546875 231.5625 C 776.625 231.589844 776.695312 231.625 776.761719 231.660156 C 776.796875 231.675781 776.832031 231.695312 776.863281 231.714844 C 776.925781 231.75 776.984375 231.792969 777.035156 231.832031 C 777.0625 231.851562 777.085938 231.871094 777.109375 231.890625 C 777.179688 231.953125 777.246094 232.015625 777.300781 232.085938 C 777.304688 232.09375 777.308594 232.105469 777.316406 232.113281 C 777.355469 232.171875 777.398438 232.234375 777.433594 232.304688 C 777.464844 232.367188 777.488281 232.4375 777.519531 232.511719 C 778.054688 234.03125 776.976562 237.488281 772.398438 243.203125 C 767.746094 249.019531 760.714844 255.679688 752.605469 261.964844 C 734.984375 275.609375 719.964844 281.578125 717.5 278.394531 C 717.03125 277.789062 716.988281 276.613281 717.671875 274.816406 C 719.675781 269.675781 727.292969 260.570312 739.234375 250.867188 C 739.449219 250.695312 739.664062 250.523438 739.878906 250.351562 C 740.148438 250.132812 740.417969 249.914062 740.691406 249.695312 C 741.191406 249.304688 741.691406 248.910156 742.195312 248.519531 C 750.304688 242.234375 758.515625 237.097656 765.308594 234.046875 Z M 716.863281 339.675781 L 717.054688 339.578125 L 717.054688 291.15625 L 717.097656 280.214844 C 717.839844 280.65625 718.800781 280.871094 719.945312 280.871094 C 727.105469 280.871094 741.390625 272.757812 753.625 263.28125 C 761.839844 256.921875 768.96875 250.164062 773.703125 244.246094 C 775.742188 241.699219 777.835938 238.65625 778.792969 235.976562 C 780.121094 240.230469 782.066406 248.523438 782.066406 260.757812 L 782.066406 291.40625 L 781.871094 340.9375 C 781.859375 342.960938 778.429688 345.113281 772.691406 346.695312 C 766.457031 348.414062 758.167969 349.359375 749.332031 349.308594 C 730.175781 349.230469 716.84375 344.699219 716.859375 340.675781 Z M 712.542969 400.570312 L 712.542969 347.53125 C 717.664062 352.59375 733.828125 355.523438 749.5625 355.523438 C 765.292969 355.523438 781.457031 352.59375 786.582031 347.53125 L 786.582031 402.242188 C 786.582031 406.863281 771.375 412.007812 749.5625 412.007812 C 727.746094 412.007812 712.542969 406.863281 712.542969 402.242188 Z M 793.375 404.996094 C 793.371094 404.984375 793.371094 404.96875 793.367188 404.957031 C 793.316406 404.695312 793.238281 404.4375 793.140625 404.183594 C 793.128906 404.164062 793.125 404.136719 793.117188 404.117188 C 793.015625 403.867188 792.890625 403.625 792.742188 403.382812 C 792.726562 403.351562 792.710938 403.324219 792.695312 403.296875 C 792.546875 403.058594 792.375 402.820312 792.183594 402.589844 C 792.160156 402.558594 792.136719 402.527344 792.109375 402.496094 C 791.914062 402.265625 791.699219 402.039062 791.464844 401.8125 C 791.429688 401.78125 791.398438 401.75 791.363281 401.71875 C 791.121094 401.492188 790.855469 401.273438 790.574219 401.054688 C 790.535156 401.023438 790.496094 400.992188 790.453125 400.960938 C 790.160156 400.742188 789.855469 400.527344 789.523438 400.316406 C 789.476562 400.285156 789.429688 400.253906 789.382812 400.226562 C 789.042969 400.011719 788.6875 399.804688 788.304688 399.59375 C 788.285156 399.582031 788.265625 399.570312 788.246094 399.558594 L 788.246094 344.089844 C 788.246094 343.832031 788.222656 343.578125 788.167969 343.324219 C 788.152344 343.238281 788.117188 343.152344 788.09375 343.0625 C 788.050781 342.902344 788.011719 342.734375 787.945312 342.574219 C 787.902344 342.46875 787.84375 342.367188 787.789062 342.265625 C 787.722656 342.121094 787.65625 341.980469 787.574219 341.84375 C 787.507812 341.730469 787.417969 341.621094 787.339844 341.511719 C 787.246094 341.382812 787.160156 341.253906 787.054688 341.132812 C 786.957031 341.011719 786.84375 340.902344 786.734375 340.785156 C 786.625 340.667969 786.515625 340.550781 786.390625 340.4375 C 786.265625 340.316406 786.125 340.203125 785.984375 340.089844 C 785.851562 339.980469 785.722656 339.867188 785.582031 339.761719 C 785.425781 339.640625 785.253906 339.527344 785.085938 339.410156 C 784.9375 339.304688 784.789062 339.207031 784.628906 339.105469 C 784.441406 338.988281 784.242188 338.871094 784.042969 338.753906 C 783.9375 338.691406 783.84375 338.628906 783.734375 338.570312 L 783.734375 291.414062 L 783.855469 260.890625 C 783.925781 242.1875 779.503906 232.460938 779.316406 232.054688 L 779.164062 232.128906 C 779.140625 232.066406 779.117188 232.015625 779.101562 231.984375 C 779.09375 231.957031 779.078125 231.933594 779.066406 231.902344 C 779.023438 231.78125 778.976562 231.664062 778.914062 231.546875 C 778.828125 231.375 778.730469 231.210938 778.617188 231.066406 C 778.359375 230.726562 778.035156 230.464844 777.671875 230.253906 C 777.640625 230.234375 777.609375 230.207031 777.570312 230.183594 C 775.867188 229.269531 773.195312 229.5625 770.367188 230.371094 C 768.441406 230.921875 766.441406 231.710938 764.625 232.527344 C 757.714844 235.628906 749.386719 240.84375 741.171875 247.199219 C 740.683594 247.578125 740.199219 247.960938 739.71875 248.339844 C 739.523438 248.496094 739.332031 248.652344 739.136719 248.804688 C 738.863281 249.027344 738.582031 249.25 738.308594 249.472656 C 738.042969 249.6875 737.78125 249.902344 737.519531 250.121094 C 737.328125 250.273438 737.144531 250.425781 736.957031 250.582031 C 736.632812 250.851562 736.316406 251.117188 735.996094 251.382812 C 735.886719 251.480469 735.777344 251.570312 735.667969 251.664062 C 735.289062 251.984375 734.914062 252.308594 734.542969 252.625 C 734.511719 252.652344 734.484375 252.679688 734.457031 252.699219 C 729.097656 257.34375 724.484375 262.003906 721.097656 266.234375 C 718.597656 269.359375 716.011719 273.222656 715.554688 276.257812 C 715.535156 276.378906 715.519531 276.5 715.503906 276.617188 C 715.496094 276.695312 715.492188 276.773438 715.488281 276.851562 C 715.484375 276.933594 715.476562 277.015625 715.472656 277.09375 L 715.390625 277.15625 L 715.390625 291.152344 L 715.199219 338.683594 C 715.160156 338.707031 715.117188 338.730469 715.078125 338.753906 C 714.878906 338.871094 714.679688 338.988281 714.492188 339.105469 C 714.332031 339.207031 714.183594 339.304688 714.035156 339.410156 C 713.867188 339.523438 713.695312 339.640625 713.539062 339.761719 C 713.398438 339.867188 713.269531 339.976562 713.136719 340.085938 C 713 340.203125 712.855469 340.316406 712.730469 340.4375 C 712.605469 340.550781 712.5 340.667969 712.386719 340.785156 C 712.277344 340.898438 712.164062 341.011719 712.066406 341.132812 C 711.960938 341.253906 711.875 341.382812 711.785156 341.507812 C 711.707031 341.621094 711.617188 341.730469 711.550781 341.84375 C 711.460938 341.980469 711.398438 342.121094 711.332031 342.261719 C 711.28125 342.363281 711.21875 342.46875 711.175781 342.578125 C 711.113281 342.734375 711.070312 342.898438 711.027344 343.058594 C 711.003906 343.148438 710.96875 343.234375 710.949219 343.324219 C 710.902344 343.578125 710.875 343.832031 710.875 344.089844 L 710.875 399.558594 C 710.855469 399.570312 710.84375 399.578125 710.824219 399.589844 C 710.4375 399.800781 710.074219 400.011719 709.734375 400.230469 C 709.6875 400.257812 709.644531 400.285156 709.605469 400.308594 C 709.269531 400.523438 708.957031 400.742188 708.667969 400.964844 C 708.625 400.992188 708.589844 401.023438 708.550781 401.050781 C 708.265625 401.273438 708 401.496094 707.757812 401.71875 C 707.722656 401.75 707.691406 401.78125 707.660156 401.808594 C 707.425781 402.039062 707.207031 402.265625 707.011719 402.5 C 706.984375 402.527344 706.960938 402.558594 706.9375 402.589844 C 706.746094 402.820312 706.574219 403.058594 706.425781 403.296875 C 706.410156 403.324219 706.394531 403.351562 706.378906 403.378906 C 706.230469 403.625 706.109375 403.867188 706.007812 404.117188 C 706 404.136719 705.992188 404.160156 705.980469 404.183594 C 705.882812 404.4375 705.804688 404.695312 705.753906 404.957031 C 705.75 404.96875 705.75 404.984375 705.75 404.996094 C 705.695312 405.265625 705.667969 405.539062 705.667969 405.8125 L 705.667969 584.613281 C 705.667969 592.683594 727.984375 597.503906 749.5625 597.503906 C 771.136719 597.503906 793.453125 592.683594 793.453125 584.613281 L 793.453125 405.8125 C 793.453125 405.539062 793.421875 405.265625 793.375 404.996094 " fill-opacity="1" fill-rule="nonzero"/></g><g clip-path="url(#7a1ae28edf)"><path fill="#829ab1" d="M 785.492188 276.425781 C 785.492188 289.695312 776.953125 290.628906 776.953125 290.628906 C 784.863281 290.628906 785.753906 304.832031 785.753906 304.832031 C 785.753906 291.566406 794.300781 290.628906 794.300781 290.628906 C 786.390625 290.628906 785.492188 276.425781 785.492188 276.425781 Z M 788.636719 262.886719 C 788.636719 262.886719 777.128906 264.148438 777.128906 282.015625 C 777.128906 282.015625 775.921875 262.886719 765.269531 262.886719 C 765.269531 262.886719 776.773438 261.625 776.773438 243.753906 C 776.773438 243.753906 777.984375 262.886719 788.636719 262.886719 " fill-opacity="1" fill-rule="nonzero"/></g></svg>