<svg xmlns="http://www.w3.org/2000/svg" xmlns:xlink="http://www.w3.org/1999/xlink" width="2000" zoomAndPan="magnify" viewBox="0 0 1500 824.999997" height="1100" preserveAspectRatio="xMidYMid meet" version="1.0"><defs><clipPath id="cbcdf8630d"><path d="M 523.167969 140.242188 L 976.917969 140.242188 L 976.917969 649 L 523.167969 649 Z M 523.167969 140.242188 " clip-rule="nonzero"/></clipPath><clipPath id="99587900f4"><path d="M 525 156 L 953 156 L 953 650.242188 L 525 650.242188 Z M 525 156 " clip-rule="nonzero"/></clipPath></defs><g clip-path="url(#cbcdf8630d)"><path fill="#4ba198" d="M 709.667969 369.066406 L 657.523438 155.328125 L 675.757812 140.539062 L 947.707031 196.882812 L 976.933594 452.441406 L 768.378906 648.769531 L 530.867188 564.808594 L 523.167969 533.007812 Z M 709.667969 369.066406 " fill-opacity="1" fill-rule="evenodd"/></g><path fill="#24625b" d="M 713.023438 392.234375 L 906.523438 446.902344 L 832.835938 522.792969 L 635.152344 460.976562 Z M 713.023438 392.234375 " fill-opacity="1" fill-rule="evenodd"/><path fill="#4ba198" d="M 642.167969 455.078125 L 837.375 518.519531 L 762.421875 594.15625 L 564.90625 524.46875 Z M 642.167969 455.078125 " fill-opacity="1" fill-rule="evenodd"/><path fill="#25c19b" d="M 690.796875 185.566406 L 904.582031 236.085938 L 924.332031 414.597656 L 733.242188 359.71875 Z M 690.796875 185.566406 " fill-opacity="1" fill-rule="evenodd"/><path fill="#25c19b" d="M 767.773438 369.640625 L 755.386719 366.082031 L 747.972656 363.429688 L 906.179688 256.84375 L 908.296875 269.6875 L 909.992188 284.984375 Z M 818.789062 298.492188 C 830.234375 290.105469 841.726562 281.585938 852.535156 273.53125 C 873.832031 257.675781 892.429688 243.59375 902.617188 235.625 L 899.480469 234.886719 C 889.3125 242.648438 872.273438 255.257812 852.757812 269.605469 C 842.382812 277.242188 831.324219 285.339844 820.289062 293.445312 C 811.132812 300.171875 801.996094 306.910156 793.253906 313.34375 C 783.578125 320.46875 774.402344 327.238281 766.222656 333.246094 C 748.417969 346.3125 735.515625 355.6875 732.683594 357.421875 L 733.167969 359.421875 C 733.179688 359.414062 733.191406 359.421875 733.199219 359.414062 C 735.859375 358.003906 757.515625 342.796875 784.8125 323.148438 C 795.546875 315.429688 807.144531 307.023438 818.789062 298.492188 Z M 818.789062 298.492188 " fill-opacity="1" fill-rule="nonzero"/><g clip-path="url(#99587900f4)"><path fill="#25c19b" d="M 952.742188 438.007812 C 952.742188 438.007812 946.296875 382.3125 939.78125 326.632812 C 933.703125 274.640625 927.570312 222.675781 926.789062 216.019531 C 926.953125 215.957031 927.113281 215.886719 927.277344 215.765625 C 927.609375 215.511719 927.960938 215.035156 928.308594 214.5 C 928.613281 214.042969 928.914062 213.519531 929.238281 213.269531 C 929.957031 212.699219 930.707031 212.183594 931.464844 211.675781 C 932.621094 210.890625 933.8125 210.152344 935.007812 209.414062 C 935.9375 208.8125 937.558594 207.996094 939.355469 206.980469 C 941.53125 205.75 943.953125 204.253906 945.933594 202.765625 C 948 201.214844 949.558594 199.597656 950.054688 198.203125 C 950.3125 197.566406 950 196.84375 949.355469 196.589844 C 948.71875 196.339844 947.996094 196.652344 947.742188 197.289062 C 947.296875 198.320312 945.914062 199.34375 944.285156 200.445312 C 942.308594 201.769531 939.894531 203.046875 937.800781 204.210938 C 935.914062 205.261719 934.277344 206.222656 933.308594 206.882812 C 932.140625 207.730469 930.96875 208.574219 929.847656 209.484375 C 929.078125 210.109375 928.347656 210.757812 927.632812 211.445312 C 927.257812 211.8125 926.871094 212.445312 926.539062 213.097656 C 926.394531 213.386719 926.175781 213.773438 926.042969 214.003906 C 925.9375 213.984375 925.839844 214.085938 925.730469 214.105469 C 925.664062 214.078125 925.617188 214.007812 925.535156 213.992188 L 661.453125 156.292969 C 660.917969 156.179688 660.398438 156.511719 660.277344 157.042969 C 660.160156 157.574219 660.5 158.101562 661.027344 158.214844 L 923.847656 216.683594 C 924.765625 224.589844 930.664062 275.804688 936.625 327.003906 C 942.566406 378.089844 948.554688 429.074219 949.507812 437.160156 C 949.351562 436.898438 949.101562 436.683594 948.785156 436.59375 C 948.785156 436.59375 917.511719 427.808594 877.664062 416.703125 C 862.660156 412.53125 846.449219 408.007812 830.222656 403.546875 C 813.992188 399.085938 797.753906 394.671875 782.71875 390.605469 C 742.792969 379.789062 711.40625 371.414062 711.40625 371.414062 C 710.886719 371.269531 710.34375 371.582031 710.199219 372.101562 C 710.050781 372.625 710.363281 373.171875 710.886719 373.3125 C 710.886719 373.3125 742.125 382.207031 781.957031 393.386719 C 796.945312 397.589844 813.152344 402.128906 829.375 406.613281 C 845.59375 411.097656 861.832031 415.527344 876.855469 419.625 C 916.761719 430.515625 948.121094 439 948.121094 439 C 948.128906 439 948.128906 439 948.136719 439 L 764.851562 617.730469 C 758.765625 615.566406 730.003906 605.355469 694.394531 592.789062 C 679.269531 587.457031 662.921875 581.6875 646.558594 575.96875 C 630.195312 570.253906 613.808594 564.585938 598.648438 559.355469 C 558.371094 545.457031 526.707031 534.660156 526.707031 534.660156 C 526.191406 534.484375 525.628906 534.757812 525.453125 535.265625 C 525.273438 535.78125 525.542969 536.339844 526.058594 536.519531 C 526.058594 536.519531 557.546875 547.824219 597.695312 562.082031 C 603.546875 564.164062 609.625 566.316406 615.777344 568.492188 C 616.089844 570.226562 616.296875 572.90625 616.3125 573.179688 C 616.425781 575.574219 616.761719 577.660156 617.546875 579.550781 C 618.351562 581.515625 619.644531 583.246094 621.636719 584.867188 C 623.984375 586.71875 626.9375 588.253906 630.015625 589.113281 C 633.285156 590.023438 636.675781 590.179688 639.558594 589.359375 C 643.574219 588.222656 646.710938 585.257812 647.375 579.621094 C 663.101562 585.136719 678.816406 590.589844 693.394531 595.648438 C 729.347656 608.128906 758.355469 618.132812 764.152344 620.128906 L 769.949219 649.125 C 770.082031 649.800781 770.746094 650.238281 771.417969 650.097656 C 772.09375 649.964844 772.53125 649.308594 772.398438 648.636719 L 766.722656 619.902344 C 766.753906 619.84375 766.832031 619.820312 766.855469 619.753906 C 766.902344 619.632812 766.832031 619.519531 766.839844 619.390625 L 952.277344 439.296875 C 952.628906 438.96875 952.800781 438.488281 952.742188 438.007812 Z M 638.800781 586.515625 C 636.386719 587.121094 633.589844 586.847656 630.875 586.066406 C 628.195312 585.300781 625.585938 584.042969 623.519531 582.449219 C 621.898438 581.242188 620.820312 579.925781 620.101562 578.417969 C 619.34375 576.824219 618.957031 575.042969 618.742188 572.996094 C 618.714844 572.761719 618.449219 570.980469 618.113281 569.316406 C 626.980469 572.453125 636.042969 575.648438 645.140625 578.84375 C 645.070312 578.96875 644.941406 579.066406 644.921875 579.21875 C 644.273438 583.511719 641.882812 585.746094 638.800781 586.515625 Z M 638.800781 586.515625 " fill-opacity="1" fill-rule="evenodd"/></g></svg>