<svg xmlns="http://www.w3.org/2000/svg" xmlns:xlink="http://www.w3.org/1999/xlink" width="2000" zoomAndPan="magnify" viewBox="0 0 1500 824.999997" height="1100" preserveAspectRatio="xMidYMid meet" version="1.0"><defs><clipPath id="6c74a955ce"><path d="M 582.1875 223.753906 L 917.4375 223.753906 L 917.4375 600 L 582.1875 600 Z M 582.1875 223.753906 " clip-rule="nonzero"/></clipPath></defs><g clip-path="url(#6c74a955ce)"><path fill="#829ab1" d="M 720.160156 393.042969 L 681.582031 234.917969 L 695.070312 223.980469 L 896.261719 265.660156 L 917.878906 454.722656 L 763.59375 599.964844 L 587.882812 537.851562 L 582.1875 514.324219 Z M 720.160156 393.042969 " fill-opacity="1" fill-rule="evenodd"/></g><path fill="#486581" d="M 722.640625 410.179688 L 865.792969 450.625 L 811.28125 506.769531 L 665.03125 461.035156 Z M 722.640625 410.179688 " fill-opacity="1" fill-rule="evenodd"/><path fill="#829ab1" d="M 670.222656 456.671875 L 814.636719 503.605469 L 759.1875 559.5625 L 613.066406 508.007812 Z M 670.222656 456.671875 " fill-opacity="1" fill-rule="evenodd"/><path fill="#486581" d="M 706.199219 257.289062 L 864.355469 294.664062 L 878.96875 426.726562 L 737.601562 386.128906 Z M 706.199219 257.289062 " fill-opacity="1" fill-rule="evenodd"/><path fill="#829ab1" d="M 763.144531 393.464844 L 753.980469 390.835938 L 748.496094 388.871094 L 865.539062 310.019531 L 867.105469 319.523438 L 868.359375 330.839844 Z M 800.886719 340.832031 C 809.355469 334.628906 817.855469 328.324219 825.851562 322.367188 C 841.609375 310.636719 855.367188 300.21875 862.902344 294.320312 L 860.582031 293.773438 C 853.058594 299.515625 840.453125 308.847656 826.019531 319.460938 C 818.339844 325.109375 810.160156 331.101562 801.996094 337.097656 C 795.222656 342.074219 788.464844 347.058594 781.996094 351.816406 C 774.839844 357.089844 768.050781 362.097656 761.996094 366.542969 C 748.828125 376.210938 739.28125 383.144531 737.1875 384.429688 L 737.542969 385.90625 C 737.554688 385.902344 737.5625 385.90625 737.566406 385.902344 C 739.535156 384.855469 755.558594 373.605469 775.75 359.070312 C 783.691406 353.363281 792.273438 347.144531 800.886719 340.832031 Z M 800.886719 340.832031 " fill-opacity="1" fill-rule="nonzero"/><path fill="#829ab1" d="M 899.984375 444.042969 C 899.984375 444.042969 895.214844 402.84375 890.394531 361.652344 C 885.902344 323.183594 881.363281 284.742188 880.785156 279.816406 C 880.90625 279.769531 881.023438 279.71875 881.148438 279.628906 C 881.390625 279.441406 881.652344 279.089844 881.910156 278.695312 C 882.136719 278.355469 882.355469 277.96875 882.597656 277.785156 C 883.128906 277.359375 883.683594 276.980469 884.246094 276.601562 C 885.101562 276.023438 885.980469 275.476562 886.867188 274.933594 C 887.554688 274.484375 888.753906 273.882812 890.082031 273.128906 C 891.691406 272.222656 893.484375 271.113281 894.949219 270.011719 C 896.476562 268.863281 897.632812 267.667969 898 266.636719 C 898.1875 266.167969 897.957031 265.632812 897.480469 265.441406 C 897.007812 265.257812 896.472656 265.488281 896.285156 265.960938 C 895.957031 266.722656 894.933594 267.480469 893.730469 268.296875 C 892.265625 269.273438 890.480469 270.21875 888.933594 271.082031 C 887.535156 271.859375 886.324219 272.570312 885.609375 273.058594 C 884.742188 273.683594 883.878906 274.3125 883.046875 274.984375 C 882.480469 275.445312 881.9375 275.925781 881.410156 276.433594 C 881.132812 276.707031 880.847656 277.171875 880.601562 277.65625 C 880.492188 277.871094 880.332031 278.15625 880.234375 278.328125 C 880.152344 278.3125 880.082031 278.386719 880.003906 278.402344 C 879.953125 278.382812 879.917969 278.332031 879.855469 278.316406 L 684.492188 235.632812 C 684.09375 235.546875 683.710938 235.792969 683.621094 236.1875 C 683.535156 236.578125 683.785156 236.96875 684.175781 237.054688 L 878.609375 280.308594 C 879.289062 286.160156 883.652344 324.046875 888.0625 361.921875 C 892.457031 399.714844 896.886719 437.433594 897.59375 443.417969 C 897.476562 443.222656 897.292969 443.0625 897.058594 442.996094 C 897.058594 442.996094 873.921875 436.496094 844.441406 428.285156 C 833.34375 425.195312 821.347656 421.847656 809.34375 418.550781 C 797.335938 415.25 785.324219 411.984375 774.203125 408.976562 C 744.664062 400.972656 721.445312 394.777344 721.445312 394.777344 C 721.058594 394.671875 720.660156 394.902344 720.550781 395.289062 C 720.441406 395.671875 720.675781 396.078125 721.058594 396.179688 C 721.058594 396.179688 744.171875 402.761719 773.636719 411.03125 C 784.726562 414.144531 796.714844 417.5 808.71875 420.816406 C 820.71875 424.136719 832.730469 427.414062 843.84375 430.445312 C 873.367188 438.503906 896.566406 444.777344 896.566406 444.777344 C 896.570312 444.777344 896.570312 444.777344 896.578125 444.777344 L 760.984375 577.003906 C 756.480469 575.402344 735.203125 567.847656 708.859375 558.550781 C 697.671875 554.605469 685.578125 550.335938 673.472656 546.105469 C 661.363281 541.878906 649.246094 537.683594 638.027344 533.816406 C 608.230469 523.535156 584.804688 515.546875 584.804688 515.546875 C 584.421875 515.417969 584.007812 515.617188 583.878906 515.996094 C 583.746094 516.375 583.941406 516.789062 584.324219 516.921875 C 584.324219 516.921875 607.621094 525.285156 637.320312 535.835938 C 641.652344 537.375 646.148438 538.964844 650.699219 540.574219 C 650.929688 541.859375 651.085938 543.84375 651.09375 544.042969 C 651.179688 545.8125 651.429688 547.359375 652.007812 548.757812 C 652.605469 550.210938 653.5625 551.492188 655.035156 552.691406 C 656.769531 554.0625 658.953125 555.195312 661.234375 555.832031 C 663.652344 556.503906 666.160156 556.621094 668.292969 556.015625 C 671.265625 555.171875 673.585938 552.976562 674.074219 548.808594 C 685.710938 552.890625 697.335938 556.921875 708.121094 560.664062 C 734.71875 569.898438 756.179688 577.300781 760.46875 578.777344 L 764.753906 600.226562 C 764.855469 600.726562 765.34375 601.050781 765.84375 600.949219 C 766.34375 600.847656 766.667969 600.363281 766.566406 599.867188 L 762.367188 578.609375 C 762.394531 578.566406 762.449219 578.546875 762.46875 578.5 C 762.5 578.410156 762.449219 578.324219 762.453125 578.230469 L 899.640625 445 C 899.898438 444.753906 900.027344 444.402344 899.984375 444.042969 Z M 667.734375 553.910156 C 665.945312 554.359375 663.878906 554.15625 661.867188 553.574219 C 659.886719 553.011719 657.957031 552.078125 656.425781 550.902344 C 655.226562 550.007812 654.429688 549.035156 653.898438 547.917969 C 653.339844 546.742188 653.050781 545.421875 652.890625 543.90625 C 652.875 543.734375 652.675781 542.414062 652.425781 541.1875 C 658.988281 543.507812 665.691406 545.871094 672.421875 548.234375 C 672.371094 548.328125 672.277344 548.398438 672.261719 548.511719 C 671.78125 551.6875 670.011719 553.339844 667.734375 553.910156 Z M 667.734375 553.910156 " fill-opacity="1" fill-rule="evenodd"/></svg>