<svg xmlns="http://www.w3.org/2000/svg" xmlns:xlink="http://www.w3.org/1999/xlink" width="2000" zoomAndPan="magnify" viewBox="0 0 1500 824.999997" height="1100" preserveAspectRatio="xMidYMid meet" version="1.0"><defs><clipPath id="e97a37714c"><path d="M 567 345 L 933 345 L 933 577.964844 L 567 577.964844 Z M 567 345 " clip-rule="nonzero"/></clipPath><clipPath id="11293fb182"><path d="M 606 345 L 933 345 L 933 577.964844 L 606 577.964844 Z M 606 345 " clip-rule="nonzero"/></clipPath><clipPath id="89b919c100"><path d="M 604 247.214844 L 911 247.214844 L 911 371 L 604 371 Z M 604 247.214844 " clip-rule="nonzero"/></clipPath></defs><g clip-path="url(#e97a37714c)"><path fill="#4ba198" d="M 921.535156 550.199219 C 878.664062 565.179688 845.210938 577.714844 766.070312 577.714844 C 727.273438 577.714844 690.117188 574.378906 657.554688 569.1875 C 625.882812 564.140625 598.738281 557.316406 578.414062 550.199219 C 568.917969 502.730469 565.285156 454.074219 567.804688 405.710938 C 567.949219 401.855469 568.246094 397.925781 569.660156 394.363281 C 571.140625 390.582031 573.886719 387.464844 576.632812 384.5 C 585.683594 374.78125 595.691406 365.953125 606.375 358.242188 C 612.898438 353.496094 619.726562 349.117188 626.699219 345.183594 L 873.25 345.183594 C 883.414062 350.898438 893.128906 357.421875 902.175781 364.839844 C 909.671875 370.847656 916.714844 377.449219 923.316406 384.496094 C 925.691406 387.089844 928.058594 389.757812 929.542969 392.875 C 929.839844 393.320312 930.066406 393.835938 930.289062 394.359375 C 931.773438 397.921875 931.992188 401.851562 932.214844 405.707031 C 934.664062 454.074219 931.101562 502.730469 921.535156 550.199219 Z M 921.535156 550.199219 " fill-opacity="1" fill-rule="nonzero"/></g><g clip-path="url(#11293fb182)"><path fill="#24625b" d="M 932.214844 405.710938 C 931.992188 401.855469 931.773438 397.925781 930.289062 394.363281 C 930.066406 393.847656 929.84375 393.324219 929.542969 392.878906 C 928.058594 389.765625 925.691406 387.09375 923.316406 384.5 C 916.710938 377.453125 909.671875 370.847656 902.175781 364.84375 C 893.125 357.425781 883.414062 350.898438 873.25 345.1875 L 626.699219 345.1875 C 619.726562 349.121094 612.902344 353.496094 606.375 358.246094 C 614.832031 367.816406 628.917969 372.5625 641.828125 375.898438 C 717.484375 395.703125 795.347656 401.335938 873.449219 396.515625 C 907.738281 412.097656 897.339844 454.699219 892.167969 478.851562 C 882.820312 522.46875 870.28125 529.957031 848.996094 547.390625 C 828.972656 563.777344 801.082031 565.261719 775.195312 565.933594 C 736.035156 567.046875 696.796875 568.085938 657.558594 569.199219 C 690.121094 574.390625 727.277344 577.730469 766.074219 577.730469 C 845.210938 577.730469 878.667969 565.195312 921.539062 550.210938 C 931.101562 502.730469 934.664062 454.074219 932.214844 405.710938 Z M 932.214844 405.710938 " fill-opacity="1" fill-rule="nonzero"/></g><path fill="#24625b" d="M 675.894531 505.5 C 695.304688 507.65625 732.605469 509.746094 753.949219 510.175781 C 772.101562 510.546875 817.285156 506.746094 838.429688 504.851562 C 845.34375 504.234375 850.757812 498.886719 851.8125 492.027344 C 854.488281 474.582031 855.097656 456.828125 853.621094 439.242188 C 853.019531 432.066406 847.546875 426.179688 840.386719 425.417969 C 784.730469 419.507812 729.738281 419.136719 674.132812 425.34375 C 667.007812 426.140625 661.589844 432.023438 660.988281 439.167969 C 659.46875 457.25 660.144531 475.519531 663.011719 493.4375 C 664.046875 499.878906 669.417969 504.78125 675.894531 505.5 Z M 675.894531 505.5 " fill-opacity="1" fill-rule="nonzero"/><g clip-path="url(#89b919c100)"><path fill="#b9bcd1" d="M 910.410156 303.425781 C 910.929688 324.9375 908.628906 346.523438 903.585938 367.363281 C 903.585938 367.363281 858.339844 369.589844 813.320312 370.40625 C 792.992188 370.847656 772.746094 371 756.648438 370.480469 C 702.5 368.773438 639.15625 364.546875 607.632812 357.277344 C 603.257812 331.390625 602.960938 304.761719 606.816406 278.804688 C 613.492188 273.386719 620.019531 269.160156 627.957031 265.824219 C 641.976562 259.894531 657.253906 257.664062 672.3125 255.441406 C 700.574219 251.363281 729.054688 247.207031 757.613281 247.726562 C 785.128906 248.320312 812.351562 253.214844 839.277344 258.777344 C 864.863281 264.042969 891.273438 270.71875 909.738281 289.113281 C 910.113281 293.859375 910.410156 298.605469 910.410156 303.425781 Z M 910.410156 303.425781 " fill-opacity="1" fill-rule="nonzero"/></g><path fill="#26a69a" d="M 910.410156 303.425781 C 910.929688 324.9375 908.628906 346.523438 903.585938 367.363281 C 903.585938 367.363281 858.339844 369.589844 813.320312 370.40625 C 814.875 359.5 815.023438 348.007812 809.683594 338.511719 C 803.453125 327.386719 791.066406 321.230469 778.976562 317.148438 C 731.949219 301.347656 679.660156 307.878906 632.710938 292.003906 C 629.746094 290.96875 626.480469 289.707031 625.070312 286.886719 C 623.585938 284.140625 624.105469 280.507812 626.996094 281.695312 C 628.921875 282.511719 633.375 284.808594 636.789062 285.625 C 710.144531 303.132812 785.992188 302.078125 860.511719 290.527344 C 867.488281 289.445312 869.152344 280.253906 863.058594 276.699219 C 860.367188 275.128906 859.226562 273.921875 861.675781 273.464844 C 879.777344 272.792969 902.101562 287.335938 910.410156 303.425781 Z M 910.410156 303.425781 " fill-opacity="1" fill-rule="nonzero"/></svg>