<svg xmlns="http://www.w3.org/2000/svg" xmlns:xlink="http://www.w3.org/1999/xlink" width="2000" zoomAndPan="magnify" viewBox="0 0 1500 824.999997" height="1100" preserveAspectRatio="xMidYMid meet" version="1.0"><defs><clipPath id="8e931dbc24"><path d="M 601 357 L 899 357 L 899 546.3125 L 601 546.3125 Z M 601 357 " clip-rule="nonzero"/></clipPath><clipPath id="baef683884"><path d="M 633 357 L 899 357 L 899 546.3125 L 633 546.3125 Z M 633 357 " clip-rule="nonzero"/></clipPath><clipPath id="4c22c440c3"><path d="M 631 278.5625 L 881 278.5625 L 881 379 L 631 379 Z M 631 278.5625 " clip-rule="nonzero"/></clipPath></defs><g clip-path="url(#8e931dbc24)"><path fill="#829ab1" d="M 889 524.082031 C 854.261719 536.222656 827.15625 546.382812 763.023438 546.382812 C 731.585938 546.382812 701.476562 543.675781 675.089844 539.46875 C 649.421875 535.378906 627.425781 529.851562 610.957031 524.082031 C 603.261719 485.617188 600.316406 446.191406 602.359375 407 C 602.480469 403.875 602.71875 400.6875 603.863281 397.800781 C 605.066406 394.738281 607.289062 392.214844 609.515625 389.808594 C 616.847656 381.933594 624.960938 374.78125 633.617188 368.53125 C 638.902344 364.6875 644.433594 361.136719 650.085938 357.953125 L 849.875 357.953125 C 858.109375 362.582031 865.984375 367.871094 873.316406 373.878906 C 879.386719 378.75 885.097656 384.097656 890.445312 389.804688 C 892.367188 391.910156 894.289062 394.074219 895.492188 396.597656 C 895.734375 396.960938 895.914062 397.378906 896.09375 397.800781 C 897.296875 400.6875 897.476562 403.871094 897.65625 406.996094 C 899.640625 446.191406 896.753906 485.617188 889 524.082031 Z M 889 524.082031 " fill-opacity="1" fill-rule="nonzero"/></g><g clip-path="url(#baef683884)"><path fill="#3b5998" d="M 897.65625 407 C 897.476562 403.875 897.296875 400.6875 896.09375 397.800781 C 895.914062 397.382812 895.738281 396.960938 895.492188 396.601562 C 894.289062 394.078125 892.367188 391.910156 890.445312 389.808594 C 885.09375 384.097656 879.386719 378.75 873.316406 373.882812 C 865.980469 367.871094 858.109375 362.582031 849.875 357.957031 L 650.085938 357.957031 C 644.433594 361.140625 638.90625 364.6875 633.617188 368.535156 C 640.46875 376.289062 651.886719 380.136719 662.347656 382.839844 C 723.652344 398.890625 786.746094 403.453125 850.039062 399.550781 C 877.824219 412.175781 869.394531 446.699219 865.203125 466.269531 C 857.628906 501.613281 847.472656 507.679688 830.222656 521.804688 C 813.996094 535.085938 791.394531 536.289062 770.417969 536.832031 C 738.683594 537.734375 706.886719 538.574219 675.09375 539.480469 C 701.476562 543.6875 731.589844 546.390625 763.023438 546.390625 C 827.15625 546.390625 854.265625 536.234375 889.003906 524.09375 C 896.753906 485.617188 899.640625 446.191406 897.65625 407 Z M 897.65625 407 " fill-opacity="1" fill-rule="nonzero"/></g><path fill="#3b5998" d="M 689.949219 487.863281 C 705.679688 489.609375 735.90625 491.300781 753.199219 491.652344 C 767.910156 491.953125 804.523438 488.871094 821.660156 487.335938 C 827.261719 486.835938 831.648438 482.503906 832.503906 476.945312 C 834.671875 462.808594 835.164062 448.421875 833.96875 434.171875 C 833.480469 428.355469 829.046875 423.585938 823.246094 422.96875 C 778.144531 418.175781 733.582031 417.878906 688.523438 422.910156 C 682.75 423.554688 678.359375 428.324219 677.871094 434.109375 C 676.640625 448.761719 677.1875 463.566406 679.511719 478.085938 C 680.347656 483.304688 684.703125 487.28125 689.949219 487.863281 Z M 689.949219 487.863281 " fill-opacity="1" fill-rule="nonzero"/><g clip-path="url(#4c22c440c3)"><path fill="#b9bcd1" d="M 879.988281 324.113281 C 880.410156 341.542969 878.542969 359.035156 874.457031 375.925781 C 874.457031 375.925781 837.792969 377.726562 801.3125 378.390625 C 784.839844 378.75 768.433594 378.871094 755.386719 378.449219 C 711.511719 377.070312 660.179688 373.640625 634.636719 367.75 C 631.089844 346.773438 630.851562 325.195312 633.972656 304.160156 C 639.382812 299.773438 644.671875 296.347656 651.105469 293.644531 C 662.464844 288.835938 674.847656 287.03125 687.046875 285.230469 C 709.949219 281.925781 733.03125 278.558594 756.167969 278.980469 C 778.46875 279.460938 800.527344 283.425781 822.34375 287.933594 C 843.078125 292.199219 864.480469 297.609375 879.445312 312.515625 C 879.746094 316.363281 879.988281 320.207031 879.988281 324.113281 Z M 879.988281 324.113281 " fill-opacity="1" fill-rule="nonzero"/></g><path fill="#829ab1" d="M 879.988281 324.113281 C 880.410156 341.542969 878.542969 359.035156 874.457031 375.925781 C 874.457031 375.925781 837.792969 377.726562 801.3125 378.390625 C 802.574219 369.554688 802.691406 360.238281 798.363281 352.546875 C 793.316406 343.53125 783.277344 338.542969 773.484375 335.234375 C 735.375 322.429688 693 327.722656 654.957031 314.859375 C 652.554688 314.019531 649.90625 312.996094 648.765625 310.710938 C 647.5625 308.488281 647.984375 305.542969 650.328125 306.503906 C 651.886719 307.164062 655.496094 309.027344 658.261719 309.691406 C 717.707031 323.878906 779.167969 323.019531 839.554688 313.660156 C 845.207031 312.785156 846.554688 305.335938 841.617188 302.453125 C 839.433594 301.183594 838.511719 300.203125 840.496094 299.835938 C 855.164062 299.292969 873.257812 311.074219 879.988281 324.113281 Z M 879.988281 324.113281 " fill-opacity="1" fill-rule="nonzero"/></svg>