<svg xmlns="http://www.w3.org/2000/svg" xmlns:xlink="http://www.w3.org/1999/xlink" width="2000" zoomAndPan="magnify" viewBox="0 0 1500 824.999997" height="1100" preserveAspectRatio="xMidYMid meet" version="1.0"><defs><clipPath id="afc817d709"><path d="M 613.753906 179.058594 L 886.003906 179.058594 L 886.003906 642 L 613.753906 642 Z M 613.753906 179.058594 " clip-rule="nonzero"/></clipPath><clipPath id="3d39297c0a"><path d="M 633 179.058594 L 886.003906 179.058594 L 886.003906 630 L 633 630 Z M 633 179.058594 " clip-rule="nonzero"/></clipPath></defs><g clip-path="url(#afc817d709)"><path fill="#48cfae" d="M 886.011719 210.816406 C 886.03125 211.125 885.789062 211.394531 885.480469 211.425781 L 885.441406 211.425781 C 885.441406 211.425781 884.46875 211.511719 882.65625 211.683594 C 881.925781 211.78125 881.066406 211.894531 880.085938 212.050781 L 837.867188 529.445312 L 846.515625 529.148438 C 846.515625 529.148438 845.992188 594.390625 842.863281 624.535156 C 842.96875 624.535156 843.09375 624.546875 843.199219 624.554688 C 844.25 624.546875 844.816406 624.546875 844.816406 624.546875 L 844.90625 624.546875 C 845.222656 624.546875 845.484375 624.808594 845.484375 625.125 C 845.484375 625.433594 845.25 625.683594 844.953125 625.703125 C 844.953125 625.703125 844.347656 625.75 843.21875 625.839844 C 843.074219 625.847656 842.890625 625.847656 842.726562 625.847656 C 841.945312 632.914062 841.011719 637.828125 839.894531 639.140625 C 834.101562 645.925781 688.4375 637.105469 688.4375 637.105469 L 688.4375 534.574219 L 699.03125 534.207031 L 619.503906 223.480469 L 613.953125 223.75 L 613.953125 187.339844 L 839.257812 180.464844 C 839.257812 180.457031 839.265625 180.425781 839.265625 180.425781 C 839.316406 180.101562 839.625 179.878906 839.941406 179.9375 C 840.183594 179.972656 840.363281 180.15625 840.421875 180.378906 C 840.421875 180.378906 840.433594 180.410156 840.441406 180.4375 L 885.414062 179.058594 L 885.414062 210.265625 C 885.730469 210.257812 885.992188 210.5 886.011719 210.816406 Z M 886.011719 210.816406 " fill-opacity="1" fill-rule="nonzero"/></g><path fill="#4ba198" d="M 834.359375 623.921875 C 833.300781 623.921875 832.191406 623.957031 831.035156 624.015625 C 830.339844 624.035156 829.628906 624.066406 828.894531 624.085938 C 828.152344 624.09375 827.363281 624.054688 826.574219 624.046875 C 825.859375 624.015625 825.050781 623.882812 824.269531 623.8125 C 823.449219 623.679688 822.613281 623.542969 821.753906 623.410156 C 820.859375 623.285156 819.914062 623.089844 818.996094 623.015625 C 818.542969 622.976562 818.082031 622.9375 817.617188 622.890625 C 817.359375 622.871094 817.222656 622.839844 816.859375 622.839844 L 816.136719 622.851562 C 814.941406 622.871094 813.707031 622.898438 812.472656 622.925781 C 812.769531 622.839844 813.070312 622.753906 813.320312 622.667969 C 814.179688 622.347656 814.96875 621.984375 815.710938 621.597656 C 817.148438 620.84375 818.574219 620.09375 820 619.351562 L 821.136719 618.695312 C 821.511719 618.445312 821.984375 618.058594 822.390625 617.722656 C 823.101562 616.972656 823.796875 616.066406 824.078125 615.042969 C 824.40625 614.050781 824.480469 613.078125 824.492188 612.230469 C 824.511719 611.3125 824.460938 610.621094 824.453125 609.839844 C 824.441406 608.402344 824.65625 607.292969 825.300781 606.464844 C 825.417969 606.222656 825.6875 606.078125 825.871094 605.878906 L 826.015625 605.734375 L 826.050781 605.695312 C 826.003906 605.722656 826.070312 605.683594 826.082031 605.675781 L 826.195312 605.589844 L 826.648438 605.261719 C 827.21875 604.855469 827.730469 604.539062 828.308594 604.238281 C 829.433594 603.671875 830.484375 603.457031 831.324219 603.757812 C 832.191406 604.007812 832.972656 604.867188 833.617188 605.808594 C 833.945312 606.3125 834.207031 606.765625 834.496094 607.351562 C 834.792969 607.921875 835.0625 608.460938 835.277344 608.972656 C 836.222656 611.074219 836.730469 613.007812 836.421875 614.753906 L 836.402344 614.917969 L 836.402344 614.957031 L 836.382812 615.023438 L 836.296875 615.371094 C 836.238281 615.601562 836.183594 615.824219 836.125 616.046875 C 836.019531 616.5 835.882812 616.902344 835.75 617.296875 C 835.625 617.695312 835.496094 618.070312 835.371094 618.425781 C 835.265625 618.8125 835.171875 619.1875 835.074219 619.542969 C 834.628906 620.941406 834.601562 622.109375 834.484375 622.871094 C 834.417969 623.410156 834.378906 623.746094 834.359375 623.921875 Z M 806.527344 623.070312 L 805.273438 622.792969 L 804.027344 622.503906 L 802.882812 622.175781 L 801.753906 621.847656 L 801.195312 621.683594 C 800.953125 621.617188 800.722656 621.511719 800.480469 621.425781 C 799.566406 621.066406 798.507812 620.34375 797.929688 619.3125 C 797.339844 618.292969 797.222656 617.375 797.042969 616.847656 C 796.847656 616.285156 796.734375 616.09375 796.394531 615.851562 C 796.320312 615.804688 796.242188 615.777344 796.175781 615.71875 C 796.15625 615.699219 796.085938 615.660156 795.980469 615.632812 L 795.722656 615.535156 L 794.738281 615.1875 C 793.28125 614.714844 791.867188 614.058594 790.660156 613.472656 C 790.082031 613.183594 789.523438 612.894531 788.867188 612.644531 L 788.40625 612.449219 L 788.289062 612.402344 L 788.242188 612.382812 L 788.050781 612.324219 C 787.75 612.230469 787.472656 612.152344 787.21875 612.113281 C 786.1875 611.871094 785.339844 612.007812 784.40625 612.480469 C 783.972656 612.75 783.585938 612.902344 783.105469 613.316406 C 782.875 613.492188 782.652344 613.675781 782.429688 613.847656 C 782.304688 613.945312 782.054688 614.175781 781.878906 614.332031 C 781.121094 615.015625 780.472656 615.71875 780.097656 616.421875 C 779.335938 617.78125 779.671875 619.449219 779.816406 620.863281 C 780 622.28125 780.019531 623.4375 780.019531 624.230469 C 780.019531 624.285156 780.019531 624.324219 780.019531 624.375 L 780.683594 624.363281 C 781.84375 624.355469 783 624.34375 784.144531 624.335938 C 788.617188 624.375 793.175781 623.949219 797.542969 623.648438 C 800.917969 623.449219 804.097656 623.273438 807.191406 623.140625 Z M 688.4375 534.574219 L 688.4375 637.09375 C 688.4375 637.09375 834.101562 645.925781 839.894531 639.128906 C 841.011719 637.820312 841.945312 632.902344 842.726562 625.839844 C 841.628906 625.855469 840.183594 625.820312 838.4375 625.722656 C 837.445312 625.695312 836.25 625.644531 835.09375 625.683594 C 833.90625 625.730469 832.597656 625.839844 831.179688 625.984375 C 830.449219 626.039062 829.695312 626.109375 828.914062 626.175781 C 828.144531 626.222656 827.371094 626.234375 826.574219 626.261719 C 825.6875 626.273438 824.867188 626.175781 823.980469 626.128906 C 823.140625 626.019531 822.273438 625.914062 821.398438 625.808594 C 820.558594 625.722656 819.738281 625.578125 818.832031 625.53125 C 818.378906 625.5 817.917969 625.480469 817.457031 625.460938 C 817.253906 625.453125 816.925781 625.421875 816.820312 625.441406 L 816.125 625.480469 C 814.265625 625.585938 812.367188 625.664062 810.351562 625.820312 C 806.382812 626.078125 802.074219 626.453125 797.8125 626.761719 C 793.4375 627.128906 788.984375 627.628906 784.242188 627.667969 C 783.09375 627.6875 781.9375 627.699219 780.78125 627.71875 L 779.914062 627.726562 L 779.144531 627.804688 L 777.476562 627.976562 C 776.328125 628.132812 775.203125 628.285156 773.9375 628.421875 C 773.320312 628.5 772.703125 628.566406 772.136719 628.574219 L 771.257812 628.625 L 770.824219 628.644531 L 770.605469 628.652344 L 770.296875 628.652344 C 767.761719 628.625 765.398438 628.21875 763.164062 627.921875 L 761.429688 627.71875 C 760.925781 627.648438 760.347656 627.667969 759.820312 627.628906 C 758.75 627.5625 757.582031 627.628906 756.445312 627.640625 C 755.222656 627.648438 753.96875 627.6875 752.871094 627.582031 L 752.011719 627.523438 L 751.800781 627.515625 L 751.097656 627.4375 L 749.410156 627.246094 C 747.171875 626.984375 744.957031 626.726562 742.777344 626.464844 C 741.707031 626.359375 740.65625 626.261719 739.605469 626.164062 C 738.566406 626.058594 737.515625 625.964844 736.457031 625.933594 C 735.40625 625.875 734.363281 625.820312 733.332031 625.761719 C 732.339844 625.75 731.355469 625.742188 730.382812 625.730469 C 726.441406 625.644531 722.617188 626.039062 719.105469 626.109375 C 718.289062 626.15625 717.488281 626.203125 716.707031 626.253906 C 716.292969 626.328125 715.886719 626.398438 715.484375 626.464844 L 714.886719 626.570312 L 714.835938 626.582031 L 714.816406 626.582031 L 714.683594 626.617188 L 714.402344 626.707031 C 712.929688 627.101562 711.523438 627.628906 710.074219 628.035156 C 709.351562 628.21875 708.628906 628.46875 707.976562 628.574219 C 707.320312 628.679688 706.683594 628.789062 706.074219 628.882812 C 704.738281 629.066406 703.648438 629.097656 702.585938 629.203125 C 701.546875 629.316406 700.628906 629.296875 699.839844 629.277344 C 699.039062 629.269531 698.367188 629.257812 697.816406 629.257812 C 696.71875 629.25 696.140625 629.242188 696.140625 629.242188 C 695.820312 629.242188 695.5625 628.96875 695.5625 628.652344 C 695.5625 628.34375 695.800781 628.101562 696.101562 628.074219 C 696.101562 628.074219 696.6875 628.035156 697.777344 627.96875 C 698.328125 627.929688 699 627.890625 699.792969 627.84375 C 700.582031 627.792969 701.507812 627.757812 702.492188 627.59375 C 703.464844 627.449219 704.628906 627.332031 705.730469 627.121094 C 706.328125 626.984375 706.953125 626.851562 707.609375 626.707031 C 708.265625 626.5625 708.832031 626.308594 709.476562 626.109375 C 710.761719 625.675781 712.167969 625.058594 713.738281 624.527344 L 714.039062 624.429688 L 714.183594 624.382812 L 714.21875 624.375 C 714.164062 624.382812 714.34375 624.34375 714.335938 624.34375 L 714.414062 624.324219 L 715.011719 624.191406 C 715.40625 624.101562 715.820312 624.015625 716.226562 623.929688 C 717.101562 623.824219 718.066406 623.707031 718.953125 623.640625 C 722.453125 623.410156 726.191406 622.898438 730.289062 622.871094 C 731.328125 622.851562 732.378906 622.832031 733.4375 622.8125 C 734.46875 622.839844 735.511719 622.859375 736.5625 622.890625 C 737.613281 622.90625 738.691406 622.976562 739.789062 623.070312 C 740.890625 623.160156 741.996094 623.246094 743.117188 623.332031 C 745.292969 623.542969 747.511719 623.765625 749.757812 623.996094 L 751.441406 624.171875 L 751.867188 624.21875 L 751.972656 624.230469 L 752.011719 624.230469 L 752.222656 624.238281 L 753.070312 624.285156 C 754.238281 624.382812 755.277344 624.324219 756.359375 624.316406 C 757.515625 624.304688 758.664062 624.21875 759.914062 624.296875 C 760.542969 624.324219 761.121094 624.304688 761.773438 624.382812 L 763.511719 624.566406 C 765.890625 624.863281 768.15625 625.230469 770.296875 625.269531 L 770.402344 625.277344 L 770.449219 625.277344 C 770.441406 625.277344 770.46875 625.277344 770.480469 625.277344 L 770.640625 625.269531 L 771.953125 625.210938 C 772.550781 625.203125 773.101562 625.144531 773.640625 625.066406 L 777.042969 624.664062 L 778.738281 624.5 C 778.730469 624.429688 778.730469 624.375 778.71875 624.296875 C 778.632812 623.574219 778.476562 622.523438 778.207031 621.144531 C 778.082031 620.460938 777.898438 619.6875 777.804688 618.753906 C 777.707031 617.839844 777.765625 616.671875 778.246094 615.582031 C 778.71875 614.503906 779.453125 613.589844 780.261719 612.730469 C 780.484375 612.507812 780.628906 612.335938 780.9375 612.066406 C 781.148438 611.882812 781.359375 611.6875 781.582031 611.496094 C 781.957031 611.121094 782.621094 610.695312 783.199219 610.320312 C 783.527344 610.15625 783.847656 610.003906 784.183594 609.839844 C 784.539062 609.703125 784.917969 609.609375 785.300781 609.492188 C 786.082031 609.355469 786.929688 609.328125 787.683594 609.472656 C 788.066406 609.53125 788.433594 609.609375 788.773438 609.703125 L 789.03125 609.769531 L 789.0625 609.78125 L 789.175781 609.820312 L 789.234375 609.839844 L 789.351562 609.886719 L 789.824219 610.058594 C 790.449219 610.261719 791.113281 610.570312 791.796875 610.871094 C 793.109375 611.4375 794.3125 611.921875 795.644531 612.296875 C 796.011719 612.414062 796.375 612.539062 796.742188 612.652344 L 797.003906 612.738281 C 797.082031 612.757812 797.175781 612.796875 797.320312 612.875 C 797.582031 613 797.839844 613.125 798.082031 613.269531 C 799.027344 613.820312 799.757812 614.964844 800.03125 615.84375 C 800.328125 616.738281 800.464844 617.367188 800.683594 617.664062 C 800.878906 617.972656 801.167969 618.175781 801.695312 618.378906 C 801.832031 618.417969 801.957031 618.484375 802.09375 618.511719 L 802.660156 618.667969 L 803.796875 618.996094 L 804.933594 619.3125 L 806.015625 619.542969 L 807.09375 619.785156 L 808.164062 619.902344 C 808.886719 620.027344 809.5625 619.949219 810.246094 619.929688 L 810.507812 619.921875 L 810.535156 619.921875 C 810.523438 619.921875 810.535156 619.921875 810.535156 619.921875 L 810.542969 619.921875 L 810.6875 619.890625 L 811.285156 619.777344 C 811.625 619.679688 811.835938 619.613281 812.171875 619.496094 C 812.828125 619.246094 813.503906 618.957031 814.199219 618.601562 C 815.632812 617.859375 817.058594 617.125 818.496094 616.394531 L 819.449219 615.84375 C 819.738281 615.652344 819.863281 615.496094 820.097656 615.34375 C 820.453125 614.929688 820.800781 614.5625 820.933594 614.023438 C 821.308594 613.007812 821.222656 611.46875 821.242188 609.859375 C 821.273438 609 821.300781 608.113281 821.570312 607.179688 C 821.636719 606.949219 821.6875 606.714844 821.773438 606.484375 L 822.082031 605.808594 C 822.265625 605.347656 822.59375 604.960938 822.882812 604.566406 C 823.152344 604.140625 823.554688 603.890625 823.902344 603.554688 L 824.171875 603.324219 L 824.242188 603.265625 L 824.328125 603.207031 L 824.441406 603.128906 L 824.90625 602.8125 C 825.5625 602.378906 826.3125 601.933594 827.054688 601.609375 C 827.808594 601.261719 828.644531 601 829.542969 600.867188 C 830.4375 600.742188 831.421875 600.847656 832.296875 601.175781 C 833.183594 601.492188 833.90625 602.050781 834.476562 602.628906 C 835.074219 603.207031 835.480469 603.851562 835.863281 604.46875 C 836.222656 605.078125 836.546875 605.761719 836.789062 606.320312 C 837.050781 606.878906 837.300781 607.46875 837.523438 608.085938 C 837.996094 609.28125 838.351562 610.476562 838.515625 611.6875 C 838.699219 612.894531 838.628906 614.117188 838.390625 615.160156 L 838.351562 615.363281 L 838.339844 615.410156 L 838.320312 615.507812 L 838.3125 615.523438 L 838.285156 615.613281 L 838.167969 615.949219 C 838.089844 616.171875 838.011719 616.394531 837.9375 616.613281 C 837.800781 617.046875 837.617188 617.472656 837.453125 617.878906 C 837.289062 618.28125 837.125 618.667969 836.972656 619.042969 C 836.847656 619.398438 836.730469 619.738281 836.625 620.066406 C 836.125 621.347656 835.960938 622.40625 835.789062 623.121094 C 835.699219 623.503906 835.632812 623.785156 835.59375 623.976562 C 836.691406 624.015625 837.628906 624.113281 838.542969 624.179688 C 840.421875 624.363281 841.859375 624.527344 842.898438 624.574219 C 846.023438 594.425781 846.554688 529.1875 846.554688 529.1875 L 837.90625 529.484375 L 699.078125 534.257812 Z M 759.617188 300.886719 C 735.445312 300.886719 715.839844 320.875 715.839844 345.519531 C 715.839844 370.175781 735.445312 390.15625 759.617188 390.15625 C 783.789062 390.15625 803.394531 370.164062 803.394531 345.519531 C 803.394531 320.867188 783.789062 300.886719 759.617188 300.886719 Z M 740.996094 291.921875 C 740.996094 291.921875 709.835938 252.464844 704.542969 248.828125 C 699.242188 245.1875 714.230469 306.753906 714.230469 306.753906 Z M 780.589844 251.90625 C 778.835938 251.558594 759.617188 295.335938 759.617188 295.335938 L 787.25 302.6875 C 787.25 302.6875 782.34375 252.261719 780.589844 251.90625 Z M 813.195312 343.371094 L 858.371094 310.445312 L 799.539062 304.492188 Z M 795.652344 386.203125 C 795.652344 386.203125 825.070312 396.1875 828.578125 396.1875 C 832.078125 396.1875 810.71875 362.367188 810.71875 362.367188 Z M 776.523438 414.230469 C 774.894531 414.550781 772.90625 415.457031 770.574219 416.957031 L 769.042969 434.152344 C 769.300781 434.421875 769.542969 434.617188 769.738281 434.710938 C 771.539062 435.617188 774.285156 424.851562 776.523438 414.230469 Z M 769.785156 405.882812 C 772.742188 406.039062 775.414062 406.703125 777.804688 407.851562 C 779.238281 400.488281 780.242188 394.484375 780.242188 394.484375 L 749.6875 401.035156 C 749.6875 401.035156 755.75 412.726562 761.3125 422.347656 L 762.816406 408.796875 C 763.164062 406.558594 765.484375 405.59375 769.785156 405.882812 Z M 710.894531 375.878906 C 710.894531 375.878906 702.835938 406.347656 705.988281 408.054688 C 709.140625 409.757812 734.007812 394.492188 734.007812 394.492188 Z M 708.792969 357.097656 L 710.546875 327.726562 L 665.015625 342.417969 Z M 708.792969 357.097656 " fill-opacity="1" fill-rule="nonzero"/><path fill="#4ba198" d="M 742.566406 413.828125 C 742.527344 414.039062 742.480469 414.222656 742.429688 414.367188 C 742.265625 415.300781 740.996094 418.289062 738.613281 423.339844 C 731.539062 438.460938 728.484375 447.011719 729.4375 448.96875 C 729.890625 449.699219 731.230469 450.382812 733.457031 451.019531 C 735.683594 451.65625 737.273438 452.3125 738.238281 452.996094 C 740.511719 454.828125 741.871094 457.285156 742.296875 460.359375 C 742.738281 464.984375 740.929688 469.941406 736.859375 475.222656 C 728.234375 486.179688 723.203125 491.730469 721.746094 491.867188 C 721.429688 491.894531 721.179688 491.886719 720.976562 491.839844 C 718.761719 490.699219 717.410156 489.207031 716.910156 487.347656 C 716.601562 486.171875 716.753906 485.101562 717.363281 484.117188 C 717.863281 483.355469 719.117188 481.890625 721.140625 479.714844 L 721.132812 479.605469 C 723.839844 476.65625 726.046875 474.105469 727.742188 471.953125 C 732.011719 466.730469 733.476562 463.085938 732.128906 461.015625 C 732.050781 460.878906 731.972656 460.785156 731.90625 460.714844 C 731.136719 460.011719 729.726562 459.261719 727.675781 458.46875 C 724.300781 457.167969 722.054688 455.65625 720.929688 453.921875 C 719.394531 451.308594 719.242188 447.675781 720.445312 443.03125 C 722.789062 433.671875 727.242188 422.800781 733.816406 410.40625 C 733.863281 410.261719 733.910156 410.144531 733.96875 410.066406 L 734.046875 409.847656 C 735.414062 408.226562 737.207031 407.984375 739.425781 409.113281 C 741.574219 410.210938 742.613281 411.773438 742.566406 413.828125 Z M 783.046875 411.609375 C 791.460938 419.570312 786.949219 433.140625 769.503906 452.3125 C 768.867188 453.015625 768.234375 453.003906 767.585938 452.28125 C 767.511719 452.148438 767.441406 452.082031 767.375 452.089844 L 765.003906 478.863281 C 764.8125 480.15625 764.144531 480.890625 763.019531 481.070312 L 757.667969 481.0625 C 756.183594 480.917969 755.355469 480.183594 755.164062 478.863281 C 755.144531 478.652344 755.125 478.441406 755.105469 478.238281 L 761.304688 422.347656 L 762.804688 408.796875 C 763.164062 406.570312 765.484375 405.59375 769.785156 405.894531 C 772.742188 406.046875 775.414062 406.714844 777.804688 407.859375 C 778.875 408.378906 779.894531 408.976562 780.859375 409.703125 C 781.609375 410.261719 782.34375 410.894531 783.046875 411.609375 Z M 780.636719 415.347656 C 779.691406 414.25 778.3125 413.882812 776.511719 414.230469 C 774.882812 414.550781 772.898438 415.457031 770.566406 416.957031 L 769.03125 434.152344 L 768.734375 437.515625 C 778.265625 424.777344 782.238281 417.382812 780.636719 415.347656 Z M 823.816406 401.5 L 803.125 403.929688 C 802.003906 404.179688 801.339844 404.882812 801.128906 406.027344 L 800.878906 411.359375 C 800.90625 412.351562 801.28125 413.199219 801.984375 413.902344 L 796.242188 472.964844 C 796.125 474.394531 796.644531 475.472656 797.804688 476.214844 L 801.445312 478.304688 C 802.042969 478.605469 802.6875 478.683594 803.382812 478.546875 C 804.761719 478.265625 805.496094 477.351562 805.601562 475.78125 L 806.863281 461.21875 C 815.644531 459.800781 820.066406 459.085938 820.125 459.085938 C 821.253906 458.90625 821.90625 458.105469 822.089844 456.667969 L 822.515625 452.167969 C 822.535156 451.742188 822.457031 451.289062 822.285156 450.808594 C 821.773438 449.441406 820.789062 448.832031 819.335938 448.96875 L 807.738281 450.617188 L 810.777344 414.859375 C 810.777344 414.222656 810.785156 413.613281 810.796875 413.046875 C 819.84375 411.8125 824.433594 411.195312 824.566406 411.1875 C 825.695312 411.003906 826.390625 410.230469 826.640625 408.863281 L 827.007812 404.796875 C 827.027344 404.292969 826.9375 403.8125 826.765625 403.332031 C 826.1875 401.980469 825.203125 401.363281 823.816406 401.5 Z M 823.816406 401.5 " fill-opacity="1" fill-rule="nonzero"/><g clip-path="url(#3d39297c0a)"><path fill="#24625b" d="M 886.011719 210.816406 C 886.03125 211.125 885.789062 211.394531 885.480469 211.425781 L 885.441406 211.425781 C 885.441406 211.425781 884.46875 211.511719 882.65625 211.683594 C 881.925781 211.78125 881.066406 211.894531 880.085938 212.050781 C 879.832031 212.089844 879.574219 212.128906 879.304688 212.167969 C 877.953125 212.386719 876.460938 212.636719 874.6875 212.800781 C 873.808594 212.851562 872.882812 212.898438 871.910156 212.957031 C 870.957031 212.964844 869.953125 212.976562 868.902344 212.984375 C 867.890625 213.003906 866.859375 212.976562 865.722656 213.101562 C 865.445312 213.128906 865.164062 213.148438 864.875 213.167969 C 864.757812 213.179688 864.539062 213.1875 864.5 213.207031 L 864.09375 213.292969 C 863.546875 213.410156 862.996094 213.515625 862.425781 213.640625 C 861.261719 213.941406 860.125 214.277344 858.804688 214.585938 C 858.15625 214.730469 857.484375 214.933594 856.835938 215.027344 C 856.191406 215.125 855.527344 215.230469 854.859375 215.335938 L 854.359375 215.414062 C 854.070312 215.460938 853.984375 215.433594 853.78125 215.453125 C 853.433594 215.460938 853.085938 215.472656 852.730469 215.480469 C 852.027344 215.5 851.3125 215.511719 850.589844 215.53125 C 849.164062 215.550781 847.710938 215.570312 846.226562 215.585938 C 845.484375 215.597656 844.742188 215.605469 843.980469 215.605469 C 843.296875 215.605469 842.476562 215.675781 841.714844 215.703125 C 840.164062 215.769531 838.574219 215.894531 836.980469 215.925781 C 836.183594 215.945312 835.382812 215.953125 834.5625 215.972656 L 833.339844 215.992188 L 833.03125 216.003906 C 832.820312 216.003906 832.789062 215.984375 832.664062 215.984375 L 832.027344 215.933594 C 831.179688 215.859375 830.304688 215.828125 829.445312 215.695312 C 828.597656 215.558594 827.75 215.425781 826.890625 215.277344 C 823.613281 214.59375 820.242188 214.230469 816.703125 213.902344 C 815.816406 213.84375 814.921875 213.777344 814.023438 213.71875 L 812.675781 213.621094 L 812 213.574219 L 811.382812 213.574219 C 809.589844 213.601562 807.835938 213.515625 805.964844 213.613281 C 804.144531 213.6875 802.199219 213.699219 800.425781 213.84375 C 798.601562 213.941406 796.800781 214.179688 794.902344 214.460938 C 793.949219 214.605469 793.003906 214.738281 792.058594 214.863281 C 791.113281 214.988281 790.160156 215.125 789.207031 215.25 C 787.324219 215.5 785.445312 215.730469 783.527344 216.109375 L 780.675781 216.609375 L 777.699219 217.042969 C 775.691406 217.371094 773.773438 217.515625 771.808594 217.738281 L 770.34375 217.890625 L 768.832031 217.988281 L 765.804688 218.179688 L 759.875 218.375 L 753.910156 218.691406 L 750.953125 218.730469 L 749.476562 218.75 L 749.199219 218.75 C 749.1875 218.75 748.976562 218.75 749.015625 218.738281 L 748.636719 218.710938 L 747.886719 218.644531 L 744.878906 218.382812 C 743.867188 218.304688 742.882812 218.199219 741.921875 218.054688 C 739.992188 217.785156 738.066406 217.515625 736.148438 217.253906 C 735.203125 217.128906 734.269531 216.976562 733.3125 216.878906 C 732.351562 216.792969 731.386719 216.707031 730.433594 216.628906 C 729.496094 216.550781 728.457031 216.4375 727.628906 216.398438 C 726.691406 216.359375 725.746094 216.320312 724.820312 216.28125 L 723.425781 216.222656 L 722 216.222656 C 721.054688 216.222656 720.109375 216.234375 719.164062 216.234375 L 717.757812 216.242188 C 717.390625 216.253906 716.878906 216.300781 716.457031 216.328125 C 715.558594 216.398438 714.671875 216.445312 713.777344 216.589844 C 712.03125 216.78125 710.085938 217.179688 708.3125 217.359375 C 706.507812 217.554688 704.71875 217.746094 702.953125 217.9375 C 701.207031 218.09375 699.445312 218.375 697.71875 218.574219 C 695.996094 218.789062 694.222656 218.902344 692.515625 219.066406 C 689.113281 219.308594 685.84375 219.519531 682.585938 219.597656 C 679.398438 219.664062 676.3125 219.722656 673.34375 219.78125 C 670.386719 219.859375 667.550781 219.925781 664.863281 219.992188 C 662.164062 220.03125 659.601562 220.078125 657.191406 220.117188 C 654.78125 220.117188 652.535156 220.292969 650.453125 220.386719 C 648.371094 220.492188 646.464844 220.597656 644.738281 220.6875 C 641.269531 220.8125 638.558594 220.851562 636.710938 220.898438 C 634.859375 220.9375 633.875 220.964844 633.875 220.964844 C 633.558594 220.976562 633.289062 220.714844 633.277344 220.398438 C 633.269531 220.089844 633.519531 219.828125 633.828125 219.800781 C 633.828125 219.800781 637.769531 219.53125 644.660156 219.066406 C 646.386719 218.921875 648.285156 218.757812 650.367188 218.574219 C 650.445312 218.566406 650.53125 218.566406 650.609375 218.554688 C 650.550781 218.363281 650.472656 218.132812 650.386719 217.832031 C 650.28125 217.457031 650.136719 217.015625 650.011719 216.503906 C 649.875 215.992188 649.625 215.425781 649.441406 214.796875 C 649.257812 214.179688 648.988281 213.496094 648.738281 212.746094 C 648.488281 212.003906 648.207031 211.222656 647.988281 210.410156 C 647.714844 209.507812 647.582031 208.707031 647.378906 207.820312 C 647.207031 206.941406 647.03125 206.054688 646.859375 205.167969 C 646.675781 204.292969 646.558594 203.394531 646.40625 202.527344 C 646.242188 201.671875 646.144531 200.753906 646.019531 199.992188 C 645.875 199.183594 645.75 198.394531 645.644531 197.601562 C 645.519531 196.832031 645.421875 196.089844 645.382812 195.375 C 645.328125 194.671875 645.269531 194.027344 645.277344 193.46875 C 645.277344 192.917969 645.308594 192.4375 645.328125 192.03125 C 645.363281 191.230469 645.414062 190.777344 645.414062 190.777344 C 645.441406 190.453125 645.742188 190.210938 646.070312 190.25 C 646.308594 190.277344 646.492188 190.433594 646.570312 190.644531 C 646.570312 190.644531 646.722656 191.078125 646.945312 191.847656 C 647.0625 192.234375 647.195312 192.695312 647.320312 193.226562 C 647.464844 193.757812 647.667969 194.316406 647.84375 194.941406 C 648.199219 196.1875 648.710938 197.652344 649.132812 199.335938 C 649.375 200.222656 649.539062 201.023438 649.703125 201.910156 C 649.867188 202.777344 650.058594 203.65625 650.203125 204.542969 C 650.347656 205.429688 650.492188 206.304688 650.636719 207.171875 C 650.773438 208.023438 650.859375 208.957031 651.011719 209.679688 C 651.167969 210.507812 651.320312 211.296875 651.457031 212.058594 C 651.609375 212.800781 651.714844 213.535156 651.792969 214.238281 C 651.878906 214.933594 651.957031 215.558594 651.976562 216.136719 C 651.984375 216.707031 651.976562 217.207031 651.976562 217.621094 C 651.96875 217.957031 651.957031 218.21875 651.949219 218.421875 C 653.566406 218.277344 655.28125 218.121094 657.09375 218.066406 C 661.902344 217.832031 667.332031 217.582031 673.257812 217.304688 C 676.214844 217.1875 679.300781 217.0625 682.492188 216.925781 C 685.613281 216.792969 688.929688 216.511719 692.292969 216.203125 C 693.960938 216.011719 695.628906 215.875 697.34375 215.625 C 699.078125 215.386719 700.785156 215.078125 702.597656 214.882812 C 704.359375 214.683594 706.269531 214.488281 707.964844 214.265625 C 709.785156 214.066406 711.425781 213.707031 713.34375 213.476562 C 713.199219 213.042969 713.023438 212.53125 712.871094 211.945312 C 712.746094 211.492188 712.601562 211.007812 712.484375 210.488281 C 712.371094 209.96875 712.214844 209.429688 712.117188 208.851562 C 712.011719 208.28125 711.898438 207.695312 711.78125 207.097656 C 711.683594 206.507812 711.578125 205.851562 711.503906 205.304688 C 711.28125 204.089844 711.097656 202.867188 710.992188 201.71875 C 710.914062 201.148438 710.90625 200.582031 710.894531 200.050781 C 710.875 199.519531 710.867188 199.011719 710.875 198.546875 C 710.886719 196.675781 711.097656 195.40625 711.097656 195.40625 C 711.15625 195.078125 711.472656 194.847656 711.800781 194.902344 C 712.003906 194.933594 712.167969 195.066406 712.253906 195.242188 C 712.253906 195.242188 712.8125 196.40625 713.34375 198.199219 C 713.488281 198.644531 713.621094 199.136719 713.746094 199.65625 C 713.890625 200.167969 714.007812 200.714844 714.144531 201.285156 C 714.433594 202.414062 714.671875 203.617188 714.886719 204.832031 C 714.972656 205.507812 715.03125 206.074219 715.085938 206.691406 C 715.125 207.300781 715.175781 207.894531 715.214844 208.476562 C 715.261719 209.054688 715.25 209.613281 715.28125 210.140625 C 715.308594 210.671875 715.289062 211.183594 715.28125 211.644531 C 715.269531 212.261719 715.25 212.800781 715.214844 213.265625 C 715.570312 213.234375 715.917969 213.207031 716.273438 213.179688 C 716.773438 213.140625 717.199219 213.089844 717.765625 213.070312 L 719.175781 213.054688 C 721.0625 213.0625 722.921875 212.945312 724.878906 213.054688 C 725.855469 213.082031 726.828125 213.121094 727.800781 213.148438 C 728.890625 213.1875 729.746094 213.292969 730.738281 213.359375 C 731.703125 213.4375 732.65625 213.515625 733.632812 213.59375 C 734.59375 213.679688 735.589844 213.84375 736.5625 213.957031 C 738.5 214.21875 740.4375 214.46875 742.394531 214.730469 C 742.777344 214.789062 743.152344 214.828125 743.53125 214.875 C 743.425781 214.460938 743.105469 213.109375 742.835938 211.25 C 742.75 210.683594 742.605469 210.085938 742.507812 209.4375 C 742.402344 208.792969 742.296875 208.109375 742.179688 207.40625 C 742.074219 206.671875 741.960938 205.921875 741.84375 205.148438 C 741.777344 204.398438 741.707031 203.625 741.652344 202.867188 C 741.601562 201.96875 741.574219 201.292969 741.554688 200.511719 C 741.535156 199.761719 741.535156 199.011719 741.542969 198.296875 C 741.535156 197.574219 741.582031 196.878906 741.632812 196.214844 C 741.667969 195.550781 741.71875 194.921875 741.777344 194.34375 C 741.988281 192.03125 742.34375 190.488281 742.34375 190.488281 C 742.421875 190.171875 742.738281 189.96875 743.066406 190.035156 C 743.289062 190.085938 743.453125 190.257812 743.511719 190.460938 C 743.511719 190.460938 743.945312 191.984375 744.273438 194.289062 C 744.457031 195.433594 744.601562 196.773438 744.726562 198.21875 C 744.800781 198.941406 744.878906 199.683594 744.925781 200.4375 C 744.976562 201.167969 745.035156 202.027344 745.054688 202.671875 C 745.128906 204.1875 745.207031 205.707031 745.273438 207.125 C 745.324219 207.820312 745.292969 208.5625 745.304688 209.226562 C 745.304688 209.902344 745.292969 210.539062 745.246094 211.125 C 745.0625 213.34375 744.773438 214.828125 744.734375 215 C 744.917969 215.007812 745.101562 215.027344 745.273438 215.046875 L 748.148438 215.28125 L 748.859375 215.335938 L 749.214844 215.367188 C 749.234375 215.367188 749.234375 215.367188 749.234375 215.367188 L 749.496094 215.367188 L 750.972656 215.335938 L 753.929688 215.28125 L 759.789062 214.988281 L 765.699219 214.835938 L 768.570312 214.671875 L 770.007812 214.59375 L 771.472656 214.449219 C 772.695312 214.316406 773.949219 214.210938 775.164062 214.074219 C 775.074219 213.417969 774.960938 212.300781 774.894531 210.921875 C 774.855469 210.363281 774.757812 209.757812 774.730469 209.121094 C 774.671875 208.492188 774.652344 207.800781 774.546875 207.144531 C 774.460938 206.480469 774.371094 205.796875 774.285156 205.089844 C 774.160156 204.378906 774.015625 203.539062 773.929688 202.894531 C 773.792969 202.125 773.679688 201.363281 773.5625 200.601562 C 773.476562 199.820312 773.4375 199.046875 773.390625 198.296875 C 773.3125 197.554688 773.398438 196.804688 773.429688 196.117188 C 773.464844 195.425781 773.496094 194.757812 773.589844 194.179688 C 773.996094 191.90625 774.46875 190.402344 774.46875 190.402344 C 774.566406 190.085938 774.902344 189.910156 775.21875 190.007812 C 775.433594 190.074219 775.585938 190.257812 775.636719 190.460938 C 775.636719 190.460938 775.941406 192.003906 776.078125 194.304688 C 776.144531 194.855469 776.234375 195.445312 776.308594 196.070312 C 776.347656 196.378906 776.386719 196.695312 776.425781 197.015625 C 776.445312 197.332031 776.484375 197.671875 776.550781 198.007812 C 776.667969 198.683594 776.78125 199.375 776.886719 200.089844 C 777.03125 200.8125 777.15625 201.554688 777.273438 202.296875 C 777.398438 203.15625 777.476562 203.839844 777.570312 204.609375 C 777.621094 205.398438 777.621094 206.199219 777.648438 206.960938 C 777.699219 207.734375 777.5625 208.425781 777.523438 209.109375 C 777.464844 209.785156 777.398438 210.429688 777.300781 211.007812 C 777.082031 212.222656 776.847656 213.199219 776.675781 213.863281 C 776.867188 213.832031 777.070312 213.8125 777.273438 213.777344 L 780.097656 213.378906 L 783 212.890625 C 784.898438 212.53125 786.863281 212.300781 788.808594 212.050781 C 789.765625 211.925781 790.71875 211.808594 791.671875 211.683594 C 792.628906 211.570312 793.570312 211.433594 794.507812 211.296875 C 796.375 211.039062 798.332031 210.789062 800.269531 210.691406 C 802.246094 210.546875 804.039062 210.566406 805.917969 210.488281 C 807.75 210.410156 809.667969 210.488281 811.507812 210.488281 C 811.769531 210.5 811.921875 210.488281 812.261719 210.507812 L 812.933594 210.566406 L 814.285156 210.683594 C 815.179688 210.757812 816.078125 210.835938 816.964844 210.914062 C 820.511719 211.308594 824.078125 211.761719 827.441406 212.523438 C 828.257812 212.667969 829.070312 212.8125 829.867188 212.957031 C 830.667969 213.101562 831.460938 213.128906 832.25 213.214844 L 832.835938 213.273438 L 833.078125 213.304688 L 834.609375 213.304688 C 835.421875 213.304688 836.230469 213.304688 837.03125 213.304688 C 838.628906 213.304688 840.171875 213.214844 841.703125 213.179688 C 842.484375 213.160156 843.1875 213.109375 844.007812 213.121094 C 844.761719 213.128906 845.511719 213.128906 846.253906 213.140625 C 847.730469 213.148438 849.175781 213.160156 850.582031 213.167969 C 851.277344 213.167969 851.96875 213.167969 852.644531 213.167969 C 852.980469 213.167969 853.320312 213.167969 853.65625 213.179688 C 853.800781 213.179688 854.050781 213.1875 854.101562 213.167969 L 854.601562 213.109375 C 855.265625 213.023438 855.929688 212.945312 856.585938 212.871094 C 857.242188 212.792969 857.808594 212.621094 858.417969 212.503906 C 859.582031 212.273438 860.847656 211.933594 862.023438 211.675781 C 862.640625 211.570312 863.246094 211.460938 863.851562 211.355469 L 864.296875 211.28125 C 864.546875 211.25 864.613281 211.261719 864.777344 211.242188 C 865.066406 211.230469 865.347656 211.210938 865.625 211.203125 C 866.734375 211.117188 867.871094 211.164062 868.941406 211.183594 C 869.984375 211.203125 870.976562 211.230469 871.929688 211.25 C 872.863281 211.230469 873.761719 211.203125 874.609375 211.183594 C 876.277344 211.078125 877.847656 210.882812 879.148438 210.71875 C 880.480469 210.574219 881.636719 210.449219 882.5625 210.375 C 884.429688 210.277344 885.433594 210.230469 885.433594 210.230469 C 885.433594 210.230469 885.441406 210.230469 885.441406 210.230469 C 885.730469 210.257812 885.992188 210.5 886.011719 210.816406 Z M 838.503906 624.140625 C 840.382812 624.324219 841.820312 624.488281 842.863281 624.535156 C 842.96875 624.535156 843.09375 624.546875 843.199219 624.554688 C 844.25 624.546875 844.816406 624.546875 844.816406 624.546875 L 844.90625 624.546875 C 845.222656 624.546875 845.484375 624.808594 845.484375 625.125 C 845.484375 625.433594 845.25 625.683594 844.953125 625.703125 C 844.953125 625.703125 844.347656 625.75 843.21875 625.839844 C 843.074219 625.847656 842.890625 625.847656 842.726562 625.847656 C 841.628906 625.867188 840.183594 625.828125 838.4375 625.730469 C 837.445312 625.703125 836.25 625.65625 835.09375 625.695312 C 833.90625 625.742188 832.597656 625.847656 831.179688 625.992188 C 830.449219 626.050781 829.695312 626.117188 828.914062 626.183594 C 828.144531 626.234375 827.371094 626.242188 826.574219 626.273438 C 825.6875 626.28125 824.867188 626.183594 823.980469 626.136719 C 823.140625 626.03125 822.273438 625.925781 821.398438 625.820312 C 820.558594 625.730469 819.738281 625.585938 818.832031 625.539062 C 818.378906 625.511719 817.917969 625.492188 817.457031 625.472656 C 817.253906 625.460938 816.925781 625.433594 816.820312 625.453125 L 816.125 625.492188 C 814.265625 625.597656 812.367188 625.675781 810.351562 625.828125 C 806.382812 626.089844 802.074219 626.464844 797.8125 626.773438 C 793.4375 627.140625 788.984375 627.640625 784.242188 627.679688 C 783.09375 627.699219 781.9375 627.707031 780.78125 627.726562 L 779.914062 627.738281 L 779.144531 627.8125 L 777.476562 627.988281 C 776.328125 628.140625 775.203125 628.296875 773.9375 628.429688 C 773.320312 628.507812 772.703125 628.574219 772.136719 628.585938 L 771.257812 628.632812 L 770.824219 628.652344 L 770.605469 628.664062 L 770.296875 628.664062 C 767.761719 628.632812 765.398438 628.226562 763.164062 627.929688 L 761.429688 627.726562 C 760.925781 627.660156 760.347656 627.679688 759.820312 627.640625 C 758.75 627.574219 757.582031 627.640625 756.445312 627.648438 C 755.222656 627.660156 753.96875 627.699219 752.871094 627.59375 L 752.011719 627.535156 L 751.800781 627.523438 L 751.519531 627.496094 L 751.097656 627.449219 L 749.410156 627.253906 C 747.171875 626.996094 744.957031 626.734375 742.777344 626.472656 C 741.707031 626.367188 740.65625 626.273438 739.605469 626.175781 C 738.566406 626.070312 737.515625 625.972656 736.457031 625.945312 C 735.40625 625.886719 734.363281 625.828125 733.332031 625.769531 C 732.339844 625.761719 731.355469 625.75 730.382812 625.742188 C 726.441406 625.65625 722.617188 626.050781 719.105469 626.117188 C 718.289062 626.164062 717.488281 626.214844 716.707031 626.261719 C 716.292969 626.339844 715.886719 626.40625 715.484375 626.472656 L 714.886719 626.582031 L 714.835938 626.589844 L 714.816406 626.589844 L 714.683594 626.628906 L 714.402344 626.714844 C 712.929688 627.109375 711.523438 627.640625 710.074219 628.046875 C 709.351562 628.226562 708.628906 628.480469 707.976562 628.585938 C 707.320312 628.691406 706.683594 628.796875 706.074219 628.894531 C 704.738281 629.078125 703.648438 629.105469 702.585938 629.210938 C 701.546875 629.328125 700.628906 629.308594 699.839844 629.289062 C 699.039062 629.277344 698.367188 629.269531 697.816406 629.269531 C 696.71875 629.261719 696.140625 629.25 696.140625 629.25 C 695.820312 629.25 695.5625 628.980469 695.5625 628.664062 C 695.5625 628.355469 695.800781 628.113281 696.101562 628.082031 C 696.101562 628.082031 696.6875 628.046875 697.777344 627.976562 C 698.328125 627.9375 699 627.902344 699.792969 627.851562 C 700.582031 627.804688 701.507812 627.765625 702.492188 627.601562 C 703.464844 627.457031 704.628906 627.34375 705.730469 627.128906 C 706.328125 626.996094 706.953125 626.859375 707.609375 626.714844 C 708.265625 626.570312 708.832031 626.320312 709.476562 626.117188 C 710.761719 625.683594 712.167969 625.066406 713.738281 624.535156 L 714.039062 624.441406 L 714.183594 624.390625 L 714.21875 624.382812 C 714.164062 624.390625 714.34375 624.355469 714.335938 624.355469 L 714.414062 624.335938 L 715.011719 624.199219 C 715.40625 624.113281 715.820312 624.027344 716.226562 623.941406 C 717.101562 623.832031 718.066406 623.71875 718.953125 623.648438 C 722.453125 623.417969 726.191406 622.910156 730.289062 622.878906 C 731.328125 622.859375 732.378906 622.839844 733.4375 622.820312 C 734.46875 622.851562 735.511719 622.871094 736.5625 622.898438 C 737.613281 622.917969 738.691406 622.984375 739.789062 623.082031 C 740.890625 623.167969 741.996094 623.253906 743.117188 623.34375 C 745.292969 623.554688 747.511719 623.777344 749.757812 624.007812 L 751.441406 624.179688 L 751.867188 624.230469 L 751.972656 624.238281 L 752.011719 624.238281 L 752.222656 624.246094 L 753.070312 624.296875 C 754.238281 624.390625 755.277344 624.335938 756.359375 624.324219 C 757.515625 624.316406 758.664062 624.230469 759.914062 624.304688 C 760.542969 624.335938 761.121094 624.316406 761.773438 624.390625 L 763.511719 624.574219 C 765.890625 624.875 768.15625 625.242188 770.296875 625.277344 L 770.402344 625.289062 L 770.449219 625.289062 C 770.441406 625.289062 770.46875 625.289062 770.480469 625.289062 L 770.640625 625.277344 L 771.078125 625.261719 L 771.953125 625.222656 C 772.550781 625.210938 773.101562 625.152344 773.640625 625.078125 L 777.042969 624.671875 L 778.738281 624.507812 C 778.730469 624.441406 778.730469 624.382812 778.71875 624.304688 C 778.632812 623.582031 778.476562 622.53125 778.207031 621.152344 C 778.082031 620.46875 777.898438 619.699219 777.804688 618.765625 C 777.707031 617.847656 777.765625 616.683594 778.246094 615.59375 C 778.71875 614.511719 779.453125 613.597656 780.261719 612.738281 C 780.484375 612.519531 780.628906 612.34375 780.9375 612.074219 C 781.148438 611.890625 781.359375 611.699219 781.582031 611.507812 C 781.957031 611.128906 782.621094 610.707031 783.199219 610.332031 C 783.527344 610.167969 783.847656 610.011719 784.183594 609.847656 C 784.539062 609.714844 784.917969 609.617188 785.300781 609.5 C 786.082031 609.367188 786.929688 609.335938 787.683594 609.480469 C 788.066406 609.539062 788.433594 609.617188 788.773438 609.714844 L 789.03125 609.78125 L 789.0625 609.789062 L 789.175781 609.828125 L 789.234375 609.847656 L 789.351562 609.898438 L 789.824219 610.070312 C 790.449219 610.273438 791.113281 610.582031 791.796875 610.878906 C 793.109375 611.449219 794.3125 611.929688 795.644531 612.304688 C 796.011719 612.421875 796.375 612.546875 796.742188 612.664062 L 797.003906 612.75 C 797.082031 612.769531 797.175781 612.808594 797.320312 612.882812 C 797.582031 613.011719 797.839844 613.136719 798.082031 613.28125 C 799.027344 613.828125 799.757812 614.976562 800.03125 615.851562 C 800.328125 616.75 800.464844 617.375 800.683594 617.675781 C 800.878906 617.984375 801.167969 618.1875 801.695312 618.386719 C 801.832031 618.425781 801.957031 618.492188 802.09375 618.523438 L 802.660156 618.675781 L 803.796875 619.003906 L 804.933594 619.324219 L 806.015625 619.554688 L 807.09375 619.796875 L 808.164062 619.910156 C 808.886719 620.035156 809.5625 619.957031 810.246094 619.941406 L 810.507812 619.929688 L 810.535156 619.929688 C 810.523438 619.929688 810.535156 619.929688 810.535156 619.929688 L 810.542969 619.929688 L 810.6875 619.902344 L 811.285156 619.785156 C 811.625 619.6875 811.835938 619.621094 812.171875 619.507812 C 812.828125 619.253906 813.503906 618.964844 814.199219 618.609375 C 815.632812 617.867188 817.058594 617.136719 818.496094 616.402344 L 819.449219 615.851562 C 819.738281 615.660156 819.863281 615.507812 820.097656 615.351562 C 820.453125 614.9375 820.800781 614.570312 820.933594 614.03125 C 821.308594 613.019531 821.222656 611.476562 821.242188 609.867188 C 821.273438 609.011719 821.300781 608.125 821.570312 607.1875 C 821.636719 606.957031 821.6875 606.726562 821.773438 606.496094 L 822.082031 605.820312 C 822.265625 605.355469 822.59375 604.972656 822.882812 604.578125 C 823.152344 604.152344 823.554688 603.902344 823.902344 603.5625 L 824.171875 603.332031 L 824.242188 603.273438 L 824.328125 603.21875 L 824.441406 603.140625 L 824.90625 602.820312 C 825.5625 602.386719 826.3125 601.945312 827.054688 601.617188 C 827.808594 601.269531 828.644531 601.011719 829.542969 600.875 C 830.4375 600.75 831.421875 600.855469 832.296875 601.183594 C 833.183594 601.5 833.90625 602.0625 834.476562 602.640625 C 835.074219 603.21875 835.480469 603.863281 835.863281 604.480469 C 836.222656 605.085938 836.546875 605.773438 836.789062 606.332031 C 837.050781 606.890625 837.300781 607.476562 837.523438 608.09375 C 837.996094 609.289062 838.351562 610.484375 838.515625 611.699219 C 838.699219 612.902344 838.628906 614.128906 838.390625 615.167969 L 838.351562 615.371094 L 838.339844 615.417969 L 838.320312 615.515625 L 838.3125 615.535156 L 838.285156 615.621094 L 838.167969 615.960938 C 838.089844 616.179688 838.011719 616.402344 837.9375 616.625 C 837.800781 617.058594 837.617188 617.480469 837.453125 617.886719 C 837.289062 618.292969 837.125 618.675781 836.972656 619.054688 C 836.847656 619.410156 836.730469 619.746094 836.625 620.074219 C 836.125 621.355469 835.960938 622.417969 835.789062 623.128906 C 835.699219 623.515625 835.632812 623.796875 835.59375 623.988281 C 836.644531 623.976562 837.589844 624.066406 838.503906 624.140625 Z M 807.199219 623.148438 L 806.515625 623.070312 L 805.261719 622.792969 L 804.019531 622.503906 L 802.871094 622.175781 L 801.746094 621.847656 L 801.1875 621.683594 C 800.945312 621.617188 800.714844 621.511719 800.472656 621.425781 C 799.558594 621.066406 798.496094 620.34375 797.917969 619.3125 C 797.332031 618.292969 797.214844 617.375 797.03125 616.847656 C 796.839844 616.285156 796.722656 616.09375 796.386719 615.851562 C 796.308594 615.804688 796.230469 615.777344 796.164062 615.71875 C 796.144531 615.699219 796.078125 615.660156 795.972656 615.632812 L 795.710938 615.535156 L 794.726562 615.1875 C 793.273438 614.714844 791.855469 614.058594 790.652344 613.472656 C 790.074219 613.183594 789.515625 612.894531 788.859375 612.644531 L 788.394531 612.449219 L 788.28125 612.402344 L 788.230469 612.382812 L 788.039062 612.324219 C 787.742188 612.230469 787.460938 612.152344 787.210938 612.113281 C 786.179688 611.871094 785.332031 612.007812 784.394531 612.480469 C 783.960938 612.75 783.578125 612.902344 783.09375 613.316406 C 782.863281 613.492188 782.640625 613.675781 782.421875 613.847656 C 782.296875 613.945312 782.042969 614.175781 781.871094 614.332031 C 781.109375 615.015625 780.464844 615.71875 780.085938 616.421875 C 779.328125 617.78125 779.664062 619.449219 779.808594 620.863281 C 779.992188 622.28125 780.011719 623.4375 780.011719 624.230469 C 780.011719 624.285156 780.011719 624.324219 780.011719 624.375 L 780.675781 624.363281 C 781.832031 624.355469 782.988281 624.34375 784.136719 624.335938 C 788.609375 624.375 793.167969 623.949219 797.53125 623.648438 C 800.925781 623.457031 804.105469 623.292969 807.199219 623.148438 Z M 834.359375 623.921875 C 834.378906 623.746094 834.417969 623.398438 834.484375 622.890625 C 834.601562 622.117188 834.628906 620.953125 835.074219 619.5625 C 835.171875 619.207031 835.265625 618.839844 835.371094 618.445312 C 835.488281 618.089844 835.613281 617.714844 835.75 617.316406 C 835.882812 616.921875 836.019531 616.519531 836.125 616.066406 C 836.183594 615.84375 836.238281 615.613281 836.296875 615.390625 L 836.382812 615.042969 L 836.402344 614.976562 L 836.402344 614.9375 L 836.421875 614.773438 C 836.730469 613.019531 836.222656 611.089844 835.277344 608.992188 C 835.0625 608.480469 834.792969 607.941406 834.496094 607.371094 C 834.207031 606.785156 833.945312 606.332031 833.617188 605.828125 C 832.972656 604.882812 832.191406 604.027344 831.324219 603.777344 C 830.484375 603.476562 829.433594 603.691406 828.308594 604.257812 C 827.730469 604.546875 827.21875 604.867188 826.648438 605.28125 L 826.195312 605.609375 L 826.082031 605.695312 C 826.070312 605.695312 826.015625 605.742188 826.050781 605.714844 L 826.015625 605.753906 L 825.871094 605.898438 C 825.6875 606.097656 825.417969 606.242188 825.300781 606.484375 C 824.644531 607.3125 824.433594 608.421875 824.453125 609.859375 C 824.460938 610.636719 824.511719 611.332031 824.492188 612.25 C 824.480469 613.097656 824.40625 614.070312 824.078125 615.0625 C 823.789062 616.085938 823.101562 617 822.390625 617.742188 C 821.996094 618.078125 821.523438 618.464844 821.136719 618.714844 L 820 619.371094 C 818.574219 620.121094 817.148438 620.875 815.710938 621.617188 C 814.96875 621.992188 814.179688 622.367188 813.320312 622.6875 C 813.070312 622.78125 812.769531 622.871094 812.472656 622.945312 C 813.707031 622.90625 814.941406 622.890625 816.136719 622.871094 L 816.859375 622.859375 C 817.214844 622.859375 817.359375 622.898438 817.617188 622.90625 C 818.082031 622.945312 818.542969 622.996094 818.996094 623.035156 C 819.902344 623.121094 820.859375 623.304688 821.753906 623.429688 C 822.613281 623.5625 823.449219 623.699219 824.269531 623.832031 C 825.050781 623.902344 825.871094 624.035156 826.574219 624.066406 C 827.371094 624.074219 828.152344 624.113281 828.894531 624.101562 C 829.628906 624.074219 830.339844 624.054688 831.035156 624.035156 C 832.191406 623.957031 833.289062 623.929688 834.359375 623.921875 Z M 866.300781 205.351562 C 866.386719 205.6875 866.464844 206.015625 866.542969 206.324219 C 866.675781 206.953125 866.878906 207.519531 866.976562 208.03125 C 867.0625 208.53125 867.167969 208.976562 867.246094 209.351562 C 867.410156 210.085938 867.527344 210.519531 867.527344 210.519531 L 867.546875 210.585938 C 867.601562 210.808594 867.785156 210.980469 868.027344 211.007812 C 868.34375 211.058594 868.644531 210.835938 868.691406 210.519531 C 868.691406 210.519531 868.757812 210.074219 868.835938 209.273438 C 868.875 208.878906 868.921875 208.386719 868.953125 207.828125 C 868.980469 207.269531 868.953125 206.652344 868.921875 205.976562 C 868.902344 205.640625 868.894531 205.292969 868.875 204.929688 C 868.855469 204.589844 868.828125 204.253906 868.796875 203.90625 C 868.769531 203.550781 868.722656 203.210938 868.710938 202.816406 C 868.710938 202.421875 868.703125 202.015625 868.683594 201.601562 L 868.671875 201.292969 L 868.664062 201.140625 L 868.664062 201.09375 C 868.671875 201.324219 868.664062 201.148438 868.664062 201.199219 L 868.664062 201.179688 L 868.671875 201.101562 L 868.738281 200.484375 C 868.777344 200.070312 868.828125 199.644531 868.867188 199.222656 C 868.921875 198.375 868.992188 197.515625 869.046875 196.648438 C 869.105469 195.773438 869.144531 194.902344 869.183594 194.035156 C 869.191406 193.601562 869.210938 193.179688 869.222656 192.753906 L 869.230469 192.128906 L 869.230469 191.972656 C 869.230469 191.78125 869.230469 191.828125 869.222656 191.753906 L 869.203125 191.445312 C 869.125 189.804688 868.980469 188.273438 868.816406 186.953125 C 868.519531 184.320312 868.113281 182.566406 868.113281 182.566406 L 868.113281 182.558594 C 868.066406 182.335938 867.890625 182.164062 867.660156 182.113281 C 867.34375 182.046875 867.023438 182.25 866.957031 182.566406 C 866.957031 182.566406 866.582031 184.320312 866.332031 186.941406 C 866.195312 188.253906 866.078125 189.785156 866.023438 191.425781 L 866.011719 191.734375 C 866.011719 191.753906 866.011719 191.90625 866.011719 191.820312 L 865.992188 191.972656 L 865.925781 192.601562 C 865.886719 193.023438 865.859375 193.449219 865.820312 193.882812 C 865.753906 194.742188 865.695312 195.617188 865.644531 196.496094 C 865.609375 197.382812 865.570312 198.269531 865.539062 199.144531 C 865.53125 199.578125 865.53125 200.011719 865.519531 200.445312 L 865.511719 201.082031 L 865.511719 201.3125 L 865.519531 201.351562 L 865.539062 201.507812 L 865.578125 201.816406 C 865.664062 202.625 865.808594 203.414062 866.003906 204.214844 C 866.117188 204.601562 866.207031 204.984375 866.300781 205.351562 Z M 838.8125 187.453125 C 838.824219 188.261719 838.851562 189.121094 838.910156 190.007812 C 838.9375 190.894531 838.96875 191.808594 838.996094 192.734375 C 839.042969 193.660156 839.054688 194.605469 839.132812 195.539062 C 839.199219 196.484375 839.265625 197.417969 839.332031 198.34375 C 839.410156 199.25 839.527344 200.222656 839.574219 201.015625 C 839.625 201.902344 839.71875 202.75 839.785156 203.558594 C 839.855469 204.367188 839.949219 205.128906 840.039062 205.832031 C 840.363281 208.648438 840.78125 210.527344 840.78125 210.527344 C 840.828125 210.757812 841.011719 210.941406 841.261719 210.980469 C 841.578125 211.039062 841.886719 210.816406 841.945312 210.5 L 841.945312 210.488281 C 841.945312 210.488281 842.265625 208.589844 842.457031 205.757812 C 842.503906 205.042969 842.574219 204.28125 842.589844 203.472656 C 842.621094 202.664062 842.679688 201.804688 842.6875 200.917969 C 842.699219 199.933594 842.667969 199.097656 842.648438 198.140625 C 842.609375 197.21875 842.5625 196.273438 842.523438 195.328125 C 842.496094 194.382812 842.398438 193.449219 842.339844 192.523438 C 842.273438 191.597656 842.207031 190.683594 842.082031 189.816406 C 841.867188 188.070312 841.523438 186.453125 841.328125 185.042969 C 840.953125 182.480469 840.519531 180.714844 840.441406 180.425781 C 840.433594 180.398438 840.421875 180.371094 840.421875 180.371094 C 840.367188 180.148438 840.183594 179.964844 839.941406 179.925781 C 839.613281 179.878906 839.316406 180.101562 839.265625 180.417969 C 839.265625 180.417969 839.265625 180.445312 839.257812 180.457031 C 839.226562 180.667969 838.957031 182.480469 838.84375 185.148438 C 838.785156 185.875 838.785156 186.644531 838.8125 187.453125 Z M 821.511719 197.546875 C 821.609375 198.238281 821.714844 198.941406 821.839844 199.636719 C 822.101562 201.054688 822.410156 202.394531 822.6875 203.644531 C 822.84375 204.28125 822.9375 204.871094 823.066406 205.449219 C 823.160156 206.027344 823.324219 206.566406 823.410156 207.078125 C 823.738281 209.109375 824.152344 210.507812 824.152344 210.507812 L 824.164062 210.546875 C 824.222656 210.75 824.386719 210.914062 824.605469 210.960938 C 824.925781 211.027344 825.242188 210.835938 825.320312 210.507812 C 825.320312 210.507812 825.636719 209.089844 825.832031 206.914062 C 825.859375 206.375 825.871094 205.777344 825.851562 205.148438 C 825.820312 204.523438 825.871094 203.847656 825.773438 203.183594 C 825.636719 201.832031 825.464844 200.40625 825.203125 199.058594 C 825.097656 198.375 824.972656 197.691406 824.847656 197.015625 C 824.742188 196.351562 824.617188 195.703125 824.492188 195.078125 C 824.367188 194.449219 824.296875 193.855469 824.183594 193.273438 C 824.085938 192.695312 823.960938 192.167969 823.863281 191.644531 C 823.546875 189.546875 823.113281 188.148438 823.113281 188.148438 C 823.054688 187.953125 822.890625 187.792969 822.679688 187.734375 C 822.351562 187.65625 822.023438 187.847656 821.945312 188.175781 C 821.945312 188.175781 821.589844 189.59375 821.367188 191.703125 C 821.308594 192.234375 821.308594 192.839844 821.300781 193.46875 C 821.292969 194.09375 821.261719 194.777344 821.339844 195.445312 C 821.378906 196.128906 821.425781 196.832031 821.511719 197.546875 Z M 793.109375 206.527344 C 793.359375 208.925781 793.714844 210.507812 793.714844 210.507812 C 793.765625 210.71875 793.929688 210.902344 794.160156 210.960938 C 794.476562 211.039062 794.804688 210.835938 794.871094 210.519531 L 794.871094 210.507812 C 794.871094 210.507812 795.25 208.9375 795.519531 206.613281 C 795.683594 205.449219 795.757812 204.109375 795.914062 202.644531 C 796.085938 201.179688 796.25 199.609375 796.347656 198.035156 L 796.472656 196.917969 C 796.511719 196.523438 796.550781 196.117188 796.589844 195.722656 C 796.664062 194.933594 796.714844 194.152344 796.761719 193.402344 C 796.839844 192.648438 796.761719 191.945312 796.742188 191.261719 C 796.714844 190.585938 796.683594 189.941406 796.628906 189.351562 C 796.453125 186.980469 796.136719 185.390625 796.136719 185.390625 C 796.097656 185.179688 795.933594 184.996094 795.722656 184.929688 C 795.402344 184.832031 795.066406 185.015625 794.980469 185.332031 C 794.980469 185.332031 794.515625 186.886719 794.148438 189.238281 C 794.042969 189.824219 793.957031 190.460938 793.871094 191.136719 C 793.832031 191.472656 793.785156 191.820312 793.734375 192.175781 C 793.707031 192.53125 793.667969 192.890625 793.589844 193.246094 C 793.464844 193.960938 793.339844 194.703125 793.234375 195.445312 C 793.1875 195.820312 793.136719 196.195312 793.082031 196.582031 L 792.9375 197.804688 C 792.828125 199.375 792.808594 200.945312 792.792969 202.429688 C 792.761719 203.164062 792.878906 203.90625 792.90625 204.589844 C 792.972656 205.273438 793.050781 205.929688 793.109375 206.527344 Z M 678.664062 198.5 C 678.800781 198.972656 678.933594 199.480469 679.117188 199.945312 C 679.3125 200.398438 679.511719 200.839844 679.734375 201.292969 C 679.925781 201.699219 680.128906 202.09375 680.34375 202.480469 C 680.535156 202.855469 680.679688 203.222656 680.863281 203.578125 C 681.066406 203.925781 681.152344 204.292969 681.296875 204.628906 C 681.421875 204.964844 681.585938 205.285156 681.699219 205.601562 C 682.039062 206.875 682.460938 207.789062 682.460938 207.789062 L 682.5 207.867188 C 682.570312 208.011719 682.703125 208.136719 682.867188 208.1875 C 683.183594 208.28125 683.53125 208.109375 683.628906 207.789062 C 683.628906 207.789062 683.9375 206.828125 684.089844 205.285156 C 684.089844 204.898438 684.070312 204.476562 684.035156 204.023438 C 683.984375 203.570312 683.976562 203.078125 683.820312 202.613281 C 683.695312 202.140625 683.550781 201.632812 683.386719 201.160156 C 683.203125 200.707031 683.003906 200.253906 682.789062 199.808594 C 682.605469 199.40625 682.40625 199 682.203125 198.613281 C 682.027344 198.238281 681.863281 197.871094 681.699219 197.515625 C 681.5 197.160156 681.421875 196.832031 681.285156 196.515625 C 681.160156 196.1875 681.007812 195.898438 680.871094 195.589844 C 680.515625 194.199219 680.0625 193.285156 680.0625 193.285156 C 679.996094 193.140625 679.859375 193.023438 679.695312 192.96875 C 679.367188 192.851562 679.011719 193.035156 678.894531 193.363281 C 678.894531 193.363281 678.570312 194.324219 678.386719 195.753906 C 678.367188 196.136719 678.394531 196.589844 678.433594 197.0625 C 678.480469 197.515625 678.511719 198.035156 678.664062 198.5 Z M 679.925781 445.535156 C 679.464844 443.125 678.820312 440.351562 678.550781 437.027344 C 678.386719 435.359375 678.261719 433.488281 677.980469 431.636719 C 677.632812 429.691406 677.121094 427.78125 676.660156 425.730469 C 676.179688 423.714844 675.636719 421.605469 675.15625 419.445312 C 674.675781 417.257812 674.183594 415.003906 673.671875 412.667969 C 672.679688 408.035156 671.640625 403.148438 670.558594 398.097656 C 669.546875 393.007812 668.46875 387.753906 667.503906 382.386719 C 667.253906 381.046875 667.003906 379.699219 666.753906 378.347656 L 666.570312 377.335938 C 666.511719 376.941406 666.394531 376.640625 666.320312 376.296875 L 665.789062 374.261719 C 665.074219 371.503906 664.34375 368.933594 663.589844 366.195312 C 662.867188 363.523438 662.105469 360.863281 661.34375 358.214844 L 660.777344 356.226562 L 660.46875 355.1875 L 660.167969 354.222656 C 659.765625 352.953125 659.386719 351.640625 659.023438 350.339844 C 658.628906 349.039062 658.25 347.542969 657.769531 346.328125 C 657.519531 345.675781 657.34375 345.117188 657.027344 344.382812 L 656.277344 342.550781 C 655.234375 340.160156 654.375 337.636719 653.480469 335.207031 C 653.054688 334.089844 652.507812 332.632812 651.976562 331.527344 C 651.707031 330.949219 651.445312 330.371094 651.175781 329.789062 C 650.945312 329.25 650.714844 328.703125 650.484375 328.171875 L 650.125 327.371094 L 649.828125 326.496094 C 649.632812 325.90625 649.441406 325.328125 649.25 324.75 L 649.171875 324.527344 L 649.132812 324.421875 L 649.113281 324.363281 C 649.113281 324.375 649.105469 324.34375 649.105469 324.335938 L 649 323.941406 L 648.757812 323.0625 C 648.601562 322.484375 648.441406 321.90625 648.285156 321.328125 C 647.667969 319.035156 647.0625 316.796875 646.472656 314.640625 C 645.894531 312.472656 645.441406 310.515625 645.144531 308.460938 C 644.96875 307.402344 644.804688 306.371094 644.640625 305.359375 C 644.402344 304.367188 644.226562 303.496094 643.929688 302.476562 C 643.339844 300.675781 642.792969 298.96875 642.269531 297.367188 C 641.75 295.757812 641.257812 294.265625 640.804688 292.875 C 640.351562 291.507812 639.878906 290.226562 639.476562 289.078125 C 637.894531 284.492188 637 281.871094 637 281.871094 L 637 281.859375 C 636.902344 281.570312 636.59375 281.40625 636.296875 281.492188 C 635.988281 281.582031 635.804688 281.898438 635.890625 282.207031 C 635.890625 282.207031 636.074219 282.871094 636.410156 284.125 C 636.769531 285.367188 637.21875 287.226562 637.933594 289.53125 C 638.28125 290.699219 638.675781 291.953125 639.070312 293.367188 C 639.457031 294.773438 639.871094 296.296875 640.316406 297.925781 C 640.757812 299.554688 641.230469 301.28125 641.730469 303.113281 C 641.945312 303.914062 642.125 304.953125 642.328125 305.898438 C 642.453125 306.851562 642.578125 307.824219 642.703125 308.816406 C 642.867188 309.867188 642.9375 310.929688 643.195312 312.027344 C 643.425781 313.125 643.628906 314.265625 643.910156 315.324219 C 644.429688 317.503906 644.96875 319.746094 645.527344 322.070312 C 645.664062 322.648438 645.808594 323.226562 645.941406 323.816406 L 646.15625 324.703125 L 646.261719 325.144531 L 646.414062 325.644531 C 646.589844 326.234375 646.773438 326.824219 646.945312 327.410156 L 647.214844 328.296875 L 647.582031 329.222656 C 647.832031 329.839844 648.09375 330.457031 648.34375 331.074219 C 648.601562 331.652344 648.863281 332.230469 649.125 332.808594 C 649.402344 333.394531 649.617188 333.953125 649.835938 334.511719 L 650.164062 335.351562 L 650.339844 335.824219 L 650.503906 336.277344 C 651.378906 338.726562 652.1875 341.210938 653.257812 343.726562 L 654.019531 345.625 C 654.230469 346.128906 654.472656 346.859375 654.695312 347.457031 L 655.03125 348.410156 L 655.292969 349.335938 L 655.824219 351.226562 C 657.296875 356.480469 658.800781 361.808594 660.304688 367.148438 C 661.035156 369.742188 661.847656 372.488281 662.53125 375.0625 L 663.0625 377.019531 C 663.136719 377.335938 663.261719 377.691406 663.300781 377.972656 L 663.496094 378.984375 C 663.753906 380.332031 664.015625 381.671875 664.273438 383.011719 C 665.289062 388.371094 666.414062 393.613281 667.464844 398.695312 C 668.035156 401.34375 668.621094 403.746094 669.210938 406.191406 C 669.796875 408.621094 670.375 411.003906 670.933594 413.316406 C 671.503906 415.621094 672.0625 417.875 672.59375 420.042969 C 673.140625 422.242188 673.730469 424.304688 674.269531 426.308594 C 674.78125 428.285156 675.332031 430.222656 675.734375 431.984375 C 676.101562 433.863281 676.285156 435.570312 676.523438 437.257812 C 676.949219 440.648438 677.769531 443.589844 678.308594 445.910156 C 679.484375 450.605469 680.160156 453.296875 680.160156 453.296875 C 680.234375 453.59375 680.523438 453.785156 680.832031 453.730469 C 681.152344 453.671875 681.355469 453.363281 681.296875 453.042969 L 681.296875 453.023438 C 681.363281 453.023438 680.84375 450.296875 679.925781 445.535156 Z M 679.925781 445.535156 " fill-opacity="1" fill-rule="nonzero"/></g></svg>