<svg xmlns="http://www.w3.org/2000/svg" xmlns:xlink="http://www.w3.org/1999/xlink" width="2000" zoomAndPan="magnify" viewBox="0 0 1500 824.999997" height="1100" preserveAspectRatio="xMidYMid meet" version="1.0"><defs><clipPath id="b3d9384c8d"><path d="M 639.503906 223.171875 L 860.753906 223.171875 L 860.753906 599 L 639.503906 599 Z M 639.503906 223.171875 " clip-rule="nonzero"/></clipPath><clipPath id="d28f4c1009"><path d="M 655 223.171875 L 860.753906 223.171875 L 860.753906 589 L 655 589 Z M 655 223.171875 " clip-rule="nonzero"/></clipPath></defs><g clip-path="url(#b3d9384c8d)"><path fill="#bcccdc" d="M 860.308594 248.929688 C 860.324219 249.179688 860.128906 249.398438 859.878906 249.421875 L 859.847656 249.421875 C 859.847656 249.421875 859.058594 249.492188 857.589844 249.632812 C 856.996094 249.710938 856.296875 249.804688 855.5 249.929688 L 821.265625 507.34375 L 828.273438 507.101562 C 828.273438 507.101562 827.851562 560.015625 825.3125 584.464844 C 825.398438 584.464844 825.5 584.472656 825.585938 584.480469 C 826.4375 584.472656 826.898438 584.472656 826.898438 584.472656 L 826.96875 584.472656 C 827.226562 584.472656 827.4375 584.683594 827.4375 584.941406 C 827.4375 585.191406 827.25 585.394531 827.007812 585.410156 C 827.007812 585.410156 826.515625 585.449219 825.601562 585.519531 C 825.484375 585.527344 825.335938 585.527344 825.203125 585.527344 C 824.570312 591.257812 823.8125 595.242188 822.90625 596.308594 C 818.207031 601.808594 700.074219 594.65625 700.074219 594.65625 L 700.074219 511.503906 L 708.664062 511.207031 L 644.167969 259.199219 L 639.664062 259.417969 L 639.664062 229.886719 L 822.390625 224.316406 C 822.390625 224.308594 822.398438 224.285156 822.398438 224.285156 C 822.4375 224.019531 822.6875 223.835938 822.945312 223.882812 C 823.140625 223.914062 823.289062 224.066406 823.335938 224.246094 C 823.335938 224.246094 823.34375 224.269531 823.351562 224.292969 L 859.824219 223.171875 L 859.824219 248.484375 C 860.082031 248.476562 860.292969 248.671875 860.308594 248.929688 Z M 860.308594 248.929688 " fill-opacity="1" fill-rule="nonzero"/></g><path fill="#829ab1" d="M 818.417969 583.964844 C 817.558594 583.964844 816.660156 583.996094 815.722656 584.042969 C 815.160156 584.058594 814.582031 584.082031 813.984375 584.097656 C 813.382812 584.105469 812.742188 584.074219 812.101562 584.066406 C 811.523438 584.042969 810.867188 583.933594 810.234375 583.878906 C 809.570312 583.769531 808.890625 583.660156 808.195312 583.550781 C 807.46875 583.449219 806.699219 583.292969 805.957031 583.230469 C 805.589844 583.199219 805.214844 583.167969 804.839844 583.128906 C 804.628906 583.113281 804.519531 583.089844 804.222656 583.089844 L 803.636719 583.097656 C 802.667969 583.113281 801.667969 583.136719 800.667969 583.160156 C 800.910156 583.089844 801.152344 583.019531 801.355469 582.949219 C 802.050781 582.691406 802.691406 582.394531 803.292969 582.082031 C 804.457031 581.472656 805.613281 580.859375 806.769531 580.257812 L 807.695312 579.726562 C 808 579.523438 808.382812 579.210938 808.710938 578.9375 C 809.289062 578.328125 809.851562 577.59375 810.078125 576.765625 C 810.34375 575.960938 810.40625 575.171875 810.414062 574.484375 C 810.429688 573.738281 810.390625 573.175781 810.382812 572.542969 C 810.375 571.378906 810.546875 570.480469 811.070312 569.808594 C 811.164062 569.613281 811.382812 569.496094 811.53125 569.332031 L 811.679688 569.183594 C 811.640625 569.207031 811.695312 569.175781 811.703125 569.167969 L 811.796875 569.097656 L 812.164062 568.832031 C 812.625 568.503906 813.039062 568.246094 813.507812 568.003906 C 814.425781 567.542969 815.277344 567.371094 815.957031 567.613281 C 816.660156 567.816406 817.292969 568.511719 817.816406 569.277344 C 818.082031 569.683594 818.292969 570.050781 818.527344 570.527344 C 818.769531 570.988281 818.988281 571.425781 819.160156 571.839844 C 819.925781 573.542969 820.339844 575.117188 820.089844 576.53125 L 820.074219 576.664062 L 820.074219 576.695312 L 820.058594 576.75 L 819.988281 577.03125 C 819.941406 577.21875 819.894531 577.398438 819.847656 577.578125 C 819.761719 577.945312 819.652344 578.273438 819.542969 578.59375 C 819.441406 578.914062 819.339844 579.21875 819.238281 579.507812 C 819.152344 579.820312 819.074219 580.125 818.996094 580.414062 C 818.636719 581.550781 818.613281 582.496094 818.519531 583.113281 C 818.464844 583.550781 818.433594 583.824219 818.417969 583.964844 Z M 795.84375 583.277344 L 794.828125 583.050781 L 793.820312 582.816406 L 792.890625 582.550781 L 791.972656 582.285156 L 791.519531 582.152344 C 791.324219 582.097656 791.136719 582.011719 790.941406 581.941406 C 790.199219 581.652344 789.339844 581.0625 788.871094 580.226562 C 788.394531 579.398438 788.300781 578.65625 788.152344 578.226562 C 787.996094 577.773438 787.902344 577.617188 787.628906 577.421875 C 787.566406 577.382812 787.503906 577.359375 787.449219 577.3125 C 787.433594 577.296875 787.378906 577.265625 787.292969 577.242188 L 787.082031 577.164062 L 786.285156 576.882812 C 785.101562 576.5 783.953125 575.96875 782.976562 575.492188 C 782.507812 575.257812 782.054688 575.023438 781.523438 574.820312 L 781.054688 574.625 L 781.015625 574.609375 L 780.859375 574.5625 C 780.617188 574.484375 780.390625 574.421875 780.1875 574.390625 C 779.351562 574.195312 778.664062 574.304688 777.902344 574.6875 C 777.550781 574.90625 777.238281 575.03125 776.847656 575.367188 C 776.660156 575.507812 776.480469 575.65625 776.300781 575.796875 C 776.199219 575.875 775.996094 576.0625 775.855469 576.1875 C 775.238281 576.742188 774.714844 577.3125 774.410156 577.882812 C 773.792969 578.984375 774.066406 580.335938 774.183594 581.488281 C 774.332031 582.636719 774.347656 583.574219 774.347656 584.214844 C 774.347656 584.261719 774.347656 584.292969 774.347656 584.332031 L 774.886719 584.324219 C 775.824219 584.316406 776.761719 584.308594 777.691406 584.300781 C 781.320312 584.332031 785.015625 583.988281 788.558594 583.746094 C 791.292969 583.582031 793.875 583.441406 796.382812 583.332031 Z M 700.074219 511.503906 L 700.074219 594.648438 C 700.074219 594.648438 818.207031 601.808594 822.90625 596.300781 C 823.8125 595.234375 824.570312 591.25 825.203125 585.519531 C 824.3125 585.535156 823.140625 585.503906 821.726562 585.425781 C 820.917969 585.402344 819.949219 585.363281 819.011719 585.394531 C 818.050781 585.433594 816.988281 585.519531 815.839844 585.636719 C 815.246094 585.683594 814.636719 585.738281 814 585.792969 C 813.375 585.832031 812.75 585.839844 812.101562 585.863281 C 811.382812 585.871094 810.71875 585.792969 810 585.753906 C 809.320312 585.667969 808.617188 585.582031 807.90625 585.496094 C 807.226562 585.425781 806.558594 585.308594 805.824219 585.269531 C 805.457031 585.246094 805.082031 585.230469 804.707031 585.214844 C 804.542969 585.207031 804.277344 585.183594 804.191406 585.199219 L 803.628906 585.230469 C 802.121094 585.316406 800.582031 585.378906 798.945312 585.503906 C 795.726562 585.714844 792.230469 586.019531 788.777344 586.269531 C 785.226562 586.566406 781.617188 586.972656 777.769531 587.003906 C 776.839844 587.019531 775.902344 587.027344 774.964844 587.042969 L 774.261719 587.050781 L 773.636719 587.113281 L 772.285156 587.253906 C 771.355469 587.378906 770.4375 587.503906 769.414062 587.613281 C 768.914062 587.675781 768.414062 587.730469 767.953125 587.738281 L 767.242188 587.777344 L 766.890625 587.792969 L 766.710938 587.800781 L 766.460938 587.800781 C 764.40625 587.777344 762.488281 587.449219 760.675781 587.207031 L 759.269531 587.042969 C 758.863281 586.988281 758.394531 587.003906 757.964844 586.972656 C 757.097656 586.917969 756.148438 586.972656 755.226562 586.980469 C 754.234375 586.988281 753.21875 587.019531 752.328125 586.933594 L 751.632812 586.886719 L 751.460938 586.878906 L 751.234375 586.855469 L 750.890625 586.816406 L 749.519531 586.660156 C 747.707031 586.449219 745.910156 586.238281 744.144531 586.027344 C 743.277344 585.941406 742.421875 585.863281 741.570312 585.785156 C 740.726562 585.699219 739.875 585.621094 739.015625 585.597656 C 738.164062 585.550781 737.320312 585.503906 736.484375 585.457031 C 735.679688 585.449219 734.878906 585.441406 734.089844 585.433594 C 730.894531 585.363281 727.789062 585.683594 724.945312 585.738281 C 724.28125 585.777344 723.632812 585.816406 723 585.855469 C 722.664062 585.917969 722.335938 585.972656 722.007812 586.027344 L 721.523438 586.113281 L 721.484375 586.121094 L 721.46875 586.121094 L 721.359375 586.152344 L 721.132812 586.222656 C 719.933594 586.542969 718.792969 586.972656 717.621094 587.300781 C 717.035156 587.449219 716.449219 587.652344 715.917969 587.738281 C 715.386719 587.824219 714.871094 587.910156 714.378906 587.988281 C 713.289062 588.136719 712.40625 588.160156 711.546875 588.246094 C 710.703125 588.339844 709.960938 588.324219 709.320312 588.308594 C 708.671875 588.300781 708.125 588.292969 707.679688 588.292969 C 706.789062 588.285156 706.316406 588.277344 706.316406 588.277344 C 706.058594 588.277344 705.847656 588.058594 705.847656 587.800781 C 705.847656 587.550781 706.042969 587.355469 706.285156 587.332031 C 706.285156 587.332031 706.761719 587.300781 707.648438 587.246094 C 708.09375 587.214844 708.640625 587.183594 709.28125 587.144531 C 709.921875 587.105469 710.671875 587.074219 711.46875 586.941406 C 712.257812 586.824219 713.203125 586.730469 714.097656 586.558594 C 714.582031 586.449219 715.089844 586.339844 715.621094 586.222656 C 716.152344 586.105469 716.613281 585.902344 717.136719 585.738281 C 718.175781 585.386719 719.316406 584.886719 720.589844 584.457031 L 720.832031 584.378906 L 720.949219 584.339844 L 720.980469 584.332031 C 720.933594 584.339844 721.085938 584.308594 721.078125 584.308594 L 721.140625 584.292969 L 721.625 584.183594 C 721.945312 584.113281 722.28125 584.042969 722.609375 583.972656 C 723.320312 583.886719 724.101562 583.792969 724.820312 583.738281 C 727.65625 583.550781 730.691406 583.136719 734.011719 583.113281 C 734.855469 583.097656 735.710938 583.082031 736.570312 583.066406 C 737.40625 583.089844 738.25 583.105469 739.101562 583.128906 C 739.953125 583.144531 740.828125 583.199219 741.71875 583.277344 C 742.613281 583.347656 743.511719 583.417969 744.417969 583.488281 C 746.183594 583.660156 747.980469 583.839844 749.804688 584.027344 L 751.171875 584.167969 L 751.515625 584.207031 L 751.601562 584.214844 L 751.632812 584.214844 L 751.804688 584.222656 L 752.492188 584.261719 C 753.4375 584.339844 754.28125 584.292969 755.15625 584.285156 C 756.09375 584.277344 757.027344 584.207031 758.042969 584.269531 C 758.550781 584.292969 759.019531 584.277344 759.550781 584.339844 L 760.957031 584.488281 C 762.886719 584.730469 764.726562 585.027344 766.460938 585.058594 L 766.546875 585.066406 L 766.585938 585.066406 C 766.578125 585.066406 766.601562 585.066406 766.609375 585.066406 L 766.742188 585.058594 L 767.09375 585.042969 L 767.804688 585.011719 C 768.289062 585.003906 768.734375 584.957031 769.171875 584.894531 L 771.933594 584.566406 L 773.308594 584.433594 C 773.300781 584.378906 773.300781 584.332031 773.292969 584.269531 C 773.222656 583.683594 773.097656 582.832031 772.878906 581.714844 C 772.777344 581.160156 772.628906 580.53125 772.550781 579.773438 C 772.472656 579.03125 772.519531 578.085938 772.910156 577.203125 C 773.292969 576.328125 773.886719 575.585938 774.542969 574.890625 C 774.722656 574.710938 774.839844 574.570312 775.089844 574.351562 C 775.261719 574.203125 775.433594 574.046875 775.613281 573.886719 C 775.917969 573.582031 776.457031 573.238281 776.925781 572.933594 C 777.191406 572.800781 777.449219 572.675781 777.722656 572.542969 C 778.011719 572.433594 778.320312 572.355469 778.632812 572.261719 C 779.265625 572.152344 779.953125 572.128906 780.5625 572.246094 C 780.875 572.292969 781.171875 572.355469 781.445312 572.433594 L 781.65625 572.488281 L 781.820312 572.542969 L 781.914062 572.582031 L 782.296875 572.722656 C 782.804688 572.886719 783.34375 573.136719 783.898438 573.378906 C 784.960938 573.839844 785.941406 574.234375 787.019531 574.539062 C 787.316406 574.632812 787.613281 574.734375 787.910156 574.828125 L 788.121094 574.898438 C 788.183594 574.914062 788.261719 574.945312 788.378906 575.007812 C 788.589844 575.109375 788.800781 575.210938 788.996094 575.328125 C 789.761719 575.773438 790.355469 576.703125 790.574219 577.414062 C 790.816406 578.140625 790.925781 578.648438 791.105469 578.890625 C 791.261719 579.140625 791.496094 579.304688 791.925781 579.46875 C 792.035156 579.5 792.136719 579.554688 792.246094 579.578125 L 792.710938 579.703125 L 793.632812 579.96875 L 794.554688 580.226562 L 795.429688 580.414062 L 796.304688 580.609375 L 797.171875 580.703125 C 797.757812 580.804688 798.304688 580.742188 798.859375 580.726562 L 799.070312 580.71875 L 799.09375 580.71875 C 799.085938 580.71875 799.09375 580.71875 799.09375 580.71875 L 799.101562 580.71875 L 799.21875 580.695312 L 799.707031 580.601562 C 799.980469 580.523438 800.152344 580.46875 800.425781 580.375 C 800.957031 580.171875 801.503906 579.9375 802.066406 579.648438 C 803.230469 579.046875 804.386719 578.453125 805.550781 577.859375 L 806.324219 577.414062 C 806.558594 577.257812 806.660156 577.132812 806.851562 577.007812 C 807.140625 576.671875 807.421875 576.375 807.53125 575.9375 C 807.835938 575.117188 807.765625 573.863281 807.78125 572.558594 C 807.804688 571.863281 807.828125 571.144531 808.046875 570.386719 C 808.101562 570.199219 808.140625 570.011719 808.210938 569.824219 L 808.460938 569.277344 C 808.609375 568.902344 808.875 568.589844 809.109375 568.269531 C 809.328125 567.925781 809.65625 567.722656 809.9375 567.449219 L 810.210938 567.214844 L 810.375 567.105469 L 810.75 566.847656 C 811.28125 566.492188 811.890625 566.132812 812.492188 565.867188 C 813.101562 565.585938 813.78125 565.375 814.511719 565.265625 C 815.238281 565.164062 816.035156 565.25 816.746094 565.515625 C 817.464844 565.773438 818.050781 566.226562 818.511719 566.695312 C 818.996094 567.167969 819.324219 567.691406 819.636719 568.191406 C 819.925781 568.683594 820.191406 569.238281 820.386719 569.691406 C 820.597656 570.144531 820.800781 570.621094 820.980469 571.121094 C 821.367188 572.089844 821.65625 573.058594 821.789062 574.046875 C 821.9375 575.023438 821.882812 576.015625 821.6875 576.859375 L 821.65625 577.023438 L 821.632812 577.140625 L 821.625 577.15625 L 821.601562 577.226562 L 821.507812 577.5 C 821.445312 577.679688 821.382812 577.859375 821.320312 578.039062 C 821.210938 578.390625 821.058594 578.734375 820.925781 579.0625 C 820.792969 579.390625 820.660156 579.703125 820.535156 580.007812 C 820.433594 580.296875 820.339844 580.570312 820.253906 580.835938 C 819.847656 581.878906 819.714844 582.738281 819.574219 583.316406 C 819.503906 583.628906 819.449219 583.855469 819.417969 584.011719 C 820.308594 584.042969 821.066406 584.121094 821.8125 584.175781 C 823.335938 584.324219 824.5 584.457031 825.34375 584.496094 C 827.875 560.046875 828.308594 507.132812 828.308594 507.132812 L 821.296875 507.375 L 708.703125 511.246094 Z M 757.800781 321.976562 C 738.195312 321.976562 722.296875 338.1875 722.296875 358.175781 C 722.296875 378.171875 738.195312 394.375 757.800781 394.375 C 777.402344 394.375 793.304688 378.164062 793.304688 358.175781 C 793.304688 338.179688 777.402344 321.976562 757.800781 321.976562 Z M 742.699219 314.707031 C 742.699219 314.707031 717.425781 282.707031 713.132812 279.757812 C 708.835938 276.804688 720.988281 326.738281 720.988281 326.738281 Z M 774.808594 282.253906 C 773.386719 281.972656 757.800781 317.476562 757.800781 317.476562 L 780.210938 323.4375 C 780.210938 323.4375 776.230469 282.542969 774.808594 282.253906 Z M 801.253906 356.433594 L 837.890625 329.730469 L 790.175781 324.902344 Z M 787.027344 391.171875 C 787.027344 391.171875 810.882812 399.269531 813.726562 399.269531 C 816.566406 399.269531 799.242188 371.839844 799.242188 371.839844 Z M 771.511719 413.902344 C 770.1875 414.160156 768.578125 414.894531 766.6875 416.113281 L 765.445312 430.058594 C 765.65625 430.277344 765.851562 430.433594 766.007812 430.511719 C 767.46875 431.25 769.695312 422.515625 771.511719 413.902344 Z M 766.046875 407.132812 C 768.445312 407.257812 770.609375 407.796875 772.550781 408.726562 C 773.714844 402.757812 774.527344 397.886719 774.527344 397.886719 L 749.75 403.203125 C 749.75 403.203125 754.664062 412.683594 759.175781 420.484375 L 760.394531 409.492188 C 760.675781 407.679688 762.558594 406.898438 766.046875 407.132812 Z M 718.285156 382.800781 C 718.285156 382.800781 711.75 407.507812 714.308594 408.890625 C 716.863281 410.277344 737.03125 397.894531 737.03125 397.894531 Z M 716.582031 367.566406 L 718.003906 343.746094 L 681.078125 355.660156 Z M 716.582031 367.566406 " fill-opacity="1" fill-rule="nonzero"/><path fill="#bcccdc" d="M 743.972656 413.574219 C 743.941406 413.746094 743.902344 413.894531 743.863281 414.011719 C 743.730469 414.769531 742.699219 417.195312 740.765625 421.289062 C 735.027344 433.554688 732.550781 440.488281 733.324219 442.074219 C 733.691406 442.667969 734.777344 443.222656 736.585938 443.738281 C 738.390625 444.253906 739.679688 444.785156 740.460938 445.339844 C 742.304688 446.828125 743.410156 448.820312 743.753906 451.3125 C 744.113281 455.066406 742.644531 459.082031 739.34375 463.367188 C 732.347656 472.253906 728.265625 476.757812 727.085938 476.867188 C 726.828125 476.890625 726.625 476.882812 726.460938 476.84375 C 724.664062 475.921875 723.570312 474.710938 723.164062 473.199219 C 722.914062 472.246094 723.039062 471.378906 723.53125 470.582031 C 723.9375 469.964844 724.953125 468.777344 726.59375 467.011719 L 726.585938 466.925781 C 728.785156 464.53125 730.574219 462.460938 731.949219 460.71875 C 735.410156 456.480469 736.601562 453.527344 735.507812 451.84375 C 735.445312 451.734375 735.378906 451.65625 735.324219 451.601562 C 734.699219 451.03125 733.558594 450.421875 731.894531 449.78125 C 729.160156 448.726562 727.335938 447.5 726.421875 446.09375 C 725.179688 443.972656 725.054688 441.027344 726.03125 437.257812 C 727.929688 429.667969 731.542969 420.851562 736.875 410.800781 C 736.914062 410.683594 736.953125 410.589844 737 410.527344 L 737.0625 410.347656 C 738.171875 409.03125 739.625 408.835938 741.421875 409.753906 C 743.167969 410.644531 744.011719 411.910156 743.972656 413.574219 Z M 776.800781 411.777344 C 783.625 418.234375 779.96875 429.238281 765.820312 444.785156 C 765.304688 445.355469 764.789062 445.347656 764.265625 444.761719 C 764.203125 444.652344 764.148438 444.597656 764.09375 444.605469 L 762.167969 466.320312 C 762.011719 467.371094 761.472656 467.964844 760.558594 468.113281 L 756.21875 468.105469 C 755.015625 467.988281 754.34375 467.394531 754.1875 466.320312 C 754.171875 466.148438 754.15625 465.976562 754.140625 465.8125 L 759.167969 420.484375 L 760.386719 409.492188 C 760.675781 407.6875 762.558594 406.898438 766.046875 407.140625 C 768.445312 407.265625 770.609375 407.804688 772.550781 408.734375 C 773.417969 409.15625 774.246094 409.640625 775.027344 410.230469 C 775.636719 410.683594 776.230469 411.199219 776.800781 411.777344 Z M 774.847656 414.808594 C 774.082031 413.917969 772.964844 413.621094 771.503906 413.902344 C 770.179688 414.160156 768.570312 414.894531 766.679688 416.113281 L 765.4375 430.058594 L 765.195312 432.789062 C 772.925781 422.453125 776.144531 416.457031 774.847656 414.808594 Z M 809.867188 403.578125 L 793.085938 405.546875 C 792.175781 405.75 791.636719 406.320312 791.464844 407.25 L 791.261719 411.574219 C 791.285156 412.378906 791.589844 413.066406 792.160156 413.636719 L 787.503906 461.539062 C 787.410156 462.695312 787.832031 463.570312 788.769531 464.171875 L 791.722656 465.867188 C 792.207031 466.109375 792.734375 466.171875 793.296875 466.0625 C 794.414062 465.835938 795.007812 465.09375 795.09375 463.820312 L 796.117188 452.007812 C 803.238281 450.859375 806.824219 450.28125 806.871094 450.28125 C 807.789062 450.132812 808.320312 449.484375 808.46875 448.320312 L 808.8125 444.667969 C 808.828125 444.324219 808.765625 443.957031 808.625 443.566406 C 808.210938 442.457031 807.414062 441.964844 806.230469 442.074219 L 796.828125 443.410156 L 799.289062 414.410156 C 799.289062 413.894531 799.296875 413.402344 799.304688 412.941406 C 806.644531 411.941406 810.367188 411.441406 810.476562 411.433594 C 811.390625 411.285156 811.953125 410.660156 812.15625 409.546875 L 812.453125 406.25 C 812.46875 405.84375 812.398438 405.453125 812.257812 405.0625 C 811.789062 403.96875 810.992188 403.46875 809.867188 403.578125 Z M 809.867188 403.578125 " fill-opacity="1" fill-rule="nonzero"/><g clip-path="url(#d28f4c1009)"><path fill="#486581" d="M 860.308594 248.929688 C 860.324219 249.179688 860.128906 249.398438 859.878906 249.421875 L 859.847656 249.421875 C 859.847656 249.421875 859.058594 249.492188 857.589844 249.632812 C 856.996094 249.710938 856.296875 249.804688 855.5 249.929688 C 855.296875 249.960938 855.085938 249.992188 854.867188 250.023438 C 853.773438 250.203125 852.5625 250.40625 851.125 250.539062 C 850.414062 250.578125 849.660156 250.617188 848.871094 250.664062 C 848.097656 250.671875 847.285156 250.679688 846.433594 250.6875 C 845.613281 250.703125 844.777344 250.679688 843.855469 250.78125 C 843.628906 250.804688 843.402344 250.820312 843.167969 250.835938 C 843.074219 250.84375 842.894531 250.851562 842.863281 250.867188 L 842.53125 250.9375 C 842.085938 251.03125 841.640625 251.117188 841.179688 251.21875 C 840.234375 251.460938 839.3125 251.734375 838.242188 251.984375 C 837.71875 252.101562 837.171875 252.265625 836.648438 252.34375 C 836.125 252.421875 835.585938 252.507812 835.042969 252.597656 L 834.636719 252.660156 C 834.402344 252.699219 834.332031 252.675781 834.167969 252.691406 C 833.886719 252.699219 833.605469 252.707031 833.316406 252.714844 C 832.746094 252.730469 832.167969 252.738281 831.582031 252.753906 C 830.425781 252.769531 829.246094 252.785156 828.039062 252.800781 C 827.4375 252.808594 826.835938 252.816406 826.21875 252.816406 C 825.664062 252.816406 825 252.871094 824.382812 252.894531 C 823.125 252.949219 821.835938 253.050781 820.542969 253.074219 C 819.894531 253.089844 819.246094 253.097656 818.582031 253.113281 L 817.589844 253.128906 L 817.339844 253.136719 C 817.167969 253.136719 817.144531 253.121094 817.042969 253.121094 L 816.527344 253.082031 C 815.839844 253.019531 815.128906 252.996094 814.433594 252.886719 C 813.742188 252.777344 813.054688 252.667969 812.359375 252.550781 C 809.703125 251.992188 806.964844 251.695312 804.097656 251.429688 C 803.378906 251.382812 802.652344 251.328125 801.925781 251.28125 L 800.285156 251.164062 L 799.78125 251.164062 C 798.328125 251.1875 796.90625 251.117188 795.390625 251.195312 C 793.914062 251.257812 792.332031 251.265625 790.894531 251.382812 C 789.417969 251.460938 787.957031 251.65625 786.417969 251.882812 C 785.644531 252 784.875 252.109375 784.109375 252.210938 C 783.34375 252.3125 782.570312 252.421875 781.796875 252.527344 C 780.273438 252.730469 778.75 252.917969 777.191406 253.222656 L 774.878906 253.628906 L 772.464844 253.980469 C 770.835938 254.246094 769.28125 254.363281 767.6875 254.542969 L 766.5 254.667969 L 765.273438 254.746094 L 762.816406 254.902344 L 758.011719 255.058594 L 753.171875 255.316406 L 749.574219 255.363281 L 749.347656 255.363281 C 749.339844 255.363281 749.167969 255.363281 749.199219 255.355469 L 748.894531 255.332031 L 748.285156 255.277344 L 745.847656 255.066406 C 745.027344 255.003906 744.230469 254.917969 743.449219 254.800781 C 741.882812 254.582031 740.320312 254.363281 738.765625 254.152344 C 738 254.050781 737.242188 253.925781 736.46875 253.847656 C 735.6875 253.777344 734.902344 253.707031 734.128906 253.644531 C 733.371094 253.582031 732.527344 253.488281 731.855469 253.457031 C 731.097656 253.425781 730.332031 253.394531 729.582031 253.363281 L 728.449219 253.316406 L 727.289062 253.316406 C 726.523438 253.316406 725.757812 253.324219 724.992188 253.324219 L 723.851562 253.332031 C 723.554688 253.339844 723.140625 253.378906 722.796875 253.402344 C 722.070312 253.457031 721.351562 253.496094 720.621094 253.613281 C 719.207031 253.769531 717.628906 254.089844 716.191406 254.238281 C 714.730469 254.394531 713.273438 254.550781 711.84375 254.707031 C 710.429688 254.832031 709 255.058594 707.601562 255.222656 C 706.199219 255.394531 704.761719 255.488281 703.378906 255.621094 C 700.621094 255.816406 697.96875 255.988281 695.328125 256.050781 C 692.742188 256.105469 690.238281 256.152344 687.832031 256.199219 C 685.429688 256.261719 683.132812 256.316406 680.953125 256.371094 C 678.765625 256.402344 676.683594 256.441406 674.730469 256.472656 C 672.777344 256.472656 670.953125 256.613281 669.265625 256.691406 C 667.578125 256.777344 666.03125 256.863281 664.632812 256.933594 C 661.816406 257.035156 659.621094 257.066406 658.121094 257.105469 C 656.617188 257.136719 655.820312 257.160156 655.820312 257.160156 C 655.5625 257.167969 655.34375 256.957031 655.335938 256.699219 C 655.328125 256.449219 655.53125 256.238281 655.78125 256.214844 C 655.78125 256.214844 658.980469 255.996094 664.570312 255.621094 C 665.96875 255.503906 667.507812 255.371094 669.195312 255.222656 C 669.257812 255.214844 669.328125 255.214844 669.390625 255.207031 C 669.34375 255.050781 669.28125 254.863281 669.210938 254.621094 C 669.125 254.316406 669.007812 253.957031 668.90625 253.542969 C 668.796875 253.128906 668.59375 252.667969 668.445312 252.15625 C 668.296875 251.65625 668.078125 251.101562 667.875 250.492188 C 667.671875 249.890625 667.445312 249.257812 667.265625 248.601562 C 667.046875 247.867188 666.9375 247.21875 666.773438 246.5 C 666.632812 245.789062 666.492188 245.066406 666.351562 244.347656 C 666.203125 243.636719 666.109375 242.910156 665.984375 242.207031 C 665.851562 241.511719 665.773438 240.769531 665.671875 240.152344 C 665.554688 239.496094 665.453125 238.855469 665.367188 238.210938 C 665.265625 237.585938 665.1875 236.984375 665.15625 236.40625 C 665.109375 235.835938 665.0625 235.3125 665.070312 234.859375 C 665.070312 234.414062 665.09375 234.023438 665.109375 233.695312 C 665.140625 233.046875 665.179688 232.679688 665.179688 232.679688 C 665.203125 232.414062 665.445312 232.21875 665.710938 232.25 C 665.90625 232.273438 666.054688 232.398438 666.117188 232.570312 C 666.117188 232.570312 666.242188 232.921875 666.421875 233.546875 C 666.515625 233.859375 666.625 234.234375 666.726562 234.664062 C 666.84375 235.09375 667.007812 235.546875 667.148438 236.054688 C 667.4375 237.0625 667.851562 238.253906 668.195312 239.621094 C 668.390625 240.339844 668.523438 240.988281 668.65625 241.707031 C 668.789062 242.410156 668.945312 243.121094 669.0625 243.839844 C 669.179688 244.558594 669.296875 245.269531 669.414062 245.976562 C 669.523438 246.664062 669.59375 247.421875 669.71875 248.007812 C 669.84375 248.679688 669.96875 249.320312 670.078125 249.9375 C 670.203125 250.539062 670.289062 251.132812 670.351562 251.703125 C 670.421875 252.265625 670.484375 252.777344 670.5 253.246094 C 670.507812 253.707031 670.5 254.113281 670.5 254.449219 C 670.492188 254.722656 670.484375 254.933594 670.476562 255.097656 C 671.792969 254.980469 673.183594 254.855469 674.652344 254.808594 C 678.554688 254.621094 682.953125 254.417969 687.761719 254.191406 C 690.160156 254.097656 692.660156 253.996094 695.25 253.886719 C 697.78125 253.777344 700.472656 253.550781 703.199219 253.300781 C 704.550781 253.144531 705.902344 253.035156 707.296875 252.832031 C 708.703125 252.636719 710.085938 252.382812 711.554688 252.226562 C 712.984375 252.0625 714.535156 251.90625 715.910156 251.726562 C 717.386719 251.5625 718.714844 251.273438 720.269531 251.085938 C 720.152344 250.734375 720.011719 250.320312 719.886719 249.84375 C 719.785156 249.476562 719.667969 249.085938 719.574219 248.664062 C 719.480469 248.242188 719.355469 247.804688 719.277344 247.335938 C 719.191406 246.875 719.097656 246.398438 719.003906 245.914062 C 718.925781 245.4375 718.839844 244.902344 718.777344 244.457031 C 718.597656 243.472656 718.449219 242.480469 718.363281 241.550781 C 718.300781 241.089844 718.292969 240.628906 718.285156 240.199219 C 718.269531 239.769531 718.261719 239.355469 718.269531 238.980469 C 718.277344 237.460938 718.449219 236.429688 718.449219 236.429688 C 718.496094 236.164062 718.753906 235.976562 719.019531 236.023438 C 719.183594 236.046875 719.316406 236.15625 719.386719 236.296875 C 719.386719 236.296875 719.839844 237.242188 720.269531 238.699219 C 720.386719 239.058594 720.496094 239.457031 720.597656 239.878906 C 720.714844 240.292969 720.808594 240.738281 720.917969 241.199219 C 721.152344 242.113281 721.351562 243.089844 721.523438 244.074219 C 721.59375 244.621094 721.640625 245.082031 721.6875 245.585938 C 721.71875 246.078125 721.757812 246.5625 721.789062 247.03125 C 721.828125 247.5 721.820312 247.953125 721.84375 248.382812 C 721.867188 248.8125 721.851562 249.226562 721.84375 249.601562 C 721.835938 250.101562 721.820312 250.539062 721.789062 250.914062 C 722.078125 250.890625 722.359375 250.867188 722.648438 250.84375 C 723.054688 250.8125 723.398438 250.773438 723.859375 250.757812 L 725 250.742188 C 726.53125 250.75 728.039062 250.65625 729.628906 250.742188 C 730.417969 250.765625 731.207031 250.796875 731.996094 250.820312 C 732.878906 250.851562 733.574219 250.9375 734.378906 250.992188 C 735.160156 251.054688 735.9375 251.117188 736.726562 251.179688 C 737.507812 251.25 738.3125 251.382812 739.101562 251.476562 C 740.671875 251.6875 742.242188 251.890625 743.832031 252.101562 C 744.144531 252.148438 744.449219 252.179688 744.753906 252.21875 C 744.667969 251.882812 744.410156 250.789062 744.191406 249.28125 C 744.121094 248.820312 744.003906 248.335938 743.925781 247.8125 C 743.839844 247.289062 743.753906 246.734375 743.660156 246.164062 C 743.574219 245.570312 743.480469 244.957031 743.386719 244.332031 C 743.332031 243.722656 743.277344 243.097656 743.230469 242.480469 C 743.191406 241.753906 743.167969 241.207031 743.152344 240.574219 C 743.136719 239.964844 743.136719 239.355469 743.144531 238.777344 C 743.136719 238.1875 743.175781 237.625 743.214844 237.085938 C 743.246094 236.546875 743.285156 236.039062 743.332031 235.570312 C 743.503906 233.695312 743.792969 232.445312 743.792969 232.445312 C 743.855469 232.1875 744.113281 232.023438 744.378906 232.078125 C 744.558594 232.117188 744.691406 232.257812 744.738281 232.421875 C 744.738281 232.421875 745.089844 233.65625 745.355469 235.523438 C 745.503906 236.453125 745.621094 237.539062 745.722656 238.714844 C 745.785156 239.300781 745.847656 239.902344 745.886719 240.511719 C 745.925781 241.105469 745.972656 241.800781 745.988281 242.324219 C 746.050781 243.550781 746.113281 244.785156 746.167969 245.9375 C 746.207031 246.5 746.183594 247.101562 746.191406 247.640625 C 746.191406 248.1875 746.183594 248.703125 746.144531 249.179688 C 745.996094 250.976562 745.761719 252.179688 745.730469 252.320312 C 745.878906 252.328125 746.027344 252.34375 746.167969 252.359375 L 748.496094 252.550781 L 749.363281 252.621094 C 749.378906 252.621094 749.378906 252.621094 749.378906 252.621094 L 749.589844 252.621094 L 753.1875 252.550781 L 757.941406 252.3125 L 762.730469 252.1875 L 765.0625 252.054688 L 766.226562 251.992188 L 767.414062 251.875 C 768.40625 251.765625 769.421875 251.679688 770.40625 251.570312 C 770.335938 251.039062 770.242188 250.132812 770.1875 249.015625 C 770.15625 248.5625 770.078125 248.070312 770.054688 247.554688 C 770.007812 247.046875 769.992188 246.484375 769.90625 245.953125 C 769.835938 245.414062 769.765625 244.855469 769.695312 244.285156 C 769.59375 243.707031 769.476562 243.027344 769.40625 242.503906 C 769.296875 241.878906 769.203125 241.261719 769.109375 240.644531 C 769.039062 240.011719 769.007812 239.386719 768.96875 238.777344 C 768.90625 238.171875 768.976562 237.5625 769 237.007812 C 769.03125 236.445312 769.054688 235.90625 769.132812 235.4375 C 769.460938 233.59375 769.84375 232.375 769.84375 232.375 C 769.921875 232.117188 770.195312 231.976562 770.453125 232.054688 C 770.625 232.109375 770.75 232.257812 770.789062 232.421875 C 770.789062 232.421875 771.039062 233.671875 771.148438 235.539062 C 771.203125 235.984375 771.277344 236.460938 771.339844 236.96875 C 771.371094 237.21875 771.402344 237.476562 771.433594 237.734375 C 771.449219 237.992188 771.480469 238.269531 771.535156 238.542969 C 771.628906 239.089844 771.722656 239.652344 771.808594 240.230469 C 771.925781 240.816406 772.027344 241.417969 772.121094 242.019531 C 772.222656 242.714844 772.285156 243.269531 772.363281 243.894531 C 772.402344 244.535156 772.402344 245.183594 772.425781 245.804688 C 772.464844 246.429688 772.355469 246.992188 772.324219 247.546875 C 772.277344 248.09375 772.222656 248.617188 772.144531 249.085938 C 771.964844 250.070312 771.777344 250.859375 771.636719 251.398438 C 771.792969 251.375 771.957031 251.359375 772.121094 251.328125 L 774.410156 251.007812 L 776.761719 250.609375 C 778.300781 250.320312 779.898438 250.132812 781.476562 249.929688 C 782.25 249.828125 783.023438 249.734375 783.796875 249.632812 C 784.570312 249.539062 785.335938 249.429688 786.097656 249.320312 C 787.613281 249.109375 789.199219 248.90625 790.769531 248.828125 C 792.371094 248.710938 793.828125 248.726562 795.351562 248.664062 C 796.835938 248.601562 798.390625 248.664062 799.886719 248.664062 C 800.097656 248.671875 800.222656 248.664062 800.496094 248.679688 L 802.136719 248.820312 C 802.863281 248.882812 803.589844 248.945312 804.308594 249.007812 C 807.1875 249.328125 810.078125 249.695312 812.804688 250.3125 C 813.46875 250.429688 814.125 250.546875 814.777344 250.664062 C 815.425781 250.78125 816.066406 250.804688 816.707031 250.875 L 817.183594 250.921875 L 817.378906 250.945312 L 818.621094 250.945312 C 819.277344 250.945312 819.933594 250.945312 820.582031 250.945312 C 821.882812 250.945312 823.132812 250.875 824.375 250.84375 C 825.007812 250.828125 825.578125 250.789062 826.242188 250.796875 C 826.851562 250.804688 827.460938 250.804688 828.0625 250.8125 C 829.261719 250.820312 830.433594 250.828125 831.574219 250.835938 C 832.136719 250.835938 832.699219 250.835938 833.246094 250.835938 C 833.519531 250.835938 833.792969 250.835938 834.066406 250.84375 C 834.183594 250.84375 834.386719 250.851562 834.425781 250.835938 L 834.832031 250.789062 C 835.371094 250.71875 835.914062 250.65625 836.445312 250.59375 C 836.976562 250.53125 837.4375 250.390625 837.929688 250.296875 C 838.875 250.109375 839.898438 249.835938 840.851562 249.625 C 841.351562 249.539062 841.84375 249.453125 842.335938 249.367188 L 842.695312 249.304688 C 842.902344 249.28125 842.957031 249.289062 843.089844 249.273438 C 843.324219 249.265625 843.550781 249.25 843.777344 249.242188 C 844.675781 249.171875 845.597656 249.210938 846.464844 249.226562 C 847.308594 249.242188 848.113281 249.265625 848.886719 249.28125 C 849.644531 249.265625 850.375 249.242188 851.0625 249.226562 C 852.414062 249.140625 853.6875 248.984375 854.742188 248.851562 C 855.820312 248.734375 856.757812 248.632812 857.511719 248.570312 C 859.027344 248.492188 859.839844 248.453125 859.839844 248.453125 C 859.839844 248.453125 859.847656 248.453125 859.847656 248.453125 C 860.082031 248.476562 860.292969 248.671875 860.308594 248.929688 Z M 821.78125 584.144531 C 823.304688 584.292969 824.46875 584.425781 825.3125 584.464844 C 825.398438 584.464844 825.5 584.472656 825.585938 584.480469 C 826.4375 584.472656 826.898438 584.472656 826.898438 584.472656 L 826.96875 584.472656 C 827.226562 584.472656 827.4375 584.683594 827.4375 584.941406 C 827.4375 585.191406 827.25 585.394531 827.007812 585.410156 C 827.007812 585.410156 826.515625 585.449219 825.601562 585.519531 C 825.484375 585.527344 825.335938 585.527344 825.203125 585.527344 C 824.3125 585.542969 823.140625 585.511719 821.726562 585.433594 C 820.917969 585.410156 819.949219 585.371094 819.011719 585.402344 C 818.050781 585.441406 816.988281 585.527344 815.839844 585.644531 C 815.246094 585.691406 814.636719 585.746094 814 585.800781 C 813.375 585.839844 812.75 585.847656 812.101562 585.871094 C 811.382812 585.878906 810.71875 585.800781 810 585.761719 C 809.320312 585.675781 808.617188 585.589844 807.90625 585.503906 C 807.226562 585.433594 806.558594 585.316406 805.824219 585.277344 C 805.457031 585.253906 805.082031 585.238281 804.707031 585.222656 C 804.542969 585.214844 804.277344 585.191406 804.191406 585.207031 L 803.628906 585.238281 C 802.121094 585.324219 800.582031 585.386719 798.945312 585.511719 C 795.726562 585.722656 792.230469 586.027344 788.777344 586.277344 C 785.226562 586.574219 781.617188 586.980469 777.769531 587.011719 C 776.839844 587.027344 775.902344 587.035156 774.964844 587.050781 L 774.261719 587.058594 L 773.636719 587.121094 L 772.285156 587.261719 C 771.355469 587.386719 770.4375 587.511719 769.414062 587.621094 C 768.914062 587.683594 768.414062 587.738281 767.953125 587.746094 L 767.242188 587.785156 L 766.890625 587.800781 L 766.710938 587.808594 L 766.460938 587.808594 C 764.40625 587.785156 762.488281 587.457031 760.675781 587.214844 L 759.269531 587.050781 C 758.863281 586.996094 758.394531 587.011719 757.964844 586.980469 C 757.097656 586.925781 756.148438 586.980469 755.226562 586.988281 C 754.234375 586.996094 753.21875 587.027344 752.328125 586.941406 L 751.632812 586.894531 L 751.460938 586.886719 L 751.234375 586.863281 L 750.890625 586.824219 L 749.519531 586.667969 C 747.707031 586.457031 745.910156 586.246094 744.144531 586.035156 C 743.277344 585.949219 742.421875 585.871094 741.570312 585.792969 C 740.726562 585.707031 739.875 585.628906 739.015625 585.605469 C 738.164062 585.558594 737.320312 585.511719 736.484375 585.464844 C 735.679688 585.457031 734.878906 585.449219 734.089844 585.441406 C 730.894531 585.371094 727.789062 585.691406 724.945312 585.746094 C 724.28125 585.785156 723.632812 585.824219 723 585.863281 C 722.664062 585.925781 722.335938 585.980469 722.007812 586.035156 L 721.523438 586.121094 L 721.484375 586.128906 L 721.46875 586.128906 L 721.359375 586.160156 L 721.132812 586.230469 C 719.933594 586.550781 718.792969 586.980469 717.621094 587.308594 C 717.035156 587.457031 716.449219 587.660156 715.917969 587.746094 C 715.386719 587.832031 714.871094 587.917969 714.378906 587.996094 C 713.289062 588.144531 712.40625 588.167969 711.546875 588.257812 C 710.703125 588.351562 709.960938 588.335938 709.320312 588.320312 C 708.671875 588.3125 708.125 588.304688 707.679688 588.304688 C 706.789062 588.296875 706.316406 588.289062 706.316406 588.289062 C 706.058594 588.289062 705.847656 588.066406 705.847656 587.808594 C 705.847656 587.558594 706.042969 587.363281 706.285156 587.339844 C 706.285156 587.339844 706.761719 587.308594 707.648438 587.253906 C 708.09375 587.222656 708.640625 587.191406 709.28125 587.152344 C 709.921875 587.113281 710.671875 587.082031 711.46875 586.949219 C 712.257812 586.832031 713.203125 586.738281 714.097656 586.566406 C 714.582031 586.457031 715.089844 586.347656 715.621094 586.230469 C 716.152344 586.113281 716.613281 585.910156 717.136719 585.746094 C 718.175781 585.394531 719.316406 584.894531 720.589844 584.464844 L 720.832031 584.386719 L 720.949219 584.347656 L 720.980469 584.339844 C 720.933594 584.347656 721.085938 584.316406 721.078125 584.316406 L 721.140625 584.300781 L 721.625 584.191406 C 721.945312 584.121094 722.28125 584.050781 722.609375 583.980469 C 723.320312 583.894531 724.101562 583.800781 724.820312 583.746094 C 727.65625 583.558594 730.691406 583.144531 734.011719 583.121094 C 734.855469 583.105469 735.710938 583.089844 736.570312 583.074219 C 737.40625 583.097656 738.25 583.113281 739.101562 583.136719 C 739.953125 583.152344 740.828125 583.207031 741.71875 583.285156 C 742.613281 583.355469 743.511719 583.425781 744.417969 583.496094 C 746.183594 583.667969 747.980469 583.847656 749.804688 584.035156 L 751.171875 584.175781 L 751.515625 584.214844 L 751.601562 584.222656 L 751.632812 584.222656 L 751.804688 584.230469 L 752.492188 584.269531 C 753.4375 584.347656 754.28125 584.300781 755.15625 584.292969 C 756.09375 584.285156 757.027344 584.214844 758.042969 584.277344 C 758.550781 584.300781 759.019531 584.285156 759.550781 584.347656 L 760.957031 584.496094 C 762.886719 584.738281 764.726562 585.035156 766.460938 585.066406 L 766.546875 585.074219 L 766.585938 585.074219 C 766.578125 585.074219 766.601562 585.074219 766.609375 585.074219 L 766.742188 585.066406 L 767.09375 585.050781 L 767.804688 585.019531 C 768.289062 585.011719 768.734375 584.964844 769.171875 584.902344 L 771.933594 584.574219 L 773.308594 584.441406 C 773.300781 584.386719 773.300781 584.339844 773.292969 584.277344 C 773.222656 583.691406 773.097656 582.839844 772.878906 581.722656 C 772.777344 581.167969 772.628906 580.539062 772.550781 579.78125 C 772.472656 579.039062 772.519531 578.09375 772.910156 577.210938 C 773.292969 576.335938 773.886719 575.59375 774.542969 574.898438 C 774.722656 574.71875 774.839844 574.578125 775.089844 574.359375 C 775.261719 574.210938 775.433594 574.054688 775.613281 573.894531 C 775.917969 573.589844 776.457031 573.246094 776.925781 572.941406 C 777.191406 572.808594 777.449219 572.683594 777.722656 572.550781 C 778.011719 572.441406 778.320312 572.363281 778.632812 572.269531 C 779.265625 572.160156 779.953125 572.136719 780.5625 572.253906 C 780.875 572.300781 781.171875 572.363281 781.445312 572.441406 L 781.65625 572.496094 L 781.820312 572.550781 L 781.914062 572.589844 L 782.296875 572.730469 C 782.804688 572.894531 783.34375 573.144531 783.898438 573.386719 C 784.960938 573.847656 785.941406 574.242188 787.019531 574.546875 C 787.316406 574.640625 787.613281 574.742188 787.910156 574.835938 L 788.121094 574.90625 C 788.183594 574.921875 788.261719 574.953125 788.378906 575.015625 C 788.589844 575.117188 788.800781 575.21875 788.996094 575.335938 C 789.761719 575.78125 790.355469 576.710938 790.574219 577.421875 C 790.816406 578.148438 790.925781 578.65625 791.105469 578.898438 C 791.261719 579.148438 791.496094 579.3125 791.925781 579.476562 C 792.035156 579.507812 792.136719 579.5625 792.246094 579.585938 L 792.710938 579.710938 L 793.632812 579.976562 L 794.554688 580.234375 L 795.429688 580.421875 L 796.304688 580.617188 L 797.171875 580.710938 C 797.757812 580.8125 798.304688 580.75 798.859375 580.734375 L 799.070312 580.726562 L 799.09375 580.726562 C 799.085938 580.726562 799.09375 580.726562 799.09375 580.726562 L 799.101562 580.726562 L 799.21875 580.703125 L 799.707031 580.609375 C 799.980469 580.53125 800.152344 580.476562 800.425781 580.382812 C 800.957031 580.179688 801.503906 579.945312 802.066406 579.65625 C 803.230469 579.054688 804.386719 578.460938 805.550781 577.867188 L 806.324219 577.421875 C 806.558594 577.265625 806.660156 577.140625 806.851562 577.015625 C 807.140625 576.679688 807.421875 576.382812 807.53125 575.945312 C 807.835938 575.125 807.765625 573.875 807.78125 572.566406 C 807.804688 571.871094 807.828125 571.152344 808.046875 570.394531 C 808.101562 570.207031 808.140625 570.019531 808.210938 569.832031 L 808.460938 569.285156 C 808.609375 568.910156 808.875 568.597656 809.109375 568.277344 C 809.328125 567.933594 809.65625 567.730469 809.9375 567.457031 L 810.210938 567.222656 L 810.375 567.113281 L 810.75 566.855469 C 811.28125 566.5 811.890625 566.140625 812.492188 565.875 C 813.101562 565.59375 813.78125 565.382812 814.511719 565.273438 C 815.238281 565.171875 816.035156 565.257812 816.746094 565.523438 C 817.464844 565.78125 818.050781 566.234375 818.511719 566.707031 C 818.996094 567.175781 819.324219 567.699219 819.636719 568.199219 C 819.925781 568.691406 820.191406 569.246094 820.386719 569.699219 C 820.597656 570.152344 820.800781 570.628906 820.980469 571.128906 C 821.367188 572.097656 821.65625 573.066406 821.789062 574.054688 C 821.9375 575.03125 821.882812 576.023438 821.6875 576.867188 L 821.65625 577.03125 L 821.632812 577.148438 L 821.625 577.164062 L 821.601562 577.234375 L 821.507812 577.507812 C 821.445312 577.6875 821.382812 577.867188 821.320312 578.046875 C 821.210938 578.398438 821.058594 578.742188 820.925781 579.070312 C 820.792969 579.398438 820.660156 579.710938 820.535156 580.015625 C 820.433594 580.304688 820.339844 580.578125 820.253906 580.84375 C 819.847656 581.886719 819.714844 582.746094 819.574219 583.324219 C 819.503906 583.636719 819.449219 583.863281 819.417969 584.019531 C 820.269531 584.011719 821.035156 584.082031 821.78125 584.144531 Z M 796.390625 583.339844 L 795.835938 583.277344 L 794.820312 583.050781 L 793.8125 582.816406 L 792.882812 582.550781 L 791.964844 582.285156 L 791.511719 582.152344 C 791.316406 582.097656 791.128906 582.011719 790.933594 581.941406 C 790.191406 581.652344 789.332031 581.0625 788.863281 580.226562 C 788.386719 579.398438 788.292969 578.65625 788.144531 578.226562 C 787.988281 577.773438 787.894531 577.617188 787.621094 577.421875 C 787.558594 577.382812 787.496094 577.359375 787.441406 577.3125 C 787.425781 577.296875 787.371094 577.265625 787.285156 577.242188 L 787.074219 577.164062 L 786.277344 576.882812 C 785.09375 576.5 783.945312 575.96875 782.96875 575.492188 C 782.5 575.257812 782.046875 575.023438 781.515625 574.820312 L 781.046875 574.625 L 781.007812 574.609375 L 780.851562 574.5625 C 780.609375 574.484375 780.382812 574.421875 780.179688 574.390625 C 779.34375 574.195312 778.65625 574.304688 777.894531 574.6875 C 777.542969 574.90625 777.230469 575.03125 776.839844 575.367188 C 776.652344 575.507812 776.472656 575.65625 776.292969 575.796875 C 776.191406 575.875 775.988281 576.0625 775.847656 576.1875 C 775.230469 576.742188 774.707031 577.3125 774.402344 577.882812 C 773.785156 578.984375 774.058594 580.335938 774.175781 581.488281 C 774.324219 582.636719 774.339844 583.574219 774.339844 584.214844 C 774.339844 584.261719 774.339844 584.292969 774.339844 584.332031 L 774.878906 584.324219 C 775.816406 584.316406 776.753906 584.308594 777.683594 584.300781 C 781.3125 584.332031 785.007812 583.988281 788.550781 583.746094 C 791.300781 583.589844 793.882812 583.457031 796.390625 583.339844 Z M 818.417969 583.964844 C 818.433594 583.824219 818.464844 583.542969 818.519531 583.128906 C 818.613281 582.503906 818.636719 581.558594 818.996094 580.429688 C 819.074219 580.140625 819.152344 579.84375 819.238281 579.523438 C 819.332031 579.234375 819.433594 578.929688 819.542969 578.609375 C 819.652344 578.289062 819.761719 577.960938 819.847656 577.59375 C 819.894531 577.414062 819.941406 577.226562 819.988281 577.046875 L 820.058594 576.765625 L 820.074219 576.710938 L 820.074219 576.679688 L 820.089844 576.546875 C 820.339844 575.125 819.925781 573.558594 819.160156 571.855469 C 818.988281 571.441406 818.769531 571.003906 818.527344 570.542969 C 818.292969 570.066406 818.082031 569.699219 817.816406 569.292969 C 817.292969 568.527344 816.660156 567.832031 815.957031 567.628906 C 815.277344 567.386719 814.425781 567.558594 813.507812 568.019531 C 813.039062 568.253906 812.625 568.511719 812.164062 568.847656 L 811.796875 569.113281 L 811.703125 569.183594 C 811.695312 569.183594 811.648438 569.222656 811.679688 569.199219 L 811.53125 569.347656 C 811.382812 569.511719 811.164062 569.628906 811.070312 569.824219 C 810.539062 570.496094 810.367188 571.394531 810.382812 572.558594 C 810.390625 573.191406 810.429688 573.753906 810.414062 574.5 C 810.40625 575.1875 810.34375 575.976562 810.078125 576.78125 C 809.84375 577.609375 809.289062 578.351562 808.710938 578.953125 C 808.390625 579.226562 808.007812 579.539062 807.695312 579.742188 L 806.769531 580.273438 C 805.613281 580.882812 804.457031 581.496094 803.292969 582.097656 C 802.691406 582.402344 802.050781 582.707031 801.355469 582.964844 C 801.152344 583.042969 800.910156 583.113281 800.667969 583.175781 C 801.667969 583.144531 802.667969 583.128906 803.636719 583.113281 L 804.222656 583.105469 C 804.511719 583.105469 804.628906 583.136719 804.839844 583.144531 C 805.214844 583.175781 805.589844 583.214844 805.957031 583.246094 C 806.691406 583.316406 807.46875 583.464844 808.195312 583.566406 C 808.890625 583.675781 809.570312 583.785156 810.234375 583.894531 C 810.867188 583.949219 811.53125 584.058594 812.101562 584.082031 C 812.75 584.089844 813.382812 584.121094 813.984375 584.113281 C 814.582031 584.089844 815.160156 584.074219 815.722656 584.058594 C 816.660156 583.996094 817.550781 583.972656 818.417969 583.964844 Z M 844.324219 244.496094 C 844.394531 244.769531 844.457031 245.035156 844.519531 245.285156 C 844.628906 245.796875 844.792969 246.257812 844.871094 246.671875 C 844.941406 247.078125 845.027344 247.4375 845.089844 247.742188 C 845.222656 248.335938 845.316406 248.6875 845.316406 248.6875 L 845.332031 248.742188 C 845.378906 248.921875 845.527344 249.0625 845.722656 249.085938 C 845.980469 249.125 846.222656 248.945312 846.261719 248.6875 C 846.261719 248.6875 846.316406 248.328125 846.378906 247.679688 C 846.410156 247.359375 846.449219 246.960938 846.472656 246.507812 C 846.496094 246.054688 846.472656 245.554688 846.449219 245.003906 C 846.433594 244.730469 846.425781 244.449219 846.410156 244.152344 C 846.394531 243.878906 846.371094 243.605469 846.347656 243.324219 C 846.324219 243.035156 846.285156 242.761719 846.277344 242.441406 C 846.277344 242.121094 846.269531 241.792969 846.253906 241.457031 L 846.246094 241.207031 L 846.238281 241.082031 L 846.238281 241.042969 C 846.246094 241.230469 846.238281 241.089844 846.238281 241.128906 L 846.238281 241.113281 L 846.246094 241.050781 L 846.300781 240.550781 C 846.332031 240.214844 846.371094 239.871094 846.402344 239.527344 C 846.449219 238.839844 846.503906 238.140625 846.550781 237.4375 C 846.597656 236.726562 846.628906 236.023438 846.660156 235.320312 C 846.667969 234.96875 846.683594 234.625 846.691406 234.28125 L 846.699219 233.773438 L 846.699219 233.648438 C 846.699219 233.492188 846.699219 233.53125 846.691406 233.46875 L 846.675781 233.21875 C 846.613281 231.890625 846.496094 230.644531 846.363281 229.574219 C 846.121094 227.441406 845.792969 226.019531 845.792969 226.019531 L 845.792969 226.011719 C 845.753906 225.832031 845.613281 225.691406 845.425781 225.652344 C 845.167969 225.597656 844.910156 225.761719 844.855469 226.019531 C 844.855469 226.019531 844.550781 227.441406 844.347656 229.566406 C 844.238281 230.628906 844.144531 231.875 844.097656 233.203125 L 844.089844 233.453125 C 844.089844 233.46875 844.089844 233.59375 844.089844 233.523438 L 844.074219 233.648438 L 844.019531 234.15625 C 843.988281 234.5 843.964844 234.84375 843.933594 235.195312 C 843.878906 235.890625 843.832031 236.601562 843.792969 237.3125 C 843.761719 238.03125 843.730469 238.753906 843.707031 239.464844 C 843.699219 239.816406 843.699219 240.167969 843.691406 240.519531 L 843.683594 241.035156 L 843.683594 241.222656 L 843.691406 241.253906 L 843.738281 241.628906 C 843.808594 242.285156 843.925781 242.925781 844.082031 243.574219 C 844.175781 243.886719 844.246094 244.199219 844.324219 244.496094 Z M 822.03125 229.980469 C 822.039062 230.636719 822.0625 231.335938 822.109375 232.054688 C 822.132812 232.773438 822.15625 233.515625 822.179688 234.265625 C 822.21875 235.015625 822.226562 235.78125 822.289062 236.539062 C 822.34375 237.304688 822.398438 238.0625 822.453125 238.816406 C 822.515625 239.550781 822.609375 240.339844 822.648438 240.980469 C 822.6875 241.699219 822.765625 242.386719 822.820312 243.042969 C 822.875 243.699219 822.953125 244.316406 823.023438 244.886719 C 823.289062 247.171875 823.625 248.695312 823.625 248.695312 C 823.664062 248.882812 823.8125 249.03125 824.015625 249.0625 C 824.273438 249.109375 824.523438 248.929688 824.570312 248.671875 L 824.570312 248.664062 C 824.570312 248.664062 824.828125 247.125 824.984375 244.824219 C 825.023438 244.246094 825.078125 243.628906 825.09375 242.972656 C 825.117188 242.316406 825.164062 241.621094 825.171875 240.902344 C 825.179688 240.105469 825.15625 239.425781 825.140625 238.652344 C 825.109375 237.898438 825.070312 237.132812 825.039062 236.367188 C 825.015625 235.601562 824.9375 234.84375 824.890625 234.09375 C 824.835938 233.34375 824.78125 232.601562 824.679688 231.898438 C 824.507812 230.480469 824.226562 229.167969 824.070312 228.027344 C 823.765625 225.949219 823.414062 224.519531 823.351562 224.285156 C 823.34375 224.261719 823.335938 224.238281 823.335938 224.238281 C 823.289062 224.058594 823.140625 223.90625 822.945312 223.875 C 822.679688 223.835938 822.4375 224.019531 822.398438 224.277344 C 822.398438 224.277344 822.398438 224.300781 822.390625 224.308594 C 822.367188 224.480469 822.148438 225.949219 822.054688 228.113281 C 822.007812 228.699219 822.007812 229.324219 822.03125 229.980469 Z M 808 238.164062 C 808.078125 238.730469 808.164062 239.300781 808.265625 239.863281 C 808.476562 241.011719 808.726562 242.097656 808.953125 243.113281 C 809.078125 243.628906 809.15625 244.105469 809.257812 244.574219 C 809.335938 245.042969 809.46875 245.484375 809.539062 245.898438 C 809.804688 247.546875 810.140625 248.679688 810.140625 248.679688 L 810.148438 248.710938 C 810.195312 248.875 810.328125 249.007812 810.507812 249.046875 C 810.765625 249.101562 811.023438 248.945312 811.085938 248.679688 C 811.085938 248.679688 811.34375 247.53125 811.5 245.765625 C 811.523438 245.324219 811.53125 244.839844 811.515625 244.332031 C 811.492188 243.824219 811.53125 243.277344 811.453125 242.738281 C 811.34375 241.644531 811.203125 240.488281 810.992188 239.394531 C 810.90625 238.839844 810.804688 238.285156 810.703125 237.734375 C 810.617188 237.195312 810.515625 236.671875 810.414062 236.164062 C 810.3125 235.65625 810.257812 235.171875 810.164062 234.703125 C 810.085938 234.234375 809.984375 233.804688 809.90625 233.382812 C 809.648438 231.679688 809.296875 230.542969 809.296875 230.542969 C 809.25 230.386719 809.117188 230.253906 808.945312 230.207031 C 808.679688 230.144531 808.414062 230.300781 808.351562 230.566406 C 808.351562 230.566406 808.0625 231.71875 807.882812 233.429688 C 807.835938 233.859375 807.835938 234.351562 807.828125 234.859375 C 807.820312 235.367188 807.796875 235.921875 807.859375 236.460938 C 807.890625 237.015625 807.929688 237.585938 808 238.164062 Z M 784.960938 245.453125 C 785.164062 247.398438 785.457031 248.679688 785.457031 248.679688 C 785.496094 248.851562 785.628906 249 785.816406 249.046875 C 786.074219 249.109375 786.339844 248.945312 786.394531 248.6875 L 786.394531 248.679688 C 786.394531 248.679688 786.699219 247.40625 786.917969 245.523438 C 787.050781 244.574219 787.113281 243.488281 787.238281 242.300781 C 787.378906 241.113281 787.511719 239.839844 787.589844 238.566406 L 787.691406 237.65625 C 787.722656 237.335938 787.753906 237.007812 787.785156 236.6875 C 787.847656 236.046875 787.886719 235.414062 787.925781 234.804688 C 787.988281 234.195312 787.925781 233.625 787.910156 233.070312 C 787.886719 232.523438 787.863281 232 787.816406 231.523438 C 787.675781 229.597656 787.417969 228.308594 787.417969 228.308594 C 787.386719 228.136719 787.253906 227.988281 787.082031 227.933594 C 786.824219 227.855469 786.550781 228.003906 786.480469 228.261719 C 786.480469 228.261719 786.105469 229.519531 785.808594 231.429688 C 785.722656 231.90625 785.652344 232.421875 785.582031 232.96875 C 785.550781 233.242188 785.511719 233.523438 785.472656 233.8125 C 785.449219 234.101562 785.417969 234.390625 785.351562 234.679688 C 785.25 235.257812 785.148438 235.859375 785.0625 236.460938 C 785.023438 236.765625 784.984375 237.070312 784.9375 237.382812 L 784.820312 238.378906 C 784.734375 239.652344 784.71875 240.925781 784.703125 242.128906 C 784.679688 242.722656 784.773438 243.324219 784.796875 243.878906 C 784.851562 244.433594 784.914062 244.964844 784.960938 245.453125 Z M 692.144531 238.941406 C 692.253906 239.324219 692.363281 239.738281 692.511719 240.113281 C 692.671875 240.480469 692.835938 240.839844 693.015625 241.207031 C 693.171875 241.535156 693.335938 241.855469 693.507812 242.167969 C 693.664062 242.472656 693.78125 242.769531 693.929688 243.058594 C 694.09375 243.339844 694.164062 243.636719 694.28125 243.910156 C 694.382812 244.183594 694.515625 244.441406 694.609375 244.699219 C 694.882812 245.734375 695.226562 246.476562 695.226562 246.476562 L 695.257812 246.539062 C 695.3125 246.65625 695.421875 246.757812 695.554688 246.796875 C 695.8125 246.875 696.09375 246.734375 696.171875 246.476562 C 696.171875 246.476562 696.421875 245.695312 696.546875 244.441406 C 696.546875 244.128906 696.53125 243.785156 696.5 243.417969 C 696.460938 243.050781 696.453125 242.652344 696.328125 242.277344 C 696.226562 241.894531 696.109375 241.480469 695.976562 241.097656 C 695.828125 240.730469 695.664062 240.363281 695.492188 240.003906 C 695.34375 239.675781 695.179688 239.347656 695.015625 239.035156 C 694.875 238.730469 694.742188 238.433594 694.609375 238.140625 C 694.445312 237.851562 694.382812 237.585938 694.273438 237.328125 C 694.171875 237.0625 694.046875 236.828125 693.9375 236.578125 C 693.648438 235.453125 693.28125 234.710938 693.28125 234.710938 C 693.226562 234.59375 693.117188 234.5 692.984375 234.453125 C 692.71875 234.359375 692.425781 234.507812 692.332031 234.773438 C 692.332031 234.773438 692.066406 235.554688 691.917969 236.710938 C 691.902344 237.023438 691.925781 237.390625 691.957031 237.773438 C 691.996094 238.140625 692.019531 238.566406 692.144531 238.941406 Z M 693.171875 439.292969 C 692.796875 437.335938 692.269531 435.085938 692.050781 432.390625 C 691.917969 431.035156 691.816406 429.519531 691.589844 428.019531 C 691.308594 426.441406 690.894531 424.894531 690.519531 423.226562 C 690.128906 421.59375 689.691406 419.882812 689.300781 418.132812 C 688.910156 416.355469 688.511719 414.527344 688.097656 412.636719 C 687.292969 408.875 686.449219 404.914062 685.574219 400.816406 C 684.75 396.691406 683.875 392.429688 683.09375 388.074219 C 682.890625 386.988281 682.6875 385.894531 682.484375 384.800781 L 682.335938 383.980469 C 682.289062 383.660156 682.195312 383.417969 682.132812 383.136719 L 681.703125 381.488281 C 681.125 379.25 680.53125 377.164062 679.921875 374.945312 C 679.335938 372.777344 678.71875 370.621094 678.097656 368.472656 L 677.636719 366.863281 L 677.386719 366.015625 L 677.144531 365.234375 C 676.816406 364.203125 676.511719 363.140625 676.214844 362.085938 C 675.894531 361.03125 675.589844 359.820312 675.199219 358.832031 C 674.996094 358.300781 674.855469 357.847656 674.597656 357.253906 L 673.988281 355.769531 C 673.144531 353.832031 672.449219 351.78125 671.722656 349.8125 C 671.378906 348.90625 670.929688 347.726562 670.5 346.828125 C 670.28125 346.359375 670.070312 345.890625 669.851562 345.421875 C 669.664062 344.980469 669.476562 344.535156 669.289062 344.105469 L 669 343.457031 L 668.757812 342.746094 C 668.601562 342.269531 668.445312 341.800781 668.289062 341.332031 L 668.226562 341.152344 L 668.195312 341.066406 L 668.179688 341.019531 C 668.179688 341.027344 668.171875 341.003906 668.171875 340.996094 L 668.085938 340.675781 L 667.890625 339.964844 C 667.765625 339.496094 667.632812 339.027344 667.507812 338.558594 C 667.007812 336.695312 666.515625 334.882812 666.039062 333.132812 C 665.570312 331.375 665.203125 329.785156 664.960938 328.121094 C 664.820312 327.261719 664.6875 326.425781 664.554688 325.605469 C 664.359375 324.800781 664.21875 324.097656 663.972656 323.265625 C 663.496094 321.804688 663.050781 320.421875 662.628906 319.125 C 662.207031 317.820312 661.808594 316.605469 661.441406 315.480469 C 661.074219 314.371094 660.691406 313.332031 660.363281 312.402344 C 659.082031 308.679688 658.355469 306.554688 658.355469 306.554688 L 658.355469 306.546875 C 658.277344 306.3125 658.027344 306.179688 657.785156 306.25 C 657.535156 306.320312 657.386719 306.578125 657.457031 306.828125 C 657.457031 306.828125 657.605469 307.367188 657.878906 308.382812 C 658.167969 309.390625 658.535156 310.902344 659.113281 312.769531 C 659.394531 313.714844 659.714844 314.730469 660.035156 315.878906 C 660.347656 317.023438 660.683594 318.257812 661.042969 319.578125 C 661.402344 320.898438 661.785156 322.296875 662.191406 323.78125 C 662.363281 324.433594 662.511719 325.277344 662.675781 326.042969 C 662.777344 326.816406 662.878906 327.605469 662.980469 328.410156 C 663.113281 329.261719 663.167969 330.121094 663.378906 331.011719 C 663.566406 331.90625 663.730469 332.828125 663.957031 333.6875 C 664.382812 335.453125 664.820312 337.273438 665.273438 339.160156 C 665.382812 339.628906 665.5 340.097656 665.609375 340.574219 L 665.867188 341.652344 L 665.992188 342.058594 C 666.132812 342.535156 666.28125 343.011719 666.421875 343.488281 L 666.640625 344.207031 L 666.9375 344.957031 C 667.140625 345.460938 667.351562 345.960938 667.554688 346.460938 C 667.765625 346.929688 667.976562 347.398438 668.1875 347.867188 C 668.414062 348.34375 668.585938 348.796875 668.765625 349.25 L 669.03125 349.929688 L 669.171875 350.3125 L 669.304688 350.679688 C 670.015625 352.667969 670.671875 354.683594 671.542969 356.722656 L 672.160156 358.261719 C 672.332031 358.667969 672.527344 359.261719 672.707031 359.75 L 672.980469 360.523438 L 673.191406 361.273438 L 673.621094 362.804688 C 674.816406 367.066406 676.035156 371.386719 677.253906 375.71875 C 677.847656 377.820312 678.507812 380.046875 679.0625 382.136719 L 679.492188 383.722656 C 679.554688 383.980469 679.65625 384.269531 679.6875 384.496094 L 679.84375 385.316406 C 680.054688 386.410156 680.265625 387.496094 680.476562 388.585938 C 681.296875 392.929688 682.210938 397.183594 683.0625 401.300781 C 683.523438 403.453125 684 405.398438 684.476562 407.382812 C 684.953125 409.351562 685.425781 411.285156 685.878906 413.160156 C 686.339844 415.027344 686.792969 416.859375 687.222656 418.617188 C 687.667969 420.398438 688.144531 422.070312 688.582031 423.695312 C 688.996094 425.300781 689.441406 426.871094 689.769531 428.300781 C 690.066406 429.824219 690.214844 431.210938 690.410156 432.578125 C 690.753906 435.328125 691.417969 437.710938 691.855469 439.597656 C 692.8125 443.402344 693.359375 445.585938 693.359375 445.585938 C 693.421875 445.828125 693.65625 445.984375 693.90625 445.9375 C 694.164062 445.890625 694.328125 445.640625 694.28125 445.382812 L 694.28125 445.367188 C 694.335938 445.363281 693.914062 443.152344 693.171875 439.292969 Z M 693.171875 439.292969 " fill-opacity="1" fill-rule="nonzero"/></g></svg>