<svg xmlns="http://www.w3.org/2000/svg" xmlns:xlink="http://www.w3.org/1999/xlink" width="2000" zoomAndPan="magnify" viewBox="0 0 1500 824.999997" height="1100" preserveAspectRatio="xMidYMid meet" version="1.0"><defs><g/><clipPath id="22eecca619"><path d="M 472.113281 352.875 L 589.910156 352.875 L 589.910156 468.859375 L 472.113281 468.859375 Z M 472.113281 352.875 " clip-rule="nonzero"/></clipPath><clipPath id="477ea5931e"><path d="M 473.613281 352.875 L 588.382812 352.875 C 589.210938 352.875 589.882812 353.546875 589.882812 354.375 L 589.882812 467.359375 C 589.882812 468.1875 589.210938 468.859375 588.382812 468.859375 L 473.613281 468.859375 C 472.785156 468.859375 472.113281 468.1875 472.113281 467.359375 L 472.113281 354.375 C 472.113281 353.546875 472.785156 352.875 473.613281 352.875 Z M 473.613281 352.875 " clip-rule="nonzero"/></clipPath></defs><g clip-path="url(#22eecca619)"><g clip-path="url(#477ea5931e)"><path fill="#0a66c2" d="M 472.113281 352.875 L 589.910156 352.875 L 589.910156 468.859375 L 472.113281 468.859375 Z M 472.113281 352.875 " fill-opacity="1" fill-rule="nonzero"/></g></g><g fill="#ffffff" fill-opacity="1"><g transform="translate(502.845809, 440.422663)"><g><path d="M 7.46875 0 L 7.46875 -59.390625 L 33.09375 -59.390625 C 36.820312 -59.390625 40.140625 -58.539062 43.046875 -56.84375 C 45.960938 -55.144531 48.285156 -52.820312 50.015625 -49.875 C 51.742188 -46.9375 52.609375 -43.632812 52.609375 -39.96875 C 52.609375 -36.113281 51.742188 -32.671875 50.015625 -29.640625 C 48.285156 -26.617188 45.960938 -24.234375 43.046875 -22.484375 C 40.140625 -20.734375 36.820312 -19.859375 33.09375 -19.859375 L 21.890625 -19.859375 L 21.890625 0 Z M 21.640625 -32.5 L 31.046875 -32.5 C 32.296875 -32.5 33.425781 -32.804688 34.4375 -33.421875 C 35.457031 -34.046875 36.28125 -34.894531 36.90625 -35.96875 C 37.53125 -37.039062 37.84375 -38.285156 37.84375 -39.703125 C 37.84375 -41.171875 37.53125 -42.414062 36.90625 -43.4375 C 36.28125 -44.457031 35.457031 -45.25 34.4375 -45.8125 C 33.425781 -46.375 32.296875 -46.65625 31.046875 -46.65625 L 21.640625 -46.65625 Z M 21.640625 -32.5 "/></g></g></g><g fill="#393536" fill-opacity="1"><g transform="translate(608.14533, 453.426074)"><g><path d="M 24.109375 0.875 C 20.296875 0.875 16.816406 -0.175781 13.671875 -2.28125 C 10.535156 -4.394531 8.03125 -7.269531 6.15625 -10.90625 C 4.28125 -14.550781 3.34375 -18.660156 3.34375 -23.234375 C 3.34375 -27.867188 4.296875 -31.988281 6.203125 -35.59375 C 8.109375 -39.207031 10.6875 -42.039062 13.9375 -44.09375 C 17.195312 -46.144531 20.851562 -47.171875 24.90625 -47.171875 C 27.3125 -47.171875 29.507812 -46.816406 31.5 -46.109375 C 33.5 -45.410156 35.242188 -44.425781 36.734375 -43.15625 C 38.234375 -41.894531 39.46875 -40.441406 40.4375 -38.796875 C 41.40625 -37.160156 42.003906 -35.40625 42.234375 -33.53125 L 40.21875 -34.234375 L 40.21875 -46.203125 L 49.375 -46.203125 L 49.375 0 L 40.21875 0 L 40.21875 -11 L 42.328125 -11.609375 C 41.972656 -10.023438 41.253906 -8.484375 40.171875 -6.984375 C 39.085938 -5.492188 37.707031 -4.160156 36.03125 -2.984375 C 34.363281 -1.816406 32.515625 -0.878906 30.484375 -0.171875 C 28.460938 0.523438 26.335938 0.875 24.109375 0.875 Z M 26.484375 -7.484375 C 29.242188 -7.484375 31.675781 -8.15625 33.78125 -9.5 C 35.894531 -10.851562 37.550781 -12.71875 38.75 -15.09375 C 39.957031 -17.46875 40.5625 -20.179688 40.5625 -23.234375 C 40.5625 -26.222656 39.957031 -28.890625 38.75 -31.234375 C 37.550781 -33.585938 35.894531 -35.4375 33.78125 -36.78125 C 31.675781 -38.132812 29.242188 -38.8125 26.484375 -38.8125 C 23.785156 -38.8125 21.394531 -38.132812 19.3125 -36.78125 C 17.226562 -35.4375 15.582031 -33.585938 14.375 -31.234375 C 13.175781 -28.890625 12.578125 -26.222656 12.578125 -23.234375 C 12.578125 -20.179688 13.175781 -17.46875 14.375 -15.09375 C 15.582031 -12.71875 17.226562 -10.851562 19.3125 -9.5 C 21.394531 -8.15625 23.785156 -7.484375 26.484375 -7.484375 Z M 26.484375 -7.484375 "/></g></g></g><g fill="#393536" fill-opacity="1"><g transform="translate(663.848408, 453.426074)"><g><path d="M 25.609375 0.875 C 21.378906 0.875 17.609375 -0.164062 14.296875 -2.25 C 10.984375 -4.332031 8.359375 -7.175781 6.421875 -10.78125 C 4.484375 -14.382812 3.515625 -18.503906 3.515625 -23.140625 C 3.515625 -27.773438 4.46875 -31.894531 6.375 -35.5 C 8.28125 -39.113281 10.875 -41.960938 14.15625 -44.046875 C 17.445312 -46.128906 21.175781 -47.171875 25.34375 -47.171875 C 27.632812 -47.171875 29.847656 -46.800781 31.984375 -46.0625 C 34.128906 -45.332031 36.050781 -44.335938 37.75 -43.078125 C 39.445312 -41.816406 40.78125 -40.4375 41.75 -38.9375 C 42.71875 -37.445312 43.203125 -35.9375 43.203125 -34.40625 L 40.5625 -34.234375 L 40.5625 -65.125 L 49.625 -65.125 L 49.625 0 L 40.5625 0 L 40.5625 -11 L 42.328125 -11 C 42.328125 -9.59375 41.859375 -8.195312 40.921875 -6.8125 C 39.984375 -5.4375 38.734375 -4.160156 37.171875 -2.984375 C 35.617188 -1.816406 33.832031 -0.878906 31.8125 -0.171875 C 29.789062 0.523438 27.722656 0.875 25.609375 0.875 Z M 26.84375 -6.953125 C 29.59375 -6.953125 32.023438 -7.65625 34.140625 -9.0625 C 36.253906 -10.46875 37.910156 -12.390625 39.109375 -14.828125 C 40.316406 -17.265625 40.921875 -20.035156 40.921875 -23.140625 C 40.921875 -26.253906 40.316406 -29.023438 39.109375 -31.453125 C 37.910156 -33.890625 36.253906 -35.8125 34.140625 -37.21875 C 32.023438 -38.632812 29.59375 -39.34375 26.84375 -39.34375 C 24.082031 -39.34375 21.644531 -38.632812 19.53125 -37.21875 C 17.425781 -35.8125 15.769531 -33.890625 14.5625 -31.453125 C 13.363281 -29.023438 12.765625 -26.253906 12.765625 -23.140625 C 12.765625 -20.035156 13.363281 -17.265625 14.5625 -14.828125 C 15.769531 -12.390625 17.425781 -10.46875 19.53125 -9.0625 C 21.644531 -7.65625 24.082031 -6.953125 26.84375 -6.953125 Z M 26.84375 -6.953125 "/></g></g></g><g fill="#393536" fill-opacity="1"><g transform="translate(719.639478, 453.426074)"><g><path d="M 25.609375 0.875 C 21.378906 0.875 17.609375 -0.164062 14.296875 -2.25 C 10.984375 -4.332031 8.359375 -7.175781 6.421875 -10.78125 C 4.484375 -14.382812 3.515625 -18.503906 3.515625 -23.140625 C 3.515625 -27.773438 4.46875 -31.894531 6.375 -35.5 C 8.28125 -39.113281 10.875 -41.960938 14.15625 -44.046875 C 17.445312 -46.128906 21.175781 -47.171875 25.34375 -47.171875 C 27.632812 -47.171875 29.847656 -46.800781 31.984375 -46.0625 C 34.128906 -45.332031 36.050781 -44.335938 37.75 -43.078125 C 39.445312 -41.816406 40.78125 -40.4375 41.75 -38.9375 C 42.71875 -37.445312 43.203125 -35.9375 43.203125 -34.40625 L 40.5625 -34.234375 L 40.5625 -65.125 L 49.625 -65.125 L 49.625 0 L 40.5625 0 L 40.5625 -11 L 42.328125 -11 C 42.328125 -9.59375 41.859375 -8.195312 40.921875 -6.8125 C 39.984375 -5.4375 38.734375 -4.160156 37.171875 -2.984375 C 35.617188 -1.816406 33.832031 -0.878906 31.8125 -0.171875 C 29.789062 0.523438 27.722656 0.875 25.609375 0.875 Z M 26.84375 -6.953125 C 29.59375 -6.953125 32.023438 -7.65625 34.140625 -9.0625 C 36.253906 -10.46875 37.910156 -12.390625 39.109375 -14.828125 C 40.316406 -17.265625 40.921875 -20.035156 40.921875 -23.140625 C 40.921875 -26.253906 40.316406 -29.023438 39.109375 -31.453125 C 37.910156 -33.890625 36.253906 -35.8125 34.140625 -37.21875 C 32.023438 -38.632812 29.59375 -39.34375 26.84375 -39.34375 C 24.082031 -39.34375 21.644531 -38.632812 19.53125 -37.21875 C 17.425781 -35.8125 15.769531 -33.890625 14.5625 -31.453125 C 13.363281 -29.023438 12.765625 -26.253906 12.765625 -23.140625 C 12.765625 -20.035156 13.363281 -17.265625 14.5625 -14.828125 C 15.769531 -12.390625 17.425781 -10.46875 19.53125 -9.0625 C 21.644531 -7.65625 24.082031 -6.953125 26.84375 -6.953125 Z M 26.84375 -6.953125 "/></g></g></g><g fill="#393536" fill-opacity="1"><g transform="translate(775.430548, 453.426074)"><g><path d="M 24.109375 0.875 C 20.296875 0.875 16.816406 -0.175781 13.671875 -2.28125 C 10.535156 -4.394531 8.03125 -7.269531 6.15625 -10.90625 C 4.28125 -14.550781 3.34375 -18.660156 3.34375 -23.234375 C 3.34375 -27.867188 4.296875 -31.988281 6.203125 -35.59375 C 8.109375 -39.207031 10.6875 -42.039062 13.9375 -44.09375 C 17.195312 -46.144531 20.851562 -47.171875 24.90625 -47.171875 C 27.3125 -47.171875 29.507812 -46.816406 31.5 -46.109375 C 33.5 -45.410156 35.242188 -44.425781 36.734375 -43.15625 C 38.234375 -41.894531 39.46875 -40.441406 40.4375 -38.796875 C 41.40625 -37.160156 42.003906 -35.40625 42.234375 -33.53125 L 40.21875 -34.234375 L 40.21875 -46.203125 L 49.375 -46.203125 L 49.375 0 L 40.21875 0 L 40.21875 -11 L 42.328125 -11.609375 C 41.972656 -10.023438 41.253906 -8.484375 40.171875 -6.984375 C 39.085938 -5.492188 37.707031 -4.160156 36.03125 -2.984375 C 34.363281 -1.816406 32.515625 -0.878906 30.484375 -0.171875 C 28.460938 0.523438 26.335938 0.875 24.109375 0.875 Z M 26.484375 -7.484375 C 29.242188 -7.484375 31.675781 -8.15625 33.78125 -9.5 C 35.894531 -10.851562 37.550781 -12.71875 38.75 -15.09375 C 39.957031 -17.46875 40.5625 -20.179688 40.5625 -23.234375 C 40.5625 -26.222656 39.957031 -28.890625 38.75 -31.234375 C 37.550781 -33.585938 35.894531 -35.4375 33.78125 -36.78125 C 31.675781 -38.132812 29.242188 -38.8125 26.484375 -38.8125 C 23.785156 -38.8125 21.394531 -38.132812 19.3125 -36.78125 C 17.226562 -35.4375 15.582031 -33.585938 14.375 -31.234375 C 13.175781 -28.890625 12.578125 -26.222656 12.578125 -23.234375 C 12.578125 -20.179688 13.175781 -17.46875 14.375 -15.09375 C 15.582031 -12.71875 17.226562 -10.851562 19.3125 -9.5 C 21.394531 -8.15625 23.785156 -7.484375 26.484375 -7.484375 Z M 26.484375 -7.484375 "/></g></g></g><g fill="#393536" fill-opacity="1"><g transform="translate(831.133625, 453.426074)"><g><path d="M 17.6875 0 L 1.9375 -46.203125 L 11.09375 -46.28125 L 22.359375 -11.703125 L 20.328125 -11.875 L 32.5625 -38.890625 L 38.015625 -38.890625 L 50.34375 -11.796875 L 47.953125 -11.609375 L 59.3125 -46.203125 L 68.46875 -46.203125 L 52.890625 0 L 46.640625 0 L 33.796875 -29.390625 L 35.8125 -29.125 L 23.84375 0 Z M 17.6875 0 "/></g></g></g><g fill="#393536" fill-opacity="1"><g transform="translate(901.532456, 453.426074)"><g><path d="M 24.109375 0.875 C 20.296875 0.875 16.816406 -0.175781 13.671875 -2.28125 C 10.535156 -4.394531 8.03125 -7.269531 6.15625 -10.90625 C 4.28125 -14.550781 3.34375 -18.660156 3.34375 -23.234375 C 3.34375 -27.867188 4.296875 -31.988281 6.203125 -35.59375 C 8.109375 -39.207031 10.6875 -42.039062 13.9375 -44.09375 C 17.195312 -46.144531 20.851562 -47.171875 24.90625 -47.171875 C 27.3125 -47.171875 29.507812 -46.816406 31.5 -46.109375 C 33.5 -45.410156 35.242188 -44.425781 36.734375 -43.15625 C 38.234375 -41.894531 39.46875 -40.441406 40.4375 -38.796875 C 41.40625 -37.160156 42.003906 -35.40625 42.234375 -33.53125 L 40.21875 -34.234375 L 40.21875 -46.203125 L 49.375 -46.203125 L 49.375 0 L 40.21875 0 L 40.21875 -11 L 42.328125 -11.609375 C 41.972656 -10.023438 41.253906 -8.484375 40.171875 -6.984375 C 39.085938 -5.492188 37.707031 -4.160156 36.03125 -2.984375 C 34.363281 -1.816406 32.515625 -0.878906 30.484375 -0.171875 C 28.460938 0.523438 26.335938 0.875 24.109375 0.875 Z M 26.484375 -7.484375 C 29.242188 -7.484375 31.675781 -8.15625 33.78125 -9.5 C 35.894531 -10.851562 37.550781 -12.71875 38.75 -15.09375 C 39.957031 -17.46875 40.5625 -20.179688 40.5625 -23.234375 C 40.5625 -26.222656 39.957031 -28.890625 38.75 -31.234375 C 37.550781 -33.585938 35.894531 -35.4375 33.78125 -36.78125 C 31.675781 -38.132812 29.242188 -38.8125 26.484375 -38.8125 C 23.785156 -38.8125 21.394531 -38.132812 19.3125 -36.78125 C 17.226562 -35.4375 15.582031 -33.585938 14.375 -31.234375 C 13.175781 -28.890625 12.578125 -26.222656 12.578125 -23.234375 C 12.578125 -20.179688 13.175781 -17.46875 14.375 -15.09375 C 15.582031 -12.71875 17.226562 -10.851562 19.3125 -9.5 C 21.394531 -8.15625 23.785156 -7.484375 26.484375 -7.484375 Z M 26.484375 -7.484375 "/></g></g></g><g fill="#393536" fill-opacity="1"><g transform="translate(957.235534, 453.426074)"><g><path d="M 6.34375 0 L 6.34375 -46.203125 L 15.40625 -46.203125 L 15.40625 -36.703125 L 13.8125 -35.640625 C 14.40625 -37.691406 15.550781 -39.582031 17.25 -41.3125 C 18.945312 -43.039062 20.96875 -44.445312 23.3125 -45.53125 C 25.664062 -46.625 28.070312 -47.171875 30.53125 -47.171875 C 34.050781 -47.171875 36.984375 -46.476562 39.328125 -45.09375 C 41.679688 -43.71875 43.441406 -41.617188 44.609375 -38.796875 C 45.785156 -35.984375 46.375 -32.4375 46.375 -28.15625 L 46.375 0 L 37.3125 0 L 37.3125 -27.546875 C 37.3125 -30.179688 36.957031 -32.363281 36.25 -34.09375 C 35.550781 -35.832031 34.46875 -37.097656 33 -37.890625 C 31.53125 -38.679688 29.710938 -39.015625 27.546875 -38.890625 C 25.785156 -38.890625 24.171875 -38.609375 22.703125 -38.046875 C 21.234375 -37.492188 19.957031 -36.71875 18.875 -35.71875 C 17.789062 -34.726562 16.941406 -33.570312 16.328125 -32.25 C 15.710938 -30.925781 15.40625 -29.503906 15.40625 -27.984375 L 15.40625 0 L 10.90625 0 C 10.144531 0 9.382812 0 8.625 0 C 7.863281 0 7.101562 0 6.34375 0 Z M 6.34375 0 "/></g></g></g></svg>